<svg width="60" height="60" viewBox="0 0 60 60" fill="none" xmlns="http://www.w3.org/2000/svg">
<rect width="60" height="60" rx="5" fill="url(#paint0_linear_191_433)" fill-opacity="0.61"/>
<rect x="0.5" y="0.5" width="59" height="59" rx="4.5" stroke="url(#paint1_linear_191_433)" stroke-opacity="0.4"/>
<path d="M19.8978 33.756V36H10.9047V34.215L15.4948 29.88C15.9821 29.4153 16.3108 29.0187 16.4808 28.69C16.6508 28.35 16.7358 28.0157 16.7358 27.687C16.7358 27.211 16.5714 26.8483 16.2428 26.599C15.9254 26.3383 15.4551 26.208 14.8317 26.208C14.3104 26.208 13.8401 26.31 13.4208 26.514C13.0014 26.7067 12.6501 27.0013 12.3668 27.398L10.3608 26.106C10.8254 25.4147 11.4658 24.8763 12.2818 24.491C13.0978 24.0943 14.0328 23.896 15.0868 23.896C15.9708 23.896 16.7414 24.0433 17.3988 24.338C18.0674 24.6213 18.5831 25.0293 18.9458 25.562C19.3198 26.0833 19.5068 26.701 19.5068 27.415C19.5068 28.061 19.3708 28.6673 19.0988 29.234C18.8268 29.8007 18.2998 30.4467 17.5178 31.172L14.7808 33.756H19.8978ZM31.7651 33.501H29.8271V36H27.1411V33.501H20.7321V31.648L26.3421 24.1H29.2321L24.0301 31.257H27.2261V29.03H29.8271V31.257H31.7651V33.501ZM37.3898 21.686H39.7528L34.1428 37.7H31.7798L37.3898 21.686ZM49.0933 24.1V25.885L44.6733 36H41.6813L45.9483 26.344H42.0043V28.282H39.5563V24.1H49.0933Z" fill="white"/>
<defs>
<linearGradient id="paint0_linear_191_433" x1="30" y1="0" x2="30" y2="60" gradientUnits="userSpaceOnUse">
<stop stop-color="#006EFF"/>
<stop offset="1" stop-color="#00B2EA"/>
</linearGradient>
<linearGradient id="paint1_linear_191_433" x1="30" y1="0" x2="30" y2="60" gradientUnits="userSpaceOnUse">
<stop stop-color="white" stop-opacity="0.36"/>
<stop offset="1" stop-color="white" stop-opacity="0.81"/>
</linearGradient>
</defs>
</svg>
