<svg width="60" height="60" viewBox="0 0 60 60" fill="none" xmlns="http://www.w3.org/2000/svg">
<rect width="60" height="60" rx="5" fill="url(#paint0_linear_191_306)" fill-opacity="0.61"/>
<rect x="0.5" y="0.5" width="59" height="59" rx="4.5" stroke="url(#paint1_linear_191_306)" stroke-opacity="0.4"/>
<path fill-rule="evenodd" clip-rule="evenodd" d="M26.1478 19.9188C32.9521 20.4342 35.8568 16.3695 38.525 12.0677C39.5373 10.4365 40.5438 9.33246 42.5551 10.4593C45.1635 11.9209 45.4162 13.1663 43.2777 15.2809C39.677 18.8415 37.9759 23.1475 37.8689 28.1435C37.8218 30.3625 37.3708 32.4232 35.726 34.0492C34.3876 35.3731 32.7702 35.6732 31.0599 35.0384C29.3303 34.3955 29.5317 32.927 29.7623 31.4787C30.1547 29.0117 28.8836 27.7923 26.589 27.4275C25.6656 27.2807 24.7269 27.2299 23.7965 27.1243C22.0268 26.9228 20.2963 26.5134 20.2672 24.3038C20.2397 22.2409 21.2229 20.6469 23.3577 20.1667C24.5287 19.9024 25.7689 19.948 26.1478 19.9185L26.1478 19.9188Z" fill="white"/>
<path fill-rule="evenodd" clip-rule="evenodd" d="M18.6265 49.9509C17.7782 49.9509 17.3035 49.9071 16.8397 49.9587C14.8154 50.1858 14.6034 49.4829 15.5175 47.791C17.8531 43.4675 19.0434 38.9988 17.6194 34.0021C17.1147 32.2306 17.0729 29.7345 19.6716 29.2573C23.18 28.6121 25.8931 30.4395 26.0079 33.2273C26.1034 35.5399 27.0181 37.1125 29.1665 38.078C31.1717 38.9798 31.1807 40.1684 29.2464 41.2101C26.076 42.919 23.6431 45.2254 22.4302 48.7295C21.6595 50.9575 19.6119 49.4212 18.6264 49.9513L18.6265 49.9509Z" fill="white"/>
<defs>
<linearGradient id="paint0_linear_191_306" x1="30" y1="0" x2="30" y2="60" gradientUnits="userSpaceOnUse">
<stop stop-color="#49B2FF"/>
<stop offset="0.760417" stop-color="#03479F"/>
</linearGradient>
<linearGradient id="paint1_linear_191_306" x1="30" y1="0" x2="30" y2="60" gradientUnits="userSpaceOnUse">
<stop stop-color="white" stop-opacity="0.36"/>
<stop offset="1" stop-color="white" stop-opacity="0.81"/>
</linearGradient>
</defs>
</svg>
