<svg width="60" height="60" viewBox="0 0 60 60" fill="none" xmlns="http://www.w3.org/2000/svg">
<rect width="60" height="60" rx="5" fill="url(#paint0_linear_191_445)" fill-opacity="0.61"/>
<rect x="0.5" y="0.5" width="59" height="59" rx="4.5" stroke="url(#paint1_linear_191_445)" stroke-opacity="0.4"/>
<path d="M17.4527 28.134C19.2287 28.134 20.5367 28.488 21.3767 29.196C22.2287 29.904 22.6547 30.852 22.6547 32.04C22.6547 32.808 22.4627 33.51 22.0787 34.146C21.6947 34.77 21.1067 35.274 20.3147 35.658C19.5347 36.03 18.5687 36.216 17.4167 36.216C16.5287 36.216 15.6527 36.102 14.7887 35.874C13.9367 35.634 13.2107 35.298 12.6107 34.866L13.7627 32.634C14.2427 32.994 14.7947 33.276 15.4187 33.48C16.0427 33.672 16.6847 33.768 17.3447 33.768C18.0767 33.768 18.6527 33.624 19.0727 33.336C19.4927 33.048 19.7027 32.646 19.7027 32.13C19.7027 31.59 19.4807 31.182 19.0367 30.906C18.6047 30.63 17.8487 30.492 16.7687 30.492H13.5467L14.1947 23.4H21.8807V25.74H16.6247L16.4267 28.134H17.4527ZM29.2377 36.216C28.1937 36.216 27.2637 35.958 26.4477 35.442C25.6317 34.926 24.9897 34.182 24.5217 33.21C24.0657 32.226 23.8377 31.056 23.8377 29.7C23.8377 28.344 24.0657 27.18 24.5217 26.208C24.9897 25.224 25.6317 24.474 26.4477 23.958C27.2637 23.442 28.1937 23.184 29.2377 23.184C30.2817 23.184 31.2117 23.442 32.0277 23.958C32.8437 24.474 33.4797 25.224 33.9357 26.208C34.4037 27.18 34.6377 28.344 34.6377 29.7C34.6377 31.056 34.4037 32.226 33.9357 33.21C33.4797 34.182 32.8437 34.926 32.0277 35.442C31.2117 35.958 30.2817 36.216 29.2377 36.216ZM29.2377 33.75C30.0057 33.75 30.6057 33.42 31.0377 32.76C31.4817 32.1 31.7037 31.08 31.7037 29.7C31.7037 28.32 31.4817 27.3 31.0377 26.64C30.6057 25.98 30.0057 25.65 29.2377 25.65C28.4817 25.65 27.8817 25.98 27.4377 26.64C27.0057 27.3 26.7897 28.32 26.7897 29.7C26.7897 31.08 27.0057 32.1 27.4377 32.76C27.8817 33.42 28.4817 33.75 29.2377 33.75ZM41.4545 36.216C40.4105 36.216 39.4805 35.958 38.6645 35.442C37.8485 34.926 37.2065 34.182 36.7385 33.21C36.2825 32.226 36.0545 31.056 36.0545 29.7C36.0545 28.344 36.2825 27.18 36.7385 26.208C37.2065 25.224 37.8485 24.474 38.6645 23.958C39.4805 23.442 40.4105 23.184 41.4545 23.184C42.4985 23.184 43.4285 23.442 44.2445 23.958C45.0605 24.474 45.6965 25.224 46.1525 26.208C46.6205 27.18 46.8545 28.344 46.8545 29.7C46.8545 31.056 46.6205 32.226 46.1525 33.21C45.6965 34.182 45.0605 34.926 44.2445 35.442C43.4285 35.958 42.4985 36.216 41.4545 36.216ZM41.4545 33.75C42.2225 33.75 42.8225 33.42 43.2545 32.76C43.6985 32.1 43.9205 31.08 43.9205 29.7C43.9205 28.32 43.6985 27.3 43.2545 26.64C42.8225 25.98 42.2225 25.65 41.4545 25.65C40.6985 25.65 40.0985 25.98 39.6545 26.64C39.2225 27.3 39.0065 28.32 39.0065 29.7C39.0065 31.08 39.2225 32.1 39.6545 32.76C40.0985 33.42 40.6985 33.75 41.4545 33.75Z" fill="white"/>
<defs>
<linearGradient id="paint0_linear_191_445" x1="30" y1="0" x2="30" y2="60" gradientUnits="userSpaceOnUse">
<stop stop-color="#16B8E5"/>
<stop offset="1" stop-color="#49B2FF"/>
</linearGradient>
<linearGradient id="paint1_linear_191_445" x1="30" y1="0" x2="30" y2="60" gradientUnits="userSpaceOnUse">
<stop stop-color="white" stop-opacity="0.36"/>
<stop offset="1" stop-color="white" stop-opacity="0.81"/>
</linearGradient>
</defs>
</svg>
