<svg width="24" height="19" viewBox="0 0 24 19" fill="none" xmlns="http://www.w3.org/2000/svg">
<path d="M13.6031 9.48836L23.2852 0.381281C23.4475 0.229933 23.311 0 23.0602 0H20.1168C19.9435 0 19.7775 0.0611212 19.6632 0.165901L11.6778 7.678L3.69239 0.165901C3.58173 0.0611212 3.41576 0 3.23871 0H0.295368C0.0445565 0 -0.0919146 0.229933 0.0703751 0.381281L9.75243 9.48836L0.0703751 18.5954C0.0340207 18.6292 0.010698 18.6704 0.00317498 18.7143C-0.00434801 18.7582 0.00424473 18.8029 0.0279339 18.843C0.0516231 18.8832 0.0894137 18.9171 0.136818 18.9408C0.184223 18.9645 0.23925 18.977 0.295368 18.9767H3.23871C3.41207 18.9767 3.57805 18.9156 3.69239 18.8108L11.6778 11.2987L19.6632 18.8108C19.7738 18.9156 19.9398 18.9767 20.1168 18.9767H23.0602C23.311 18.9767 23.4475 18.7468 23.2852 18.5954L13.6031 9.48836Z" fill="#28A5F6"/>
</svg>
