<svg width="60" height="60" viewBox="0 0 60 60" fill="none" xmlns="http://www.w3.org/2000/svg">
<rect width="60" height="60" rx="5" fill="url(#paint0_linear_191_399)"/>
<rect x="0.5" y="0.5" width="59" height="59" rx="4.5" stroke="url(#paint1_linear_191_399)" stroke-opacity="0.4"/>
<g clip-path="url(#clip0_191_399)">
<path d="M22.0909 36H11.9091C11.4029 36.0006 10.9176 36.202 10.5597 36.5597C10.202 36.9176 10.0006 37.4029 10 37.9091V48.0909C10.0006 48.5971 10.202 49.0824 10.5597 49.4403C10.9176 49.798 11.4029 49.9994 11.9091 50H22.0909C22.5971 49.9994 23.0824 49.798 23.4403 49.4403C23.798 49.0824 23.9994 48.5971 24 48.0909V37.9091C23.9994 37.4029 23.798 36.9176 23.4403 36.5597C23.0824 36.202 22.5971 36.0006 22.0909 36ZM22.7273 48.0909C22.727 48.4423 22.4423 48.7269 22.0909 48.7272H11.9091C11.5577 48.7269 11.273 48.4423 11.2727 48.0909V37.9091C11.273 37.5577 11.5577 37.273 11.9091 37.2727H22.0909C22.4423 37.273 22.727 37.5577 22.7273 37.9091V48.0909Z" fill="white"/>
<path d="M48.0909 10H37.9091C37.4029 10.0006 36.9176 10.202 36.5597 10.5597C36.202 10.9176 36.0006 11.4029 36 11.9091V22.0909C36.0006 22.5971 36.202 23.0824 36.5597 23.4403C36.9176 23.798 37.4029 23.9994 37.9091 24H48.0909C48.5971 23.9994 49.0824 23.798 49.4403 23.4403C49.798 23.0824 49.9994 22.5971 50 22.0909V11.9091C49.9994 11.4029 49.798 10.9176 49.4403 10.5597C49.0824 10.202 48.5971 10.0006 48.0909 10V10ZM48.7273 22.0909C48.727 22.4423 48.4423 22.7269 48.0909 22.7272H37.9091C37.5577 22.7269 37.273 22.4423 37.2727 22.0909V11.9091C37.273 11.5577 37.5577 11.273 37.9091 11.2727H48.0909C48.4423 11.273 48.727 11.5577 48.7273 11.9091V22.0909Z" fill="white"/>
<path d="M42.3333 13H40.3333C39.9797 13.0003 39.6411 13.1411 39.3911 13.3911C39.1411 13.6411 39.0003 13.9798 39 14.3333V16.3333C39 16.7015 39.2985 17 39.6667 17C40.0348 17 40.3333 16.7015 40.3333 16.3333V14.3333H42.3333C42.7015 14.3333 43 14.0348 43 13.6667C43 13.2985 42.7015 13 42.3333 13L42.3333 13Z" fill="white"/>
<path d="M16.3333 39H14.3333C13.9797 39.0003 13.6411 39.1411 13.3911 39.3911C13.1411 39.6411 13.0003 39.9798 13 40.3333V42.3333C13 42.7015 13.2985 43 13.6667 43C14.0348 43 14.3333 42.7015 14.3333 42.3333V40.3333H16.3333C16.7015 40.3333 17 40.0348 17 39.6667C17 39.2985 16.7015 39 16.3333 39L16.3333 39Z" fill="white"/>
<path d="M35.0909 21.7273V16H17.9091C17.4029 16.0006 16.9176 16.202 16.5597 16.5597C16.202 16.9176 16.0006 17.4029 16 17.9091V35.0909H21.7273C22.5708 35.0918 23.3796 35.4273 23.9761 36.0239C24.5727 36.6204 24.9082 37.4292 24.9091 38.2727V44H42.0909C42.5971 43.9994 43.0824 43.798 43.4403 43.4403C43.798 43.0824 43.9994 42.5971 44 42.0909V24.9091H38.2727C37.4292 24.9082 36.6204 24.5727 36.0239 23.9761C35.4273 23.3796 35.0918 22.5708 35.0909 21.7273ZM26.1818 21.0909H21.7273C21.3759 21.0912 21.0912 21.3759 21.0909 21.7273V26.1818C21.0909 26.5332 20.806 26.8182 20.4546 26.8182C20.1031 26.8182 19.8182 26.5332 19.8182 26.1818V21.7273C19.8188 21.221 20.0202 20.7358 20.3779 20.3778C20.7358 20.0201 21.2211 19.8187 21.7273 19.8182H26.1819C26.5333 19.8182 26.8182 20.1031 26.8182 20.4545C26.8182 20.8059 26.5333 21.0909 26.1819 21.0909L26.1818 21.0909Z" fill="white"/>
</g>
<defs>
<linearGradient id="paint0_linear_191_399" x1="30" y1="0" x2="30" y2="60" gradientUnits="userSpaceOnUse">
<stop stop-color="#82C2F1"/>
<stop offset="0.0001" stop-color="#17C7FF"/>
<stop offset="1" stop-color="#4865FC"/>
</linearGradient>
<linearGradient id="paint1_linear_191_399" x1="30" y1="0" x2="30" y2="60" gradientUnits="userSpaceOnUse">
<stop stop-color="white"/>
<stop offset="1" stop-color="white" stop-opacity="0.81"/>
</linearGradient>
<clipPath id="clip0_191_399">
<rect width="40" height="40" fill="white" transform="translate(10 10)"/>
</clipPath>
</defs>
</svg>
