<svg width="60" height="60" viewBox="0 0 60 60" fill="none" xmlns="http://www.w3.org/2000/svg">
<rect width="60" height="60" rx="5" fill="url(#paint0_linear_191_424)" fill-opacity="0.61"/>
<rect x="0.5" y="0.5" width="59" height="59" rx="4.5" stroke="url(#paint1_linear_191_424)" stroke-opacity="0.4"/>
<path d="M50.0001 27.8909C50.0001 22.4301 43.5149 18 35.5128 18C27.5104 18 21.0254 22.4301 21.0254 27.8909C21.0254 33.3517 27.5106 37.7818 35.5128 37.7818C39.0596 37.7818 42.3051 36.9111 44.8272 35.4643L49.4942 37.7818L47.9449 32.9738C49.2446 31.4886 50 29.7539 50 27.8909H50.0001ZM27.856 30.0867C26.6461 30.0867 25.6602 29.1073 25.6602 27.8909C25.6602 26.681 26.6396 25.6951 27.856 25.6951C29.0723 25.6951 30.0518 26.6745 30.0518 27.8909C30.0521 29.1007 29.0662 30.0867 27.856 30.0867ZM35.5128 30.0867C34.3029 30.0867 33.317 29.1073 33.317 27.8909C33.317 26.681 34.2963 25.6951 35.5128 25.6951C36.7291 25.6951 37.7085 26.6745 37.7085 27.8909C37.7085 29.1007 36.7227 30.0867 35.5128 30.0867ZM43.1695 30.0867C41.9597 30.0867 40.9738 29.1073 40.9738 27.8909C40.9738 26.681 41.9531 25.6951 43.1695 25.6951C44.386 25.6951 45.3653 26.6745 45.3653 27.8909C45.3588 29.1007 44.3795 30.0867 43.1695 30.0867Z" fill="white"/>
<path d="M19.7441 27.8908C19.7441 26.988 19.8977 26.1047 20.1859 25.2659C14.3729 26.0791 10 29.5872 10 33.8002C10 35.4392 10.6593 36.9692 11.8117 38.2751L10.448 42.5069L14.5581 40.4647C16.7732 41.7389 19.6348 42.5069 22.7589 42.5069C26.9906 42.5069 30.7295 41.0922 33.0534 38.9282C25.5183 38.083 19.7438 33.4607 19.7438 27.8913L19.7441 27.8908Z" fill="white"/>
<defs>
<linearGradient id="paint0_linear_191_424" x1="30" y1="0" x2="30" y2="60" gradientUnits="userSpaceOnUse">
<stop stop-color="#49B2FF"/>
<stop offset="0.760417" stop-color="#03479F"/>
</linearGradient>
<linearGradient id="paint1_linear_191_424" x1="30" y1="0" x2="30" y2="60" gradientUnits="userSpaceOnUse">
<stop stop-color="white" stop-opacity="0.36"/>
<stop offset="1" stop-color="white" stop-opacity="0.81"/>
</linearGradient>
</defs>
</svg>
