<svg width="60" height="60" viewBox="0 0 60 60" fill="none" xmlns="http://www.w3.org/2000/svg">
<rect width="60" height="60" rx="5" fill="url(#paint0_linear_191_407)" fill-opacity="0.61"/>
<rect x="0.5" y="0.5" width="59" height="59" rx="4.5" stroke="url(#paint1_linear_191_407)" stroke-opacity="0.4"/>
<g clip-path="url(#clip0_191_407)">
<path d="M41.6286 30.0661C41.3065 29.864 41.0083 29.6491 40.2866 29.2216C39.3295 28.5786 38.3199 28.5442 37.5222 29.3413C37.1613 29.7027 36.9725 30.1665 36.939 30.6396C36.9347 30.6579 36.9257 30.6724 36.9238 30.6907C36.8718 30.6517 36.8175 30.6095 36.7698 30.5726C35.9752 30.0161 34.8747 30.0881 34.1641 30.8002C33.7019 31.2624 33.5174 31.8905 33.5924 32.4925C33.5354 32.4646 33.3912 32.5663 32.8001 32.1685C31.0497 30.7369 28.3783 28.5318 27.0605 27.4157C26.2628 26.7389 25.5641 26.1499 24.9359 25.6291C25.4087 24.1293 25.0559 22.4229 23.8692 21.2361C22.1719 19.5388 19.4106 19.5388 17.7133 21.2361C16.9047 22.0441 16.4856 23.0953 16.4482 24.1571C16.1797 24.3255 15.9252 24.5242 15.6917 24.7576C13.9953 26.455 13.9953 29.2163 15.6917 30.9138C17.1339 32.3557 19.344 32.5671 21.0169 31.5574C23.1826 33.5555 27.2323 37.297 29.6183 39.5255C29.7045 39.6126 29.7866 39.6948 29.8827 39.7931C31.3584 41.2852 31.6178 41.4321 31.6743 41.9167C31.704 42.1851 31.0623 43.3176 29.9946 43.1214C28.5543 42.8582 27.8004 42.6223 26.9302 42.1905C25.1721 41.3193 23.3061 41.6669 22.6715 42.2128C22.3857 42.4599 22.4071 42.4977 22.2961 42.7693C22.045 43.3871 22.3072 44.1274 23.5119 44.1972C24.5573 44.2567 26.2555 45.5491 27.7111 46.1264C30.0749 47.0642 30.8546 46.9997 32.9686 47.4787C34.5031 47.8234 34.9746 47.559 36.556 48.1632C37.872 48.6651 37.8485 48.5284 38.4431 48.6797C38.9034 48.7956 39.7727 48.9348 40.3465 48.9686C40.4817 48.9767 40.7176 49.0548 40.9532 49.1493C41.2502 49.2672 42.2487 49.8897 42.5842 49.9604C43.1763 50.0841 43.8131 49.9182 44.271 49.4619L49.9102 43.8233C50.6309 43.1019 50.6309 41.9319 49.9083 41.2093C49.8891 41.19 49.8634 41.1773 49.8448 41.1581L49.1336 40.3986C49.1336 40.3986 48.6208 39.9478 48.082 38.6861C46.8798 35.8622 47.2477 35.8906 45.6478 33.8275C43.9979 31.6918 42.1307 30.3848 41.6291 30.0658L41.6286 30.0661ZM22.3092 28.4705C22.1514 28.3443 22.0035 28.2275 21.8553 28.1118C21.8736 27.9568 21.886 27.8096 21.8736 27.7497C21.8692 27.5798 21.8531 27.4096 21.8215 27.2425C21.8522 27.2314 21.881 27.2146 21.912 27.2026C22.0441 27.3244 22.196 27.4658 22.3659 27.6208C22.3718 27.7373 22.3752 28.0061 22.3302 28.38C22.3247 28.4101 22.3144 28.4398 22.3092 28.4705H22.3092ZM19.5786 23.5227C18.7809 24.5026 20.9554 26.355 21.2716 26.6151C20.9622 26.6857 20.8161 26.6721 20.8161 26.6721C20.8161 26.6721 20.9491 26.8389 21.0908 27.4059C21.0998 27.4518 21.0952 27.4974 21.1007 27.5423C19.3804 26.3029 18.5496 26.1739 17.8174 27.0736C17.073 27.9879 18.9139 29.6604 19.4208 30.0941C18.6213 30.3226 17.7271 30.1331 17.1 29.5057C16.3107 28.7164 16.2065 27.5079 16.7711 26.598C16.8241 26.5137 17.0523 26.1426 17.5254 25.8323C17.6689 25.7433 17.8196 25.6726 17.9743 25.6181C18.2173 25.5266 18.7462 25.4749 18.7462 25.4749C18.7462 25.4749 18.492 25.0985 18.4715 24.742C18.4408 24.578 18.4318 24.4121 18.4368 24.2466C18.4145 23.6811 18.6334 23.3633 18.6631 23.2998C18.775 23.0623 18.9254 22.8397 19.1213 22.6438C20.0418 21.7225 21.5413 21.7221 22.4629 22.6435C22.8945 23.075 23.1146 23.6324 23.139 24.1963C21.234 22.7746 20.3501 22.5765 19.5786 23.5226L19.5786 23.5227ZM16.2208 30.3832C14.8142 28.977 14.8142 26.6885 16.2208 25.2826C16.3113 25.192 16.4065 25.1071 16.5044 25.028C16.7556 24.833 16.9974 24.7013 17.2013 24.5903C17.1862 24.3175 17.1921 24.018 17.233 23.7663C17.3446 23.0325 17.6782 22.3262 18.2424 21.7623C19.648 20.3558 21.9362 20.3561 23.3425 21.7623C24.2493 22.6695 24.5677 23.9414 24.3057 25.1089C24.1547 24.9868 24.0056 24.8668 23.8648 24.7546C23.9991 23.818 23.7092 22.8328 22.9912 22.1142C21.7785 20.9014 19.8064 20.9014 18.594 22.1142C18.1683 22.5392 17.8968 23.0579 17.7697 23.6047C17.7142 23.791 17.6878 24.2204 17.6894 24.3968C17.6937 24.5676 17.7095 24.7372 17.7414 24.9052C17.5843 24.9607 17.4289 25.0264 17.2795 25.1092C17.0808 25.2084 16.7516 25.4673 16.6316 25.5829C16.6124 25.6012 16.5913 25.6167 16.5724 25.6362C15.3605 26.8481 15.3605 28.8207 16.5727 30.0331C17.5117 30.9728 18.9074 31.1811 20.0507 30.6637C20.1663 30.7694 20.2984 30.8922 20.4457 31.0289C19.0856 31.74 17.3622 31.5261 16.2208 30.3831L16.2208 30.3832ZM30.6689 35.4157C28.9294 33.9921 26.5259 32.0058 25.2979 30.9655C24.4085 30.2112 23.634 29.5574 22.9557 28.9972C23.0196 28.7653 23.0652 28.5269 23.0897 28.2888C25.0809 30.1275 28.3301 33.1299 30.6245 35.2638C30.6416 35.3162 30.6639 35.3735 30.6688 35.4157L30.6689 35.4157Z" fill="white"/>
<path d="M25.7434 45.5047C24.9082 45.0403 24.0442 44.5598 23.4942 44.5288C22.6373 44.4788 22.2418 44.1273 22.061 43.8402C21.8446 43.4976 21.8182 43.0611 21.9884 42.6423L22.0306 42.5357C22.1199 42.3038 22.176 42.2005 22.455 41.9596C22.6736 41.7721 22.9851 41.6196 23.3509 41.5108L11.7242 41.5111V14.1973H27.2763V27.1606C27.5199 27.3673 27.8163 27.616 28.1474 27.8931L28.1477 11.7014C28.1477 10.7636 27.3851 10 26.4464 10H12.7014C11.7636 10 11 10.7636 11 11.7014V44.0801C11 45.0179 11.7636 45.7815 12.7014 45.7815H26.2456C26.0775 45.6904 25.9092 45.597 25.743 45.5046L25.7434 45.5047ZM18.2853 12.0339H20.7605C20.8458 12.0339 20.9146 12.1028 20.9146 12.1874C20.9146 12.2723 20.8461 12.3412 20.7605 12.3412H18.2853C18.201 12.3412 18.1319 12.2723 18.1319 12.1874C18.1319 12.1028 18.2004 12.0339 18.2853 12.0339ZM16.7551 11.8944C16.9191 11.8944 17.0524 12.0277 17.0524 12.1917C17.0524 12.3557 16.9191 12.4887 16.7551 12.4887C16.5911 12.4887 16.4572 12.3554 16.4572 12.1917C16.4572 12.0277 16.5911 11.8944 16.7551 11.8944ZM20.9136 43.4835C20.9136 44.2297 20.2852 44.8357 19.5142 44.8357C18.7423 44.8357 18.1138 44.2291 18.1138 43.4835V43.3892C18.1138 42.643 18.7422 42.036 19.5142 42.036C20.2861 42.036 20.9136 42.643 20.9136 43.3892V43.4835Z" fill="white"/>
</g>
<defs>
<linearGradient id="paint0_linear_191_407" x1="30" y1="0" x2="30" y2="60" gradientUnits="userSpaceOnUse">
<stop stop-color="#27B5DA"/>
<stop offset="1" stop-color="#04D2FF"/>
</linearGradient>
<linearGradient id="paint1_linear_191_407" x1="30" y1="0" x2="30" y2="60" gradientUnits="userSpaceOnUse">
<stop stop-color="white" stop-opacity="0.36"/>
<stop offset="1" stop-color="white" stop-opacity="0.81"/>
</linearGradient>
<clipPath id="clip0_191_407">
<rect width="40" height="40" fill="white" transform="translate(10 10)"/>
</clipPath>
</defs>
</svg>
