<svg width="60" height="60" viewBox="0 0 60 60" fill="none" xmlns="http://www.w3.org/2000/svg">
<rect width="60" height="60" rx="5" fill="url(#paint0_linear_226_85)"/>
<path d="M17.5668 32.543C18.1548 32.543 18.6728 32.459 19.1208 32.291C19.5828 32.109 20.0098 31.829 20.4018 31.451L22.1448 33.341C21.0808 34.559 19.5268 35.168 17.4828 35.168C16.2088 35.168 15.0818 34.923 14.1018 34.433C13.1218 33.929 12.3658 33.236 11.8338 32.354C11.3018 31.472 11.0358 30.471 11.0358 29.351C11.0358 28.245 11.2948 27.251 11.8128 26.369C12.3448 25.473 13.0658 24.78 13.9758 24.29C14.8998 23.786 15.9358 23.534 17.0838 23.534C18.1618 23.534 19.1418 23.765 20.0238 24.227C20.9058 24.675 21.6058 25.333 22.1238 26.201C22.6558 27.055 22.9218 28.07 22.9218 29.246L14.5638 30.863C14.8018 31.423 15.1728 31.843 15.6768 32.123C16.1948 32.403 16.8248 32.543 17.5668 32.543ZM17.0838 26.012C16.2578 26.012 15.5858 26.278 15.0678 26.81C14.5498 27.342 14.2768 28.077 14.2488 29.015L19.7508 27.944C19.5968 27.356 19.2818 26.887 18.8058 26.537C18.3298 26.187 17.7558 26.012 17.0838 26.012ZM30.5838 35.168C29.3798 35.168 28.2948 34.923 27.3288 34.433C26.3768 33.929 25.6278 33.236 25.0818 32.354C24.5498 31.472 24.2838 30.471 24.2838 29.351C24.2838 28.231 24.5498 27.23 25.0818 26.348C25.6278 25.466 26.3768 24.78 27.3288 24.29C28.2948 23.786 29.3798 23.534 30.5838 23.534C31.7738 23.534 32.8098 23.786 33.6918 24.29C34.5878 24.78 35.2388 25.487 35.6448 26.411L33.1038 27.776C32.5158 26.74 31.6688 26.222 30.5628 26.222C29.7088 26.222 29.0018 26.502 28.4418 27.062C27.8818 27.622 27.6018 28.385 27.6018 29.351C27.6018 30.317 27.8818 31.08 28.4418 31.64C29.0018 32.2 29.7088 32.48 30.5628 32.48C31.6828 32.48 32.5298 31.962 33.1038 30.926L35.6448 32.312C35.2388 33.208 34.5878 33.908 33.6918 34.412C32.8098 34.916 31.7738 35.168 30.5838 35.168ZM42.7635 35.168C41.5735 35.168 40.5025 34.923 39.5505 34.433C38.6125 33.929 37.8775 33.236 37.3455 32.354C36.8135 31.472 36.5475 30.471 36.5475 29.351C36.5475 28.231 36.8135 27.23 37.3455 26.348C37.8775 25.466 38.6125 24.78 39.5505 24.29C40.5025 23.786 41.5735 23.534 42.7635 23.534C43.9535 23.534 45.0175 23.786 45.9555 24.29C46.8935 24.78 47.6285 25.466 48.1605 26.348C48.6925 27.23 48.9585 28.231 48.9585 29.351C48.9585 30.471 48.6925 31.472 48.1605 32.354C47.6285 33.236 46.8935 33.929 45.9555 34.433C45.0175 34.923 43.9535 35.168 42.7635 35.168ZM42.7635 32.48C43.6035 32.48 44.2895 32.2 44.8215 31.64C45.3675 31.066 45.6405 30.303 45.6405 29.351C45.6405 28.399 45.3675 27.643 44.8215 27.083C44.2895 26.509 43.6035 26.222 42.7635 26.222C41.9235 26.222 41.2305 26.509 40.6845 27.083C40.1385 27.643 39.8655 28.399 39.8655 29.351C39.8655 30.303 40.1385 31.066 40.6845 31.64C41.2305 32.2 41.9235 32.48 42.7635 32.48Z" fill="white"/>
<defs>
<linearGradient id="paint0_linear_226_85" x1="30" y1="0" x2="30" y2="60" gradientUnits="userSpaceOnUse">
<stop stop-color="#28A5F6"/>
<stop offset="1" stop-color="#04D2FF"/>
</linearGradient>
</defs>
</svg>
