<svg width="60" height="60" viewBox="0 0 60 60" fill="none" xmlns="http://www.w3.org/2000/svg">
<rect width="60" height="60" rx="5" fill="url(#paint0_linear_191_249)" fill-opacity="0.61"/>
<rect x="0.5" y="0.5" width="59" height="59" rx="4.5" stroke="url(#paint1_linear_191_249)" stroke-opacity="0.4"/>
<path fill-rule="evenodd" clip-rule="evenodd" d="M30.0003 15.2534C43.5768 5.87356 52.4482 18.7879 49.399 28.5807L35.2396 28.5828C34.6881 28.5834 34.1606 28.8935 33.9152 29.4195L32.0954 33.3018L27.6792 18.0342C27.3391 16.8535 25.7104 16.6008 25.0389 17.6727L20.303 25.213L18.5833 20.5428C18.1714 19.4201 16.5985 19.2465 15.9626 20.2946L10.7102 28.9133C7.34946 19.0843 16.2696 5.76689 30.0008 15.2533L30.0003 15.2534ZM48.0804 31.4633C47.3136 32.6886 46.3056 33.8059 45.0369 34.7468C40.1536 38.3698 31.7406 44.1381 30.7741 46.2838L30 48L29.2265 46.2838C28.26 44.138 19.8472 38.3692 14.963 34.7468C13.8699 33.935 12.9706 32.9931 12.2517 31.9638L16.8865 24.358L18.5879 28.9791C19.0164 30.1435 20.626 30.2502 21.2282 29.195L25.778 21.9514L30.3643 37.821C30.5847 38.5864 32.0309 39.4528 33.121 37.9721L36.1712 31.4629H48.0811L48.0804 31.4633Z" fill="white"/>
<defs>
<linearGradient id="paint0_linear_191_249" x1="30" y1="0" x2="30" y2="60" gradientUnits="userSpaceOnUse">
<stop stop-color="#49B2FF"/>
<stop offset="1" stop-color="#072EF9"/>
</linearGradient>
<linearGradient id="paint1_linear_191_249" x1="30" y1="0" x2="30" y2="60" gradientUnits="userSpaceOnUse">
<stop stop-color="white" stop-opacity="0.36"/>
<stop offset="1" stop-color="white" stop-opacity="0.81"/>
</linearGradient>
</defs>
</svg>
