<svg width="140" height="140" viewBox="0 0 140 140" fill="none" xmlns="http://www.w3.org/2000/svg">
<g filter="url(#filter0_bdd_191_261)">
<rect x="40" y="39" width="60" height="60" rx="5" fill="url(#paint0_linear_191_261)" fill-opacity="0.61" shape-rendering="crispEdges"/>
<rect x="40.5" y="39.5" width="59" height="59" rx="4.5" stroke="url(#paint1_linear_191_261)" stroke-opacity="0.4" shape-rendering="crispEdges"/>
</g>
<g clip-path="url(#clip0_191_261)">
<path d="M52.8637 68.6154V69.4457H52.6766C52.5279 69.4457 52.4077 69.5656 52.4077 69.7146C52.4077 69.8632 52.5276 69.9834 52.6766 69.9834H53.5886C53.7372 69.9834 53.8574 69.8636 53.8574 69.7146C53.8574 69.5659 53.7376 69.4457 53.5886 69.4457H53.4014V68.6154C53.8286 68.5676 54.222 68.3948 54.5484 68.1404L55.134 68.7259L54.9997 68.8602C54.8943 68.9656 54.8943 69.1337 54.9997 69.2395C55.0526 69.2924 55.1196 69.3162 55.1869 69.3162C55.2542 69.3162 55.3211 69.2921 55.374 69.2395L56.0172 68.5964C56.1227 68.4909 56.1227 68.3228 56.0172 68.217C55.9117 68.1116 55.7437 68.1116 55.6379 68.217L55.5036 68.3513L54.9181 67.7657C55.1725 67.444 55.3453 67.0506 55.3931 66.6187H56.2234V66.8059C56.2234 66.9545 56.3433 67.0747 56.4923 67.0747C56.6409 67.0747 56.7611 66.9548 56.7611 66.8059V65.8939C56.7611 65.7452 56.6412 65.625 56.4923 65.625C56.3436 65.625 56.2234 65.7449 56.2234 65.8939V66.081H55.3931C55.3453 65.6538 55.1725 65.2604 54.9181 64.934L55.5036 64.3484L55.6379 64.4827C55.6908 64.5356 55.7577 64.5594 55.825 64.5594C55.8923 64.5594 55.9643 64.5352 56.0122 64.4827C56.1176 64.3772 56.1176 64.2092 56.0122 64.1034L55.369 63.4602C55.2636 63.3548 55.0955 63.3548 54.9897 63.4602C54.8842 63.5657 54.8842 63.7337 54.9897 63.8395L55.124 63.9738L54.5384 64.5593C54.2167 64.3049 53.8233 64.1321 53.3914 64.0843V63.254H53.5785C53.7272 63.254 53.8474 63.1341 53.8474 62.9851C53.8474 62.8365 53.7275 62.7163 53.5785 62.7163H52.6665C52.5179 62.7163 52.3977 62.8362 52.3977 62.9851C52.3977 63.1338 52.5175 63.254 52.6665 63.254H52.8537V64.0843C52.4265 64.1321 52.0331 64.3049 51.7067 64.5593L51.1211 63.9738L51.2554 63.8395C51.3608 63.7341 51.3608 63.566 51.2554 63.4602C51.1499 63.3548 50.9818 63.3548 50.876 63.4602L50.2329 64.1034C50.1274 64.2088 50.1274 64.3769 50.2329 64.4827C50.2858 64.5356 50.3527 64.5594 50.42 64.5594C50.4873 64.5594 50.5593 64.5352 50.6072 64.4827L50.7414 64.3484L51.327 64.934C51.0725 65.2557 50.8998 65.6491 50.8519 66.081L50.0367 66.0813V65.8942C50.0367 65.7455 49.9168 65.6253 49.7679 65.6253C49.6192 65.6253 49.499 65.7452 49.499 65.8942V66.8062C49.499 66.9549 49.6189 67.075 49.7679 67.075C49.9165 67.075 50.0367 66.9552 50.0367 66.8062V66.619H50.867C50.9149 67.0462 51.0876 67.4396 51.3421 67.7661L50.7565 68.3516L50.6223 68.2174C50.5168 68.1119 50.3487 68.1119 50.2429 68.2174C50.1375 68.3228 50.1375 68.4909 50.2429 68.5967L50.8861 69.2398C50.939 69.2927 51.0059 69.3165 51.0732 69.3165C51.1405 69.3165 51.2125 69.2924 51.2604 69.2398C51.3658 69.1344 51.3658 68.9663 51.2604 68.8605L51.1261 68.7263L51.7117 68.1407C52.0431 68.3948 52.4365 68.5625 52.8637 68.6154H52.8637Z" fill="white"/>
<path d="M81.1431 52.9592C81.2918 52.9592 81.412 52.8394 81.412 52.6904V52.5511H82.103C82.1509 52.9254 82.2999 53.2662 82.5158 53.5494L82.0263 54.0389L81.9256 53.9381C81.8201 53.8327 81.652 53.8327 81.5462 53.9381C81.4408 54.0436 81.4408 54.2117 81.5462 54.3174L82.1221 54.8933C82.175 54.9462 82.2419 54.97 82.3092 54.97C82.3765 54.97 82.4485 54.9459 82.4964 54.8933C82.6018 54.7878 82.6018 54.6198 82.4964 54.514L82.3956 54.4132L82.8851 53.9237C83.1683 54.1444 83.5091 54.2887 83.8834 54.3365V55.0275H83.7441C83.5955 55.0275 83.4753 55.1474 83.4753 55.2964C83.4753 55.445 83.5951 55.5652 83.7441 55.5652H84.56C84.7087 55.5652 84.8288 55.4454 84.8288 55.2964C84.8288 55.1477 84.709 55.0275 84.56 55.0275L84.4308 55.0279V54.3369C84.8051 54.289 85.1459 54.14 85.4291 53.9241L85.9186 54.4135L85.8178 54.5143C85.7123 54.6198 85.7123 54.7878 85.8178 54.8936C85.8707 54.9465 85.9376 54.9703 86.0049 54.9703C86.0722 54.9703 86.1392 54.9462 86.1921 54.8936L86.7679 54.3178C86.8734 54.2123 86.8734 54.0443 86.7679 53.9385C86.6625 53.833 86.4944 53.833 86.3886 53.9385L86.2878 54.0392L85.7984 53.5498C86.019 53.2665 86.1633 52.9257 86.2112 52.5515H86.9022V52.6907C86.9022 52.8394 87.022 52.9596 87.171 52.9596C87.3197 52.9596 87.4399 52.8397 87.4399 52.6907V51.8748C87.4399 51.7262 87.32 51.606 87.171 51.606C87.0224 51.606 86.9022 51.7258 86.9022 51.8748V52.0141H86.2112C86.1633 51.6398 86.0143 51.299 85.7984 51.0158L86.2878 50.5263L86.3886 50.6271C86.4415 50.68 86.5085 50.7038 86.5758 50.7038C86.6431 50.7038 86.715 50.6797 86.7629 50.6271C86.8684 50.5216 86.8684 50.3536 86.7629 50.2478L86.1871 49.6719C86.0816 49.5665 85.9135 49.5665 85.8077 49.6719C85.7023 49.7774 85.7023 49.9455 85.8077 50.0513L85.9085 50.152L85.4191 50.6415C85.1358 50.4209 84.795 50.2766 84.4207 50.2287V49.5377H84.56C84.7087 49.5377 84.8288 49.4178 84.8288 49.2688C84.8288 49.1202 84.709 49 84.56 49H83.7441C83.5955 49 83.4753 49.1199 83.4753 49.2688C83.4753 49.4175 83.5951 49.5377 83.7441 49.5377H83.8834V50.2287C83.5091 50.2766 83.1683 50.4256 82.8851 50.6415L82.3956 50.152L82.4964 50.0513C82.6018 49.9458 82.6018 49.7777 82.4964 49.6719C82.3909 49.5665 82.2229 49.5665 82.1171 49.6719L81.5412 50.2478C81.4357 50.3532 81.4357 50.5213 81.5412 50.6271C81.5941 50.68 81.6611 50.7038 81.7284 50.7038C81.7957 50.7038 81.8676 50.6797 81.9155 50.6271L82.0163 50.5263L82.5057 51.0158C82.2851 51.299 82.1408 51.6398 82.0929 52.0141H81.4019V51.8748C81.4019 51.7262 81.2821 51.606 81.1331 51.606C80.9844 51.606 80.8643 51.7258 80.8643 51.8748V52.6907C80.879 52.8394 80.9942 52.9592 81.1431 52.9592V52.9592Z" fill="white"/>
<path d="M92.7436 72.3443C92.595 72.3443 92.4748 72.4642 92.4748 72.6132V72.9972H91.0687C91.0111 72.3253 90.7469 71.7156 90.3345 71.2309L91.3328 70.2325L91.6063 70.5061C91.6592 70.559 91.7262 70.5827 91.7934 70.5827C91.8607 70.5827 91.9327 70.5586 91.9806 70.5061C92.0861 70.4006 92.0861 70.2325 91.9806 70.1267L91.0589 69.205C90.9534 69.0996 90.7854 69.0996 90.6796 69.205C90.5741 69.3105 90.5741 69.4786 90.6796 69.5844L90.9531 69.8579L89.9548 70.8562C89.47 70.4434 88.8557 70.1796 88.1884 70.122V68.7159H88.5725C88.7211 68.7159 88.8413 68.596 88.8413 68.4471C88.8413 68.2984 88.7214 68.1782 88.5725 68.1782H87.2671C87.1185 68.1782 86.9983 68.2981 86.9983 68.4471C86.9983 68.5957 87.1181 68.7159 87.2671 68.7159H87.6511V70.122C86.9792 70.1796 86.3696 70.4437 85.8848 70.8562L84.8865 69.8579L85.16 69.5844C85.2655 69.4789 85.2655 69.3108 85.16 69.205C85.0546 69.0996 84.8865 69.0996 84.7807 69.205L83.859 70.1267C83.7535 70.2322 83.7535 70.4003 83.859 70.5061C83.9119 70.559 83.9788 70.5827 84.0461 70.5827C84.1134 70.5827 84.1804 70.5586 84.2333 70.5061L84.5068 70.2325L85.5051 71.2309C85.0923 71.7156 84.8285 72.33 84.7709 72.9972H83.3648V72.6132C83.3648 72.4645 83.245 72.3443 83.096 72.3443C82.9473 72.3443 82.8271 72.4642 82.8271 72.6132V73.9185C82.8271 74.0672 82.947 74.1873 83.096 74.1873C83.2446 74.1873 83.3648 74.0675 83.3648 73.9185V73.5345H84.7709C84.8285 74.2064 85.0927 74.8161 85.5051 75.3008L84.5068 76.2992L84.2333 76.0256C84.1278 75.9202 83.9598 75.9202 83.854 76.0256C83.7485 76.1311 83.7485 76.2992 83.854 76.405L84.7757 77.3266C84.8286 77.3795 84.8955 77.4033 84.9628 77.4033C85.0301 77.4033 85.0971 77.3792 85.15 77.3266C85.2554 77.2212 85.2554 77.0531 85.15 76.9473L84.8764 76.6738L85.8748 75.6755C86.3595 76.0883 86.9739 76.3521 87.6411 76.4097V77.8158H87.2571C87.1084 77.8158 86.9883 77.9357 86.9883 78.0846C86.9883 78.2333 87.1081 78.3535 87.2571 78.3535H88.5624C88.7111 78.3535 88.8312 78.2336 88.8312 78.0846C88.8312 77.936 88.7114 77.8158 88.5624 77.8158H88.1784V76.4097C88.8503 76.3521 89.46 76.0879 89.9447 75.6755L90.9431 76.6738L90.6695 76.9473C90.5641 77.0528 90.5641 77.2209 90.6695 77.3266C90.7224 77.3795 90.7894 77.4033 90.8567 77.4033C90.924 77.4033 90.996 77.3792 91.0438 77.3266L91.9655 76.405C92.071 76.2995 92.071 76.1314 91.9655 76.0256C91.8601 75.9202 91.692 75.9202 91.5862 76.0256L91.3127 76.2992L90.3144 75.3008C90.7272 74.8161 90.991 74.2017 91.0486 73.5345H92.4547V73.9185C92.4547 74.0672 92.5745 74.1873 92.7235 74.1873C92.8722 74.1873 92.9924 74.0675 92.9924 73.9185V72.6132C93.0074 72.4645 92.8876 72.3443 92.7436 72.3443Z" fill="white"/>
<path d="M82.6498 82.3089C81.9012 82.1603 81.162 81.9778 80.4562 81.7906C80.7441 79.6885 82.9758 62.2563 79.5345 56.5062C77.6436 53.348 75.3205 52.2011 73.7031 51.7976C71.9417 51.356 70.6457 51.668 70.5928 51.6824L70.4968 51.7065L70.4007 51.6824C70.3478 51.668 69.0521 51.3607 67.2904 51.7976C65.6731 52.2007 63.3499 53.348 61.459 56.5062C58.0562 62.189 60.2015 79.2803 60.528 81.7084C59.7409 81.929 58.8962 82.1356 58.0465 82.3083C54.3126 83.0569 53.4675 88.2024 53.4293 88.423C53.4052 88.567 53.506 88.7063 53.65 88.7304C53.7939 88.7545 53.9332 88.6537 53.9573 88.5097C53.967 88.4619 54.7829 83.5133 58.1473 82.8367C61.4108 82.1838 64.5499 80.9745 65.102 80.7536C65.865 80.9648 70.9766 82.2752 75.5797 80.7583C76.1509 80.9839 79.2802 82.1885 82.5297 82.8414C85.899 83.5133 86.715 88.4615 86.7197 88.5144C86.7388 88.644 86.8539 88.7401 86.9835 88.7401C86.9979 88.7401 87.0123 88.7401 87.0267 88.7354C87.1706 88.7113 87.2714 88.577 87.2473 88.428C87.2292 88.2021 86.3846 83.0522 82.6502 82.3084L82.6498 82.3089ZM65.8469 80.3745C66.6725 78.9828 66.9219 77.4083 66.9748 76.2947C67.0036 75.762 66.9845 75.0804 66.9172 74.5427C67.9397 75.2049 69.1345 75.5602 70.3632 75.5602C71.5919 75.5602 72.7918 75.2002 73.8046 74.5427C73.6221 75.8768 73.7423 78.4642 74.894 80.3982C71.2849 81.4067 67.3732 80.7203 65.8467 80.3745L65.8469 80.3745ZM78.1193 68.3181C78.0138 68.3181 77.9081 68.3037 77.7882 68.2796C77.6539 68.2508 77.5244 68.3274 77.4809 68.457C76.6794 70.8233 75.537 72.5799 74.073 73.6838L74.0683 73.6885C73.0314 74.5522 71.7117 75.0276 70.3632 75.0276C69.0146 75.0276 67.6995 74.5526 66.6483 73.6837L66.6436 73.6791C65.1892 72.5799 64.0422 70.8233 63.2407 68.4569C63.2022 68.3464 63.1015 68.2745 62.9863 68.2745C62.9672 68.2745 62.9478 68.2745 62.9334 68.2791C62.8135 68.3032 62.7077 68.3176 62.6023 68.3176C61.3016 68.3176 60.6106 66.7672 60.3079 65.8458C60.2359 65.6252 60.2024 65.4043 60.2024 65.198C60.2168 65.0541 60.2359 64.9101 60.26 64.7611C60.3079 64.5837 60.3849 64.425 60.495 64.281C60.7927 63.8923 61.2919 63.6908 61.9012 63.7196C61.9587 63.7242 62.0163 63.7052 62.0595 63.6764L62.0786 63.6811L62.0833 63.657C62.093 63.6523 62.0977 63.6426 62.1074 63.6379C62.1603 63.5803 62.1891 63.5036 62.1794 63.4266C62.1747 63.3931 62.1747 63.3643 62.1697 63.3356C64.8621 63.2636 71.0104 62.7835 74.8501 60.0813C75.9876 62.5866 77.4658 63.8873 79.1695 63.8873C79.3279 63.8873 79.4913 63.8729 79.6543 63.8538C79.8846 63.9499 80.0815 64.0938 80.2302 64.2857C80.5375 64.6888 80.6095 65.2599 80.4173 65.8505C80.1157 66.7725 79.4196 68.3179 78.119 68.3179L78.1193 68.3181ZM80.6296 66.7727C80.5767 66.9069 80.5144 67.0365 80.4424 67.1567C80.5094 67.0318 80.567 66.9069 80.6296 66.7727Z" fill="white"/>
<path d="M72.9981 83.4892L70.4784 82.1695C70.4018 82.131 70.3104 82.131 70.229 82.1695L67.7094 83.4892C67.623 83.5371 67.5654 83.6235 67.5654 83.7242C67.5654 83.9114 67.5607 88.2792 70.3014 88.8215C70.3205 88.8262 70.3349 88.8262 70.3543 88.8262C70.3734 88.8262 70.3878 88.8262 70.4072 88.8215C73.1478 88.2792 73.1431 83.9114 73.1431 83.7242C73.1371 83.6238 73.0845 83.5324 72.9982 83.4892H72.9981ZM70.3532 88.2841C68.3518 87.8378 68.1308 84.6365 68.102 83.8829L70.3532 82.7071L72.6044 83.8829C72.5756 84.6365 72.35 87.8378 70.3532 88.2841Z" fill="white"/>
<path d="M69.9403 84.0889V84.9914H69.0381V85.8167H69.9403V86.7143H70.7659V85.8167H71.6635V84.9914H70.7659V84.0889H69.9403Z" fill="white"/>
<path d="M52.5855 87.6653C52.4368 87.6462 52.3073 87.7517 52.2879 87.9003C52.2256 88.4042 52.2256 88.7162 52.2256 88.7306C52.2256 88.8793 52.3454 88.9995 52.4944 88.9995C52.6431 88.9995 52.7633 88.8796 52.7633 88.7306C52.7633 88.7259 52.7633 88.433 52.8208 87.9626C52.8349 87.814 52.7294 87.6797 52.5855 87.6653H52.5855Z" fill="white"/>
<path d="M53.3624 84.9922C53.2281 84.9346 53.0697 84.9969 53.0118 85.1314C52.8294 85.5586 52.6757 86.0147 52.5512 86.4897C52.5127 86.6337 52.599 86.7777 52.743 86.8162C52.7671 86.8208 52.7862 86.8259 52.8103 86.8259C52.9301 86.8259 53.0359 86.7442 53.0694 86.6243C53.1846 86.178 53.3332 85.7462 53.5013 85.3427C53.5639 85.2081 53.5016 85.0498 53.3624 84.9922L53.3624 84.9922Z" fill="white"/>
<path d="M54.5862 82.7311C54.2551 83.0672 53.9527 83.4462 53.6839 83.859C53.6022 83.9839 53.6407 84.1469 53.7606 84.2286C53.8038 84.2574 53.8567 84.2718 53.9046 84.2718C53.9909 84.2718 54.0773 84.2286 54.1302 84.1519C54.3796 83.7679 54.6582 83.4177 54.9652 83.1057C55.0707 83.0002 55.066 82.8322 54.9605 82.7264C54.8597 82.6256 54.6917 82.6256 54.5862 82.7311L54.5862 82.7311Z" fill="white"/>
<path d="M57.0059 81.161C56.5499 81.3338 56.1134 81.5547 55.715 81.8138C55.5901 81.8955 55.5566 82.0586 55.6383 82.1835C55.6912 82.2601 55.7776 82.3033 55.864 82.3033C55.9119 82.3033 55.9648 82.2889 56.0079 82.2601C56.3776 82.0201 56.776 81.8185 57.1982 81.6555C57.3374 81.6026 57.4044 81.4493 57.3518 81.31C57.2986 81.1754 57.1402 81.1084 57.006 81.161L57.0059 81.161Z" fill="white"/>
<path d="M58.4459 81.3051C58.4603 81.3051 58.4793 81.3051 58.4937 81.3004C58.7432 81.2525 59.0026 81.2187 59.2664 81.1949C59.4057 81.1805 59.5159 81.0606 59.5065 80.9214C59.5018 80.835 59.4586 80.763 59.396 80.7151C59.3769 80.6576 59.3287 80.5089 59.2711 80.144C59.247 80 59.1128 79.8992 58.9638 79.9183C58.8198 79.9424 58.719 80.0767 58.7381 80.2257C58.7669 80.4128 58.7957 80.5762 58.8292 80.7104C58.6806 80.7295 58.5316 80.7536 58.3876 80.7777C58.2436 80.8065 58.1476 80.9458 58.1717 81.0898C58.2058 81.214 58.3163 81.305 58.4459 81.305L58.4459 81.3051Z" fill="white"/>
<path d="M59.8566 57.3507C59.8854 57.3604 59.9189 57.3651 59.9477 57.3651C60.0582 57.3651 60.159 57.2978 60.1971 57.1923C60.3796 56.6932 60.5858 56.2228 60.8068 55.8052C60.8741 55.6757 60.8259 55.5126 60.6963 55.4453C60.5667 55.3781 60.4037 55.4263 60.3364 55.5558C60.1061 55.9974 59.8901 56.4822 59.698 57.0051C59.6501 57.1441 59.7174 57.2978 59.8567 57.3506L59.8566 57.3507Z" fill="white"/>
<path d="M58.4407 72.7146H58.4551C58.6037 72.7099 58.7142 72.5851 58.7095 72.4364C58.6854 71.9131 58.6663 71.3949 58.6519 70.891C58.6472 70.7424 58.5271 70.6222 58.3784 70.6319C58.2298 70.6366 58.1146 70.7568 58.1193 70.9054C58.1337 71.4093 58.1528 71.9325 58.1769 72.4606C58.1769 72.5995 58.2967 72.7147 58.4407 72.7147L58.4407 72.7146Z" fill="white"/>
<path d="M61.2444 54.591C61.2923 54.6295 61.3499 54.6486 61.4125 54.6486C61.4891 54.6486 61.5708 54.6151 61.6237 54.5478C61.7245 54.4182 61.8299 54.2984 61.9357 54.1829C62.1661 53.9335 62.4108 53.6884 62.6653 53.4631C62.7757 53.3623 62.7851 53.1942 62.6843 53.0837C62.5836 52.9733 62.4155 52.9639 62.305 53.0647C62.0412 53.3047 61.7817 53.5541 61.542 53.8183C61.4268 53.9432 61.3117 54.0774 61.2012 54.2167C61.1098 54.3319 61.1292 54.4999 61.2444 54.591L61.2444 54.591Z" fill="white"/>
<path d="M66.4895 51.246C66.5136 51.246 66.5424 51.2413 66.5662 51.2362C67.051 51.0923 67.5455 50.9915 68.035 50.9339C68.1836 50.9148 68.2844 50.7853 68.27 50.6363C68.2509 50.4876 68.1213 50.3869 67.9724 50.4013C67.4491 50.4635 66.9261 50.5693 66.4126 50.723C66.2733 50.7662 66.1919 50.9148 66.2301 51.0541C66.2686 51.1693 66.3744 51.246 66.4896 51.246L66.4895 51.246Z" fill="white"/>
<path d="M63.7058 52.5751C63.7587 52.5751 63.8112 52.5607 63.8544 52.5273C64.2769 52.244 64.7135 51.9896 65.1648 51.7736C65.299 51.7114 65.3519 51.548 65.2897 51.4184C65.2274 51.2842 65.064 51.2313 64.9345 51.2935C64.4641 51.5192 63.9984 51.788 63.5571 52.0853C63.4373 52.167 63.4035 52.3348 63.4852 52.4549C63.533 52.537 63.6194 52.5751 63.7058 52.5751L63.7058 52.5751Z" fill="white"/>
<path d="M59.0882 60.3558C59.1073 60.3605 59.1217 60.3605 59.1411 60.3605C59.266 60.3605 59.3762 60.2741 59.405 60.1445C59.5057 59.6165 59.6209 59.1127 59.7458 58.652C59.7843 58.5081 59.6979 58.3641 59.5586 58.3256C59.4147 58.2871 59.2707 58.3735 59.2322 58.5127C59.1073 58.9878 58.9875 59.5014 58.8817 60.0437C58.8482 60.183 58.9443 60.327 59.0882 60.3558L59.0882 60.3558Z" fill="white"/>
<path d="M58.4498 77.1053C58.4883 77.6862 58.5265 78.2044 58.565 78.6557C58.5794 78.795 58.6946 78.9005 58.8288 78.9005H58.8529C59.0016 78.8861 59.1074 78.7565 59.0976 78.6126C59.0591 78.1663 59.021 77.6477 58.9825 77.0718C58.9731 76.9231 58.8482 76.8127 58.6996 76.8224C58.5506 76.8317 58.4401 76.9613 58.4498 77.1053L58.4498 77.1053Z" fill="white"/>
<path d="M58.3778 67.5313C58.2338 67.5313 58.1089 67.6465 58.1042 67.7904C58.0945 68.2273 58.0898 68.6783 58.0898 69.1245V69.3452C58.0898 69.4938 58.2097 69.609 58.3587 69.609C58.5073 69.609 58.6275 69.4891 58.6225 69.3401V69.1195C58.6225 68.6732 58.6272 68.227 58.6369 67.7947C58.6419 67.6561 58.5264 67.5312 58.3778 67.5312V67.5313Z" fill="white"/>
<path d="M58.6565 63.4222H58.6853C58.8196 63.4222 58.9348 63.3214 58.9491 63.1872C59.0114 62.6257 59.0787 62.1266 59.146 61.6562C59.1651 61.5122 59.0643 61.373 58.9204 61.3539C58.7717 61.3348 58.6371 61.4356 58.618 61.5795C58.5507 62.0546 58.4838 62.5588 58.4212 63.1249C58.4021 63.2732 58.5076 63.4078 58.6565 63.4222L58.6565 63.4222Z" fill="white"/>
<path d="M58.4168 66.5128H58.4312C58.5705 66.5128 58.6904 66.4023 58.7001 66.2583C58.7242 65.7401 58.7623 65.2215 58.8008 64.7223C58.8152 64.5736 58.7048 64.4441 58.5561 64.4344C58.4075 64.42 58.2779 64.5305 58.2682 64.6791C58.225 65.188 58.1915 65.7109 58.1627 66.2343C58.1527 66.3832 58.2678 66.5081 58.4168 66.5128L58.4168 66.5128Z" fill="white"/>
<path d="M58.8584 74.9374C58.8343 74.6157 58.8105 74.2989 58.7911 73.9776C58.7814 73.8289 58.6568 73.7184 58.5078 73.7281C58.3592 73.7378 58.2487 73.8624 58.2584 74.0114C58.2775 74.3331 58.3016 74.6545 58.3257 74.9763C58.3304 75.0385 58.3401 75.1922 58.3498 75.4035L58.3595 75.5571C58.3692 75.7011 58.4844 75.8116 58.6284 75.8116H58.6427C58.7914 75.8019 58.9019 75.6773 58.8922 75.5283L58.8821 75.374C58.8728 75.1581 58.863 75.0044 58.8584 74.9374L58.8584 74.9374Z" fill="white"/>
<path d="M88.1309 87.6654C87.9823 87.6845 87.8815 87.814 87.8959 87.963C87.9535 88.4287 87.9535 88.726 87.9535 88.731C87.9535 88.8797 88.0733 88.9999 88.2223 88.9999C88.371 88.9999 88.4912 88.88 88.4912 88.731C88.4912 88.7166 88.4912 88.4046 88.4289 87.9007C88.4091 87.7518 88.2796 87.646 88.1309 87.6654H88.1309Z" fill="white"/>
<path d="M84.714 82.2607C84.7572 82.2895 84.8101 82.3039 84.858 82.3039C84.9444 82.3039 85.0307 82.2607 85.0836 82.184C85.1653 82.0592 85.1268 81.8961 85.007 81.8144C84.6086 81.5553 84.172 81.3343 83.716 81.1616C83.5768 81.1087 83.4234 81.176 83.3705 81.3152C83.3177 81.4545 83.3849 81.6079 83.5242 81.6607C83.9461 81.8191 84.3445 82.0257 84.7141 82.2607H84.714Z" fill="white"/>
<path d="M87.9725 86.8205C88.1165 86.782 88.2028 86.6381 88.1643 86.4941C88.0395 86.019 87.8861 85.5631 87.7037 85.1358C87.6461 85.0016 87.4877 84.9343 87.3531 84.9965C87.2189 85.0541 87.1516 85.2125 87.2092 85.3471C87.3819 85.7502 87.5259 86.1821 87.6411 86.6287C87.6745 86.7485 87.7803 86.8302 87.9002 86.8302C87.9243 86.8252 87.9484 86.8252 87.9725 86.8205L87.9725 86.8205Z" fill="white"/>
<path d="M86.8066 84.2718C86.8545 84.2718 86.9074 84.2574 86.9506 84.2286C87.0755 84.1469 87.109 83.9838 87.0273 83.859C86.7584 83.4462 86.4561 83.0672 86.125 82.7311C86.0196 82.6256 85.8515 82.6256 85.7457 82.7264C85.6402 82.8318 85.6402 82.9999 85.741 83.1057C86.0484 83.4177 86.3266 83.7679 86.576 84.1519C86.6339 84.2286 86.7203 84.2718 86.8067 84.2718L86.8066 84.2718Z" fill="white"/>
<path d="M81.2101 80.9167C81.2054 81.056 81.3109 81.1805 81.4502 81.1903C81.714 81.2144 81.9734 81.2525 82.2229 81.2957C82.2373 81.3004 82.2563 81.3004 82.2707 81.3004C82.3956 81.3004 82.5108 81.2093 82.5346 81.0798C82.5633 80.9358 82.4673 80.7965 82.3186 80.7678C82.1747 80.739 82.026 80.7199 81.877 80.7005C81.9105 80.5662 81.9393 80.4078 81.9681 80.2157C81.9922 80.0717 81.8914 79.9324 81.7475 79.9083C81.5988 79.8842 81.4642 79.985 81.4401 80.134C81.3825 80.5036 81.3393 80.6523 81.3152 80.7052C81.2583 80.7584 81.2151 80.8354 81.2101 80.9168L81.2101 80.9167Z" fill="white"/>
<path d="M82.2849 66.513H82.2993C82.448 66.5033 82.5585 66.3787 82.5538 66.2348C82.525 65.7068 82.4915 65.1835 82.4483 64.6796C82.4339 64.5309 82.3044 64.4205 82.1604 64.4349C82.0117 64.4493 81.9059 64.5741 81.9157 64.7228C81.9588 65.222 81.9923 65.7402 82.0164 66.2588C82.0258 66.4025 82.1457 66.5129 82.2849 66.5129L82.2849 66.513Z" fill="white"/>
<path d="M81.7336 77.0721C81.6951 77.6479 81.657 78.1665 81.6184 78.6128C81.6041 78.7615 81.7145 78.891 81.8632 78.9008H81.8873C82.0266 78.9008 82.1417 78.7953 82.1511 78.656C82.1896 78.2047 82.2278 77.6818 82.2663 77.1056C82.276 76.9569 82.1655 76.832 82.0169 76.8223C81.8679 76.813 81.7433 76.9234 81.7336 77.0721L81.7336 77.0721Z" fill="white"/>
<path d="M82.0986 61.5796C82.0796 61.4356 81.9403 61.3302 81.7963 61.3539C81.6524 61.373 81.5516 61.5123 81.5707 61.6563C81.638 62.1266 81.7049 62.6258 81.7675 63.1872C81.7819 63.3215 81.8971 63.4223 82.0314 63.4223H82.0601C82.2088 63.4079 82.3146 63.2736 82.2952 63.1246C82.2329 62.5632 82.1656 62.0547 82.0986 61.5796H82.0986Z" fill="white"/>
<path d="M82.3578 75.556L82.3672 75.4218C82.3816 75.2011 82.3862 75.0424 82.3913 74.9802C82.4154 74.6584 82.4391 74.337 82.4586 74.0153C82.4683 73.8666 82.3578 73.7417 82.2091 73.732C82.0605 73.7223 81.9356 73.8328 81.9259 73.9815C81.9068 74.3032 81.8827 74.6199 81.8586 74.9413C81.8539 75.0086 81.8442 75.1669 81.8345 75.3926L81.8248 75.5319C81.8151 75.6805 81.9303 75.8054 82.0742 75.8151H82.0886C82.2329 75.8104 82.3528 75.6999 82.3578 75.556L82.3578 75.556Z" fill="white"/>
<path d="M82.6011 70.9044C82.6058 70.7558 82.4906 70.6356 82.342 70.6309C82.1933 70.6212 82.0732 70.7414 82.0685 70.89C82.0541 71.3892 82.035 71.9075 82.0109 72.4354C82.0062 72.5841 82.1163 72.709 82.2653 72.7137H82.2797C82.4237 72.7137 82.5389 72.6032 82.5486 72.4592C82.5677 71.9269 82.5867 71.4036 82.6011 70.9044L82.6011 70.9044Z" fill="white"/>
<path d="M78.4121 53.0646C78.3017 52.9638 78.1339 52.9735 78.0328 53.0836C77.932 53.1941 77.9417 53.3618 78.0519 53.463C78.3063 53.6886 78.5511 53.9333 78.7814 54.1828C78.8869 54.2979 78.9927 54.4228 79.0934 54.5477C79.1463 54.615 79.223 54.6485 79.3047 54.6485C79.3623 54.6485 79.4199 54.6294 79.4728 54.5909C79.5879 54.4998 79.607 54.3317 79.5159 54.2166C79.4055 54.0773 79.2903 53.943 79.1751 53.8229C78.9304 53.5543 78.6759 53.3046 78.4121 53.0645L78.4121 53.0646Z" fill="white"/>
<path d="M75.5564 51.7784C76.0027 51.9944 76.4442 52.2441 76.8668 52.5321C76.9146 52.5609 76.9629 52.5799 77.0154 52.5799C77.1018 52.5799 77.1835 52.5368 77.236 52.4648C77.3177 52.3449 77.2889 52.1768 77.1641 52.0952C76.7225 51.7975 76.2568 51.5287 75.7867 51.3034C75.6525 51.2411 75.4941 51.2937 75.4315 51.4282C75.3642 51.5531 75.4218 51.7162 75.5564 51.7784L75.5564 51.7784Z" fill="white"/>
<path d="M72.677 50.9338C73.1664 50.9914 73.6609 51.0922 74.1504 51.2361C74.1745 51.2458 74.2033 51.2458 74.227 51.2458C74.3422 51.2458 74.4477 51.1692 74.4815 51.054C74.5247 50.9147 74.443 50.7661 74.299 50.7229C73.7854 50.5692 73.2575 50.4638 72.7392 50.4012C72.5906 50.3821 72.461 50.4875 72.4416 50.6362C72.4225 50.7852 72.533 50.9147 72.677 50.9338L72.677 50.9338Z" fill="white"/>
<path d="M80.0198 55.4457C79.8903 55.513 79.8374 55.676 79.9093 55.8056C80.13 56.2231 80.3365 56.6888 80.519 57.1927C80.5575 57.3031 80.663 57.3654 80.7684 57.3654C80.7972 57.3654 80.8307 57.3607 80.8595 57.351C80.9988 57.2981 81.0707 57.1448 81.0178 57.0102C80.826 56.4869 80.6097 55.9975 80.3794 55.5609C80.3128 55.4266 80.1494 55.3784 80.0198 55.4457L80.0198 55.4457Z" fill="white"/>
<path d="M82.6263 69.1286C82.6263 68.6773 82.6216 68.2263 82.6119 67.7894C82.6072 67.6454 82.492 67.5303 82.3431 67.5303H82.3384C82.1897 67.535 82.0746 67.6551 82.0792 67.8038C82.0889 68.2357 82.0936 68.682 82.0936 69.1286V69.3445C82.0936 69.4932 82.2135 69.6134 82.3575 69.6134C82.5061 69.6134 82.6263 69.4935 82.6263 69.3495L82.6263 69.1286Z" fill="white"/>
<path d="M81.4879 58.5121C81.4494 58.3681 81.3055 58.2864 81.1615 58.3249C81.0175 58.3634 80.9358 58.5074 80.9743 58.6514C81.0992 59.1171 81.2144 59.6209 81.3152 60.1439C81.3393 60.2734 81.4494 60.3598 81.579 60.3598C81.5981 60.3598 81.6125 60.3598 81.6319 60.3551C81.7758 60.3263 81.8719 60.1871 81.8431 60.0431C81.7326 59.5007 81.6128 58.9872 81.4879 58.5121V58.5121Z" fill="white"/>
<path d="M69.5332 50.8907C69.7924 50.9051 70.0515 50.9386 70.3059 50.9771C70.3203 50.9771 70.3347 50.9817 70.3491 50.9817H70.3588H70.3685C70.3829 50.9817 70.3973 50.9817 70.4117 50.9771C70.6662 50.9339 70.9253 50.9051 71.1844 50.8907C71.3331 50.881 71.4436 50.7564 71.4338 50.6074C71.4241 50.4588 71.2996 50.3483 71.1506 50.358C70.8868 50.3771 70.6226 50.4059 70.3588 50.4491C70.095 50.4059 69.8308 50.3771 69.567 50.358C69.4184 50.3483 69.2935 50.4588 69.2838 50.6074C69.2741 50.7564 69.3846 50.8813 69.5332 50.8907H69.5332Z" fill="white"/>
</g>
<defs>
<filter id="filter0_bdd_191_261" x="-64" y="-65" width="268" height="268" filterUnits="userSpaceOnUse" color-interpolation-filters="sRGB">
<feFlood flood-opacity="0" result="BackgroundImageFix"/>
<feGaussianBlur in="BackgroundImageFix" stdDeviation="52"/>
<feComposite in2="SourceAlpha" operator="in" result="effect1_backgroundBlur_191_261"/>
<feColorMatrix in="SourceAlpha" type="matrix" values="0 0 0 0 0 0 0 0 0 0 0 0 0 0 0 0 0 0 127 0" result="hardAlpha"/>
<feOffset dy="1"/>
<feGaussianBlur stdDeviation="20"/>
<feComposite in2="hardAlpha" operator="out"/>
<feColorMatrix type="matrix" values="0 0 0 0 0.808333 0 0 0 0 0.927335 0 0 0 0 1 0 0 0 0.2 0"/>
<feBlend mode="normal" in2="effect1_backgroundBlur_191_261" result="effect2_dropShadow_191_261"/>
<feColorMatrix in="SourceAlpha" type="matrix" values="0 0 0 0 0 0 0 0 0 0 0 0 0 0 0 0 0 0 127 0" result="hardAlpha"/>
<feOffset dy="4"/>
<feGaussianBlur stdDeviation="9"/>
<feComposite in2="hardAlpha" operator="out"/>
<feColorMatrix type="matrix" values="0 0 0 0 0.578472 0 0 0 0 0.83334 0 0 0 0 0.991667 0 0 0 0.3 0"/>
<feBlend mode="normal" in2="effect2_dropShadow_191_261" result="effect3_dropShadow_191_261"/>
<feBlend mode="normal" in="SourceGraphic" in2="effect3_dropShadow_191_261" result="shape"/>
</filter>
<linearGradient id="paint0_linear_191_261" x1="70" y1="39" x2="70" y2="99" gradientUnits="userSpaceOnUse">
<stop stop-color="#006EFF"/>
<stop offset="1" stop-color="#00B2EA"/>
</linearGradient>
<linearGradient id="paint1_linear_191_261" x1="70" y1="39" x2="70" y2="99" gradientUnits="userSpaceOnUse">
<stop stop-color="white" stop-opacity="0.36"/>
<stop offset="1" stop-color="white" stop-opacity="0.81"/>
</linearGradient>
<clipPath id="clip0_191_261">
<rect width="40" height="40" fill="white" transform="translate(50 49)"/>
</clipPath>
</defs>
</svg>
