<svg width="60" height="60" viewBox="0 0 60 60" fill="none" xmlns="http://www.w3.org/2000/svg">
<rect width="60" height="60" rx="5" fill="url(#paint0_linear_191_261)" fill-opacity="0.61"/>
<rect x="0.5" y="0.5" width="59" height="59" rx="4.5" stroke="url(#paint1_linear_191_261)" stroke-opacity="0.4"/>
<g clip-path="url(#clip0_191_261)">
<path d="M12.8637 29.6154V30.4457H12.6766C12.5279 30.4457 12.4077 30.5656 12.4077 30.7146C12.4077 30.8632 12.5276 30.9834 12.6766 30.9834H13.5886C13.7372 30.9834 13.8574 30.8636 13.8574 30.7146C13.8574 30.5659 13.7376 30.4457 13.5886 30.4457H13.4014V29.6154C13.8286 29.5676 14.222 29.3948 14.5484 29.1404L15.134 29.7259L14.9997 29.8602C14.8943 29.9656 14.8943 30.1337 14.9997 30.2395C15.0526 30.2924 15.1196 30.3162 15.1869 30.3162C15.2542 30.3162 15.3211 30.2921 15.374 30.2395L16.0172 29.5964C16.1227 29.4909 16.1227 29.3228 16.0172 29.217C15.9117 29.1116 15.7437 29.1116 15.6379 29.217L15.5036 29.3513L14.9181 28.7657C15.1725 28.444 15.3453 28.0506 15.3931 27.6187H16.2234V27.8059C16.2234 27.9545 16.3433 28.0747 16.4923 28.0747C16.6409 28.0747 16.7611 27.9548 16.7611 27.8059V26.8939C16.7611 26.7452 16.6412 26.625 16.4923 26.625C16.3436 26.625 16.2234 26.7449 16.2234 26.8939V27.081H15.3931C15.3453 26.6538 15.1725 26.2604 14.9181 25.934L15.5036 25.3484L15.6379 25.4827C15.6908 25.5356 15.7577 25.5594 15.825 25.5594C15.8923 25.5594 15.9643 25.5352 16.0122 25.4827C16.1176 25.3772 16.1176 25.2092 16.0122 25.1034L15.369 24.4602C15.2636 24.3548 15.0955 24.3548 14.9897 24.4602C14.8842 24.5657 14.8842 24.7337 14.9897 24.8395L15.124 24.9738L14.5384 25.5593C14.2167 25.3049 13.8233 25.1321 13.3914 25.0843V24.254H13.5785C13.7272 24.254 13.8474 24.1341 13.8474 23.9851C13.8474 23.8365 13.7275 23.7163 13.5785 23.7163H12.6665C12.5179 23.7163 12.3977 23.8362 12.3977 23.9851C12.3977 24.1338 12.5175 24.254 12.6665 24.254H12.8537V25.0843C12.4265 25.1321 12.0331 25.3049 11.7067 25.5593L11.1211 24.9738L11.2554 24.8395C11.3608 24.7341 11.3608 24.566 11.2554 24.4602C11.1499 24.3548 10.9818 24.3548 10.876 24.4602L10.2329 25.1034C10.1274 25.2088 10.1274 25.3769 10.2329 25.4827C10.2858 25.5356 10.3527 25.5594 10.42 25.5594C10.4873 25.5594 10.5593 25.5352 10.6072 25.4827L10.7414 25.3484L11.327 25.934C11.0725 26.2557 10.8998 26.6491 10.8519 27.081L10.0367 27.0813V26.8942C10.0367 26.7455 9.91685 26.6253 9.76786 26.6253C9.61921 26.6253 9.49902 26.7452 9.49902 26.8942V27.8062C9.49902 27.9549 9.61888 28.075 9.76786 28.075C9.91651 28.075 10.0367 27.9552 10.0367 27.8062V27.619H10.867C10.9149 28.0462 11.0876 28.4396 11.3421 28.7661L10.7565 29.3516L10.6223 29.2174C10.5168 29.1119 10.3487 29.1119 10.2429 29.2174C10.1375 29.3228 10.1375 29.4909 10.2429 29.5967L10.8861 30.2398C10.939 30.2927 11.0059 30.3165 11.0732 30.3165C11.1405 30.3165 11.2125 30.2924 11.2604 30.2398C11.3658 30.1344 11.3658 29.9663 11.2604 29.8605L11.1261 29.7263L11.7117 29.1407C12.0431 29.3948 12.4365 29.5625 12.8637 29.6154H12.8637Z" fill="white"/>
<path d="M41.1431 13.9592C41.2918 13.9592 41.412 13.8394 41.412 13.6904V13.5511H42.103C42.1509 13.9254 42.2999 14.2662 42.5158 14.5494L42.0263 15.0389L41.9256 14.9381C41.8201 14.8327 41.652 14.8327 41.5462 14.9381C41.4408 15.0436 41.4408 15.2117 41.5462 15.3174L42.1221 15.8933C42.175 15.9462 42.2419 15.97 42.3092 15.97C42.3765 15.97 42.4485 15.9459 42.4964 15.8933C42.6018 15.7878 42.6018 15.6198 42.4964 15.514L42.3956 15.4132L42.8851 14.9237C43.1683 15.1444 43.5091 15.2887 43.8834 15.3365V16.0275H43.7441C43.5955 16.0275 43.4753 16.1474 43.4753 16.2964C43.4753 16.445 43.5951 16.5652 43.7441 16.5652H44.56C44.7087 16.5652 44.8288 16.4454 44.8288 16.2964C44.8288 16.1477 44.709 16.0275 44.56 16.0275L44.4308 16.0279V15.3369C44.8051 15.289 45.1459 15.14 45.4291 14.9241L45.9186 15.4135L45.8178 15.5143C45.7123 15.6198 45.7123 15.7878 45.8178 15.8936C45.8707 15.9465 45.9376 15.9703 46.0049 15.9703C46.0722 15.9703 46.1392 15.9462 46.1921 15.8936L46.7679 15.3178C46.8734 15.2123 46.8734 15.0443 46.7679 14.9385C46.6625 14.833 46.4944 14.833 46.3886 14.9385L46.2878 15.0392L45.7984 14.5498C46.019 14.2665 46.1633 13.9257 46.2112 13.5515H46.9022V13.6907C46.9022 13.8394 47.022 13.9596 47.171 13.9596C47.3197 13.9596 47.4399 13.8397 47.4399 13.6907V12.8748C47.4399 12.7262 47.32 12.606 47.171 12.606C47.0224 12.606 46.9022 12.7258 46.9022 12.8748V13.0141H46.2112C46.1633 12.6398 46.0143 12.299 45.7984 12.0158L46.2878 11.5263L46.3886 11.6271C46.4415 11.68 46.5085 11.7038 46.5758 11.7038C46.6431 11.7038 46.715 11.6797 46.7629 11.6271C46.8684 11.5216 46.8684 11.3536 46.7629 11.2478L46.1871 10.6719C46.0816 10.5665 45.9135 10.5665 45.8077 10.6719C45.7023 10.7774 45.7023 10.9455 45.8077 11.0513L45.9085 11.152L45.4191 11.6415C45.1358 11.4209 44.795 11.2766 44.4207 11.2287V10.5377H44.56C44.7087 10.5377 44.8288 10.4178 44.8288 10.2688C44.8288 10.1202 44.709 10 44.56 10H43.7441C43.5955 10 43.4753 10.1199 43.4753 10.2688C43.4753 10.4175 43.5951 10.5377 43.7441 10.5377H43.8834V11.2287C43.5091 11.2766 43.1683 11.4256 42.8851 11.6415L42.3956 11.152L42.4964 11.0513C42.6018 10.9458 42.6018 10.7777 42.4964 10.6719C42.3909 10.5665 42.2229 10.5665 42.1171 10.6719L41.5412 11.2478C41.4357 11.3532 41.4357 11.5213 41.5412 11.6271C41.5941 11.68 41.6611 11.7038 41.7284 11.7038C41.7957 11.7038 41.8676 11.6797 41.9155 11.6271L42.0163 11.5263L42.5057 12.0158C42.2851 12.299 42.1408 12.6398 42.0929 13.0141H41.4019V12.8748C41.4019 12.7262 41.2821 12.606 41.1331 12.606C40.9844 12.606 40.8643 12.7258 40.8643 12.8748V13.6907C40.879 13.8394 40.9942 13.9592 41.1431 13.9592V13.9592Z" fill="white"/>
<path d="M52.7436 33.3443C52.595 33.3443 52.4748 33.4642 52.4748 33.6132V33.9972H51.0687C51.0111 33.3253 50.7469 32.7156 50.3345 32.2309L51.3328 31.2325L51.6063 31.5061C51.6592 31.559 51.7262 31.5827 51.7934 31.5827C51.8607 31.5827 51.9327 31.5586 51.9806 31.5061C52.0861 31.4006 52.0861 31.2325 51.9806 31.1267L51.0589 30.205C50.9534 30.0996 50.7854 30.0996 50.6796 30.205C50.5741 30.3105 50.5741 30.4786 50.6796 30.5844L50.9531 30.8579L49.9548 31.8562C49.47 31.4434 48.8557 31.1796 48.1884 31.122V29.7159H48.5725C48.7211 29.7159 48.8413 29.596 48.8413 29.4471C48.8413 29.2984 48.7214 29.1782 48.5725 29.1782H47.2671C47.1185 29.1782 46.9983 29.2981 46.9983 29.4471C46.9983 29.5957 47.1181 29.7159 47.2671 29.7159H47.6511V31.122C46.9792 31.1796 46.3696 31.4437 45.8848 31.8562L44.8865 30.8579L45.16 30.5844C45.2655 30.4789 45.2655 30.3108 45.16 30.205C45.0546 30.0996 44.8865 30.0996 44.7807 30.205L43.859 31.1267C43.7535 31.2322 43.7535 31.4003 43.859 31.5061C43.9119 31.559 43.9788 31.5827 44.0461 31.5827C44.1134 31.5827 44.1804 31.5586 44.2333 31.5061L44.5068 31.2325L45.5051 32.2309C45.0923 32.7156 44.8285 33.33 44.7709 33.9972H43.3648V33.6132C43.3648 33.4645 43.245 33.3443 43.096 33.3443C42.9473 33.3443 42.8271 33.4642 42.8271 33.6132V34.9185C42.8271 35.0672 42.947 35.1873 43.096 35.1873C43.2446 35.1873 43.3648 35.0675 43.3648 34.9185V34.5345H44.7709C44.8285 35.2064 45.0927 35.8161 45.5051 36.3008L44.5068 37.2992L44.2333 37.0256C44.1278 36.9202 43.9598 36.9202 43.854 37.0256C43.7485 37.1311 43.7485 37.2992 43.854 37.405L44.7757 38.3266C44.8286 38.3795 44.8955 38.4033 44.9628 38.4033C45.0301 38.4033 45.0971 38.3792 45.15 38.3266C45.2554 38.2212 45.2554 38.0531 45.15 37.9473L44.8764 37.6738L45.8748 36.6755C46.3595 37.0883 46.9739 37.3521 47.6411 37.4097V38.8158H47.2571C47.1084 38.8158 46.9883 38.9357 46.9883 39.0846C46.9883 39.2333 47.1081 39.3535 47.2571 39.3535H48.5624C48.7111 39.3535 48.8312 39.2336 48.8312 39.0846C48.8312 38.936 48.7114 38.8158 48.5624 38.8158H48.1784V37.4097C48.8503 37.3521 49.46 37.0879 49.9447 36.6755L50.9431 37.6738L50.6695 37.9473C50.5641 38.0528 50.5641 38.2209 50.6695 38.3266C50.7224 38.3795 50.7894 38.4033 50.8567 38.4033C50.924 38.4033 50.996 38.3792 51.0438 38.3266L51.9655 37.405C52.071 37.2995 52.071 37.1314 51.9655 37.0256C51.8601 36.9202 51.692 36.9202 51.5862 37.0256L51.3127 37.2992L50.3144 36.3008C50.7272 35.8161 50.991 35.2017 51.0486 34.5345H52.4547V34.9185C52.4547 35.0672 52.5745 35.1873 52.7235 35.1873C52.8722 35.1873 52.9924 35.0675 52.9924 34.9185V33.6132C53.0074 33.4645 52.8876 33.3443 52.7436 33.3443Z" fill="white"/>
<path d="M42.6498 43.3089C41.9012 43.1603 41.162 42.9778 40.4562 42.7906C40.7441 40.6885 42.9758 23.2563 39.5345 17.5062C37.6436 14.348 35.3205 13.2011 33.7031 12.7976C31.9417 12.356 30.6457 12.668 30.5928 12.6824L30.4968 12.7065L30.4007 12.6824C30.3478 12.668 29.0521 12.3607 27.2904 12.7976C25.6731 13.2007 23.3499 14.348 21.459 17.5062C18.0562 23.189 20.2015 40.2803 20.528 42.7084C19.7409 42.929 18.8962 43.1356 18.0465 43.3083C14.3126 44.0569 13.4675 49.2024 13.4293 49.423C13.4052 49.567 13.506 49.7063 13.65 49.7304C13.7939 49.7545 13.9332 49.6537 13.9573 49.5097C13.967 49.4619 14.7829 44.5133 18.1473 43.8367C21.4108 43.1838 24.5499 41.9745 25.102 41.7536C25.865 41.9648 30.9766 43.2752 35.5797 41.7583C36.1509 41.9839 39.2802 43.1885 42.5297 43.8414C45.899 44.5133 46.715 49.4615 46.7197 49.5144C46.7388 49.644 46.8539 49.7401 46.9835 49.7401C46.9979 49.7401 47.0123 49.7401 47.0267 49.7354C47.1706 49.7113 47.2714 49.577 47.2473 49.428C47.2292 49.2021 46.3846 44.0522 42.6502 43.3084L42.6498 43.3089ZM25.8469 41.3745C26.6725 39.9828 26.9219 38.4083 26.9748 37.2947C27.0036 36.762 26.9845 36.0804 26.9172 35.5427C27.9397 36.2049 29.1345 36.5602 30.3632 36.5602C31.5919 36.5602 32.7918 36.2002 33.8046 35.5427C33.6221 36.8768 33.7423 39.4642 34.894 41.3982C31.2849 42.4067 27.3732 41.7203 25.8467 41.3745L25.8469 41.3745ZM38.1193 29.3181C38.0138 29.3181 37.9081 29.3037 37.7882 29.2796C37.6539 29.2508 37.5244 29.3274 37.4809 29.457C36.6794 31.8233 35.537 33.5799 34.073 34.6838L34.0683 34.6885C33.0314 35.5522 31.7117 36.0276 30.3632 36.0276C29.0146 36.0276 27.6995 35.5526 26.6483 34.6837L26.6436 34.6791C25.1892 33.5799 24.0422 31.8233 23.2407 29.4569C23.2022 29.3464 23.1015 29.2745 22.9863 29.2745C22.9672 29.2745 22.9478 29.2745 22.9334 29.2791C22.8135 29.3032 22.7077 29.3176 22.6023 29.3176C21.3016 29.3176 20.6106 27.7672 20.3079 26.8458C20.2359 26.6252 20.2024 26.4043 20.2024 26.198C20.2168 26.0541 20.2359 25.9101 20.26 25.7611C20.3079 25.5837 20.3849 25.425 20.495 25.281C20.7927 24.8923 21.2919 24.6908 21.9012 24.7196C21.9587 24.7242 22.0163 24.7052 22.0595 24.6764L22.0786 24.6811L22.0833 24.657C22.093 24.6523 22.0977 24.6426 22.1074 24.6379C22.1603 24.5803 22.1891 24.5036 22.1794 24.4266C22.1747 24.3931 22.1747 24.3643 22.1697 24.3356C24.8621 24.2636 31.0104 23.7835 34.8501 21.0813C35.9876 23.5866 37.4658 24.8873 39.1695 24.8873C39.3279 24.8873 39.4913 24.8729 39.6543 24.8538C39.8846 24.9499 40.0815 25.0938 40.2302 25.2857C40.5375 25.6888 40.6095 26.2599 40.4173 26.8505C40.1157 27.7725 39.4196 29.3179 38.119 29.3179L38.1193 29.3181ZM40.6296 27.7727C40.5767 27.9069 40.5144 28.0365 40.4424 28.1567C40.5094 28.0318 40.567 27.9069 40.6296 27.7727Z" fill="white"/>
<path d="M32.9981 44.4892L30.4784 43.1695C30.4018 43.131 30.3104 43.131 30.229 43.1695L27.7094 44.4892C27.623 44.5371 27.5654 44.6235 27.5654 44.7242C27.5654 44.9114 27.5607 49.2792 30.3014 49.8215C30.3205 49.8262 30.3349 49.8262 30.3543 49.8262C30.3734 49.8262 30.3878 49.8262 30.4072 49.8215C33.1478 49.2792 33.1431 44.9114 33.1431 44.7242C33.1371 44.6238 33.0845 44.5324 32.9982 44.4892H32.9981ZM30.3532 49.2841C28.3518 48.8378 28.1308 45.6365 28.102 44.8829L30.3532 43.7071L32.6044 44.8829C32.5756 45.6365 32.35 48.8378 30.3532 49.2841Z" fill="white"/>
<path d="M29.9403 45.0889V45.9914H29.0381V46.8167H29.9403V47.7143H30.7659V46.8167H31.6635V45.9914H30.7659V45.0889H29.9403Z" fill="white"/>
<path d="M12.5855 48.6653C12.4368 48.6462 12.3073 48.7517 12.2879 48.9003C12.2256 49.4042 12.2256 49.7162 12.2256 49.7306C12.2256 49.8793 12.3454 49.9995 12.4944 49.9995C12.6431 49.9995 12.7633 49.8796 12.7633 49.7306C12.7633 49.7259 12.7633 49.433 12.8208 48.9626C12.8349 48.814 12.7294 48.6797 12.5855 48.6653H12.5855Z" fill="white"/>
<path d="M13.3624 45.9922C13.2281 45.9346 13.0697 45.9969 13.0118 46.1314C12.8294 46.5586 12.6757 47.0147 12.5512 47.4897C12.5127 47.6337 12.599 47.7777 12.743 47.8162C12.7671 47.8208 12.7862 47.8259 12.8103 47.8259C12.9301 47.8259 13.0359 47.7442 13.0694 47.6243C13.1846 47.178 13.3332 46.7462 13.5013 46.3427C13.5639 46.2081 13.5016 46.0498 13.3624 45.9922L13.3624 45.9922Z" fill="white"/>
<path d="M14.5862 43.7311C14.2551 44.0672 13.9527 44.4462 13.6839 44.859C13.6022 44.9839 13.6407 45.1469 13.7606 45.2286C13.8038 45.2574 13.8567 45.2718 13.9046 45.2718C13.9909 45.2718 14.0773 45.2286 14.1302 45.1519C14.3796 44.7679 14.6582 44.4177 14.9652 44.1057C15.0707 44.0002 15.066 43.8322 14.9605 43.7264C14.8597 43.6256 14.6917 43.6256 14.5862 43.7311L14.5862 43.7311Z" fill="white"/>
<path d="M17.0059 42.161C16.5499 42.3338 16.1134 42.5547 15.715 42.8138C15.5901 42.8955 15.5566 43.0586 15.6383 43.1835C15.6912 43.2601 15.7776 43.3033 15.864 43.3033C15.9119 43.3033 15.9648 43.2889 16.0079 43.2601C16.3776 43.0201 16.776 42.8185 17.1982 42.6555C17.3374 42.6026 17.4044 42.4493 17.3518 42.31C17.2986 42.1754 17.1402 42.1084 17.006 42.161L17.0059 42.161Z" fill="white"/>
<path d="M18.4459 42.3051C18.4603 42.3051 18.4793 42.3051 18.4937 42.3004C18.7432 42.2525 19.0026 42.2187 19.2664 42.1949C19.4057 42.1805 19.5159 42.0606 19.5065 41.9214C19.5018 41.835 19.4586 41.763 19.396 41.7151C19.3769 41.6576 19.3287 41.5089 19.2711 41.144C19.247 41 19.1128 40.8992 18.9638 40.9183C18.8198 40.9424 18.719 41.0767 18.7381 41.2257C18.7669 41.4128 18.7957 41.5762 18.8292 41.7104C18.6806 41.7295 18.5316 41.7536 18.3876 41.7777C18.2436 41.8065 18.1476 41.9458 18.1717 42.0898C18.2058 42.214 18.3163 42.305 18.4459 42.305L18.4459 42.3051Z" fill="white"/>
<path d="M19.8566 18.3507C19.8854 18.3604 19.9189 18.3651 19.9477 18.3651C20.0582 18.3651 20.159 18.2978 20.1971 18.1923C20.3796 17.6932 20.5858 17.2228 20.8068 16.8052C20.8741 16.6757 20.8259 16.5126 20.6963 16.4453C20.5667 16.3781 20.4037 16.4263 20.3364 16.5558C20.1061 16.9974 19.8901 17.4822 19.698 18.0051C19.6501 18.1441 19.7174 18.2978 19.8567 18.3506L19.8566 18.3507Z" fill="white"/>
<path d="M18.4407 33.7146H18.4551C18.6037 33.7099 18.7142 33.5851 18.7095 33.4364C18.6854 32.9131 18.6663 32.3949 18.6519 31.891C18.6472 31.7424 18.5271 31.6222 18.3784 31.6319C18.2298 31.6366 18.1146 31.7568 18.1193 31.9054C18.1337 32.4093 18.1528 32.9325 18.1769 33.4606C18.1769 33.5995 18.2967 33.7147 18.4407 33.7147L18.4407 33.7146Z" fill="white"/>
<path d="M21.2444 15.591C21.2923 15.6295 21.3499 15.6486 21.4125 15.6486C21.4891 15.6486 21.5708 15.6151 21.6237 15.5478C21.7245 15.4182 21.8299 15.2984 21.9357 15.1829C22.1661 14.9335 22.4108 14.6884 22.6653 14.4631C22.7757 14.3623 22.7851 14.1942 22.6843 14.0837C22.5836 13.9733 22.4155 13.9639 22.305 14.0647C22.0412 14.3047 21.7817 14.5541 21.542 14.8183C21.4268 14.9432 21.3117 15.0774 21.2012 15.2167C21.1098 15.3319 21.1292 15.4999 21.2444 15.591L21.2444 15.591Z" fill="white"/>
<path d="M26.4895 12.246C26.5136 12.246 26.5424 12.2413 26.5662 12.2362C27.051 12.0923 27.5455 11.9915 28.035 11.9339C28.1836 11.9148 28.2844 11.7853 28.27 11.6363C28.2509 11.4876 28.1213 11.3869 27.9724 11.4013C27.4491 11.4635 26.9261 11.5693 26.4126 11.723C26.2733 11.7662 26.1919 11.9148 26.2301 12.0541C26.2686 12.1693 26.3744 12.246 26.4896 12.246L26.4895 12.246Z" fill="white"/>
<path d="M23.7058 13.5751C23.7587 13.5751 23.8112 13.5607 23.8544 13.5273C24.2769 13.244 24.7135 12.9896 25.1648 12.7736C25.299 12.7114 25.3519 12.548 25.2897 12.4184C25.2274 12.2842 25.064 12.2313 24.9345 12.2935C24.4641 12.5192 23.9984 12.788 23.5571 13.0853C23.4373 13.167 23.4035 13.3348 23.4852 13.4549C23.533 13.537 23.6194 13.5751 23.7058 13.5751L23.7058 13.5751Z" fill="white"/>
<path d="M19.0882 21.3558C19.1073 21.3605 19.1217 21.3605 19.1411 21.3605C19.266 21.3605 19.3762 21.2741 19.405 21.1445C19.5057 20.6165 19.6209 20.1127 19.7458 19.652C19.7843 19.5081 19.6979 19.3641 19.5586 19.3256C19.4147 19.2871 19.2707 19.3735 19.2322 19.5127C19.1073 19.9878 18.9875 20.5014 18.8817 21.0437C18.8482 21.183 18.9443 21.327 19.0882 21.3558L19.0882 21.3558Z" fill="white"/>
<path d="M18.4498 38.1053C18.4883 38.6862 18.5265 39.2044 18.565 39.6557C18.5794 39.795 18.6946 39.9005 18.8288 39.9005H18.8529C19.0016 39.8861 19.1074 39.7565 19.0976 39.6126C19.0591 39.1663 19.021 38.6477 18.9825 38.0718C18.9731 37.9231 18.8482 37.8127 18.6996 37.8224C18.5506 37.8317 18.4401 37.9613 18.4498 38.1053L18.4498 38.1053Z" fill="white"/>
<path d="M18.3778 28.5313C18.2338 28.5313 18.1089 28.6465 18.1042 28.7904C18.0945 29.2273 18.0898 29.6783 18.0898 30.1245V30.3452C18.0898 30.4938 18.2097 30.609 18.3587 30.609C18.5073 30.609 18.6275 30.4891 18.6225 30.3401V30.1195C18.6225 29.6732 18.6272 29.227 18.6369 28.7947C18.6419 28.6561 18.5264 28.5312 18.3778 28.5312V28.5313Z" fill="white"/>
<path d="M18.6565 24.4222H18.6853C18.8196 24.4222 18.9348 24.3214 18.9491 24.1872C19.0114 23.6257 19.0787 23.1266 19.146 22.6562C19.1651 22.5122 19.0643 22.373 18.9204 22.3539C18.7717 22.3348 18.6371 22.4356 18.618 22.5795C18.5507 23.0546 18.4838 23.5588 18.4212 24.1249C18.4021 24.2732 18.5076 24.4078 18.6565 24.4222L18.6565 24.4222Z" fill="white"/>
<path d="M18.4168 27.5128H18.4312C18.5705 27.5128 18.6904 27.4023 18.7001 27.2583C18.7242 26.7401 18.7623 26.2215 18.8008 25.7223C18.8152 25.5736 18.7048 25.4441 18.5561 25.4344C18.4075 25.42 18.2779 25.5305 18.2682 25.6791C18.225 26.188 18.1915 26.7109 18.1627 27.2343C18.1527 27.3832 18.2678 27.5081 18.4168 27.5128L18.4168 27.5128Z" fill="white"/>
<path d="M18.8584 35.9374C18.8343 35.6157 18.8105 35.2989 18.7911 34.9776C18.7814 34.8289 18.6568 34.7184 18.5078 34.7281C18.3592 34.7378 18.2487 34.8624 18.2584 35.0114C18.2775 35.3331 18.3016 35.6545 18.3257 35.9763C18.3304 36.0385 18.3401 36.1922 18.3498 36.4035L18.3595 36.5571C18.3692 36.7011 18.4844 36.8116 18.6284 36.8116H18.6427C18.7914 36.8019 18.9019 36.6773 18.8922 36.5283L18.8821 36.374C18.8728 36.1581 18.863 36.0044 18.8584 35.9374L18.8584 35.9374Z" fill="white"/>
<path d="M48.1309 48.6654C47.9823 48.6845 47.8815 48.814 47.8959 48.963C47.9535 49.4287 47.9535 49.726 47.9535 49.731C47.9535 49.8797 48.0733 49.9999 48.2223 49.9999C48.371 49.9999 48.4912 49.88 48.4912 49.731C48.4912 49.7166 48.4912 49.4046 48.4289 48.9007C48.4091 48.7518 48.2796 48.646 48.1309 48.6654H48.1309Z" fill="white"/>
<path d="M44.714 43.2607C44.7572 43.2895 44.8101 43.3039 44.858 43.3039C44.9444 43.3039 45.0307 43.2607 45.0836 43.184C45.1653 43.0592 45.1268 42.8961 45.007 42.8144C44.6086 42.5553 44.172 42.3343 43.716 42.1616C43.5768 42.1087 43.4234 42.176 43.3705 42.3152C43.3177 42.4545 43.3849 42.6079 43.5242 42.6607C43.9461 42.8191 44.3445 43.0257 44.7141 43.2607H44.714Z" fill="white"/>
<path d="M47.9725 47.8205C48.1165 47.782 48.2028 47.6381 48.1643 47.4941C48.0395 47.019 47.8861 46.5631 47.7037 46.1358C47.6461 46.0016 47.4877 45.9343 47.3531 45.9965C47.2189 46.0541 47.1516 46.2125 47.2092 46.3471C47.3819 46.7502 47.5259 47.1821 47.6411 47.6287C47.6745 47.7485 47.7803 47.8302 47.9002 47.8302C47.9243 47.8252 47.9484 47.8252 47.9725 47.8205L47.9725 47.8205Z" fill="white"/>
<path d="M46.8066 45.2718C46.8545 45.2718 46.9074 45.2574 46.9506 45.2286C47.0755 45.1469 47.109 44.9838 47.0273 44.859C46.7584 44.4462 46.4561 44.0672 46.125 43.7311C46.0196 43.6256 45.8515 43.6256 45.7457 43.7264C45.6402 43.8318 45.6402 43.9999 45.741 44.1057C46.0484 44.4177 46.3266 44.7679 46.576 45.1519C46.6339 45.2286 46.7203 45.2718 46.8067 45.2718L46.8066 45.2718Z" fill="white"/>
<path d="M41.2101 41.9167C41.2054 42.056 41.3109 42.1805 41.4502 42.1903C41.714 42.2144 41.9734 42.2525 42.2229 42.2957C42.2373 42.3004 42.2563 42.3004 42.2707 42.3004C42.3956 42.3004 42.5108 42.2093 42.5346 42.0798C42.5633 41.9358 42.4673 41.7965 42.3186 41.7678C42.1747 41.739 42.026 41.7199 41.877 41.7005C41.9105 41.5662 41.9393 41.4078 41.9681 41.2157C41.9922 41.0717 41.8914 40.9324 41.7475 40.9083C41.5988 40.8842 41.4642 40.985 41.4401 41.134C41.3825 41.5036 41.3393 41.6523 41.3152 41.7052C41.2583 41.7584 41.2151 41.8354 41.2101 41.9168L41.2101 41.9167Z" fill="white"/>
<path d="M42.2849 27.513H42.2993C42.448 27.5033 42.5585 27.3787 42.5538 27.2348C42.525 26.7068 42.4915 26.1835 42.4483 25.6796C42.4339 25.5309 42.3044 25.4205 42.1604 25.4349C42.0117 25.4493 41.9059 25.5741 41.9157 25.7228C41.9588 26.222 41.9923 26.7402 42.0164 27.2588C42.0258 27.4025 42.1457 27.5129 42.2849 27.5129L42.2849 27.513Z" fill="white"/>
<path d="M41.7336 38.0721C41.6951 38.6479 41.657 39.1665 41.6184 39.6128C41.6041 39.7615 41.7145 39.891 41.8632 39.9008H41.8873C42.0266 39.9008 42.1417 39.7953 42.1511 39.656C42.1896 39.2047 42.2278 38.6818 42.2663 38.1056C42.276 37.9569 42.1655 37.832 42.0169 37.8223C41.8679 37.813 41.7433 37.9234 41.7336 38.0721L41.7336 38.0721Z" fill="white"/>
<path d="M42.0986 22.5796C42.0796 22.4356 41.9403 22.3302 41.7963 22.3539C41.6524 22.373 41.5516 22.5123 41.5707 22.6563C41.638 23.1266 41.7049 23.6258 41.7675 24.1872C41.7819 24.3215 41.8971 24.4223 42.0314 24.4223H42.0601C42.2088 24.4079 42.3146 24.2736 42.2952 24.1246C42.2329 23.5632 42.1656 23.0547 42.0986 22.5796H42.0986Z" fill="white"/>
<path d="M42.3578 36.556L42.3672 36.4218C42.3816 36.2011 42.3862 36.0424 42.3913 35.9802C42.4154 35.6584 42.4391 35.337 42.4586 35.0153C42.4683 34.8666 42.3578 34.7417 42.2091 34.732C42.0605 34.7223 41.9356 34.8328 41.9259 34.9815C41.9068 35.3032 41.8827 35.6199 41.8586 35.9413C41.8539 36.0086 41.8442 36.1669 41.8345 36.3926L41.8248 36.5319C41.8151 36.6805 41.9303 36.8054 42.0742 36.8151H42.0886C42.2329 36.8104 42.3528 36.6999 42.3578 36.556L42.3578 36.556Z" fill="white"/>
<path d="M42.6011 31.9044C42.6058 31.7558 42.4906 31.6356 42.342 31.6309C42.1933 31.6212 42.0732 31.7414 42.0685 31.89C42.0541 32.3892 42.035 32.9075 42.0109 33.4354C42.0062 33.5841 42.1163 33.709 42.2653 33.7137H42.2797C42.4237 33.7137 42.5389 33.6032 42.5486 33.4592C42.5677 32.9269 42.5867 32.4036 42.6011 31.9044L42.6011 31.9044Z" fill="white"/>
<path d="M38.4121 14.0646C38.3017 13.9638 38.1339 13.9735 38.0328 14.0836C37.932 14.1941 37.9417 14.3618 38.0519 14.463C38.3063 14.6886 38.5511 14.9333 38.7814 15.1828C38.8869 15.2979 38.9927 15.4228 39.0934 15.5477C39.1463 15.615 39.223 15.6485 39.3047 15.6485C39.3623 15.6485 39.4199 15.6294 39.4728 15.5909C39.5879 15.4998 39.607 15.3317 39.5159 15.2166C39.4055 15.0773 39.2903 14.943 39.1751 14.8229C38.9304 14.5543 38.6759 14.3046 38.4121 14.0645L38.4121 14.0646Z" fill="white"/>
<path d="M35.5564 12.7784C36.0027 12.9944 36.4442 13.2441 36.8668 13.5321C36.9146 13.5609 36.9629 13.5799 37.0154 13.5799C37.1018 13.5799 37.1835 13.5368 37.236 13.4648C37.3177 13.3449 37.2889 13.1768 37.1641 13.0952C36.7225 12.7975 36.2568 12.5287 35.7867 12.3034C35.6525 12.2411 35.4941 12.2937 35.4315 12.4282C35.3642 12.5531 35.4218 12.7162 35.5564 12.7784L35.5564 12.7784Z" fill="white"/>
<path d="M32.677 11.9338C33.1664 11.9914 33.6609 12.0922 34.1504 12.2361C34.1745 12.2458 34.2033 12.2458 34.227 12.2458C34.3422 12.2458 34.4477 12.1692 34.4815 12.054C34.5247 11.9147 34.443 11.7661 34.299 11.7229C33.7854 11.5692 33.2575 11.4638 32.7392 11.4012C32.5906 11.3821 32.461 11.4875 32.4416 11.6362C32.4225 11.7852 32.533 11.9147 32.677 11.9338L32.677 11.9338Z" fill="white"/>
<path d="M40.0198 16.4457C39.8903 16.513 39.8374 16.676 39.9093 16.8056C40.13 17.2231 40.3365 17.6888 40.519 18.1927C40.5575 18.3031 40.663 18.3654 40.7684 18.3654C40.7972 18.3654 40.8307 18.3607 40.8595 18.351C40.9988 18.2981 41.0707 18.1448 41.0178 18.0102C40.826 17.4869 40.6097 16.9975 40.3794 16.5609C40.3128 16.4266 40.1494 16.3784 40.0198 16.4457L40.0198 16.4457Z" fill="white"/>
<path d="M42.6263 30.1286C42.6263 29.6773 42.6216 29.2263 42.6119 28.7894C42.6072 28.6454 42.492 28.5303 42.3431 28.5303H42.3384C42.1897 28.535 42.0746 28.6551 42.0792 28.8038C42.0889 29.2357 42.0936 29.682 42.0936 30.1286V30.3445C42.0936 30.4932 42.2135 30.6134 42.3575 30.6134C42.5061 30.6134 42.6263 30.4935 42.6263 30.3495L42.6263 30.1286Z" fill="white"/>
<path d="M41.4879 19.5121C41.4494 19.3681 41.3055 19.2864 41.1615 19.3249C41.0175 19.3634 40.9358 19.5074 40.9743 19.6514C41.0992 20.1171 41.2144 20.6209 41.3152 21.1439C41.3393 21.2734 41.4494 21.3598 41.579 21.3598C41.5981 21.3598 41.6125 21.3598 41.6319 21.3551C41.7758 21.3263 41.8719 21.1871 41.8431 21.0431C41.7326 20.5007 41.6128 19.9872 41.4879 19.5121V19.5121Z" fill="white"/>
<path d="M29.5332 11.8907C29.7924 11.9051 30.0515 11.9386 30.3059 11.9771C30.3203 11.9771 30.3347 11.9817 30.3491 11.9817H30.3588H30.3685C30.3829 11.9817 30.3973 11.9817 30.4117 11.9771C30.6662 11.9339 30.9253 11.9051 31.1844 11.8907C31.3331 11.881 31.4436 11.7564 31.4338 11.6074C31.4241 11.4588 31.2996 11.3483 31.1506 11.358C30.8868 11.3771 30.6226 11.4059 30.3588 11.4491C30.095 11.4059 29.8308 11.3771 29.567 11.358C29.4184 11.3483 29.2935 11.4588 29.2838 11.6074C29.2741 11.7564 29.3846 11.8813 29.5332 11.8907H29.5332Z" fill="white"/>
</g>
<defs>
<linearGradient id="paint0_linear_191_261" x1="30" y1="0" x2="30" y2="60" gradientUnits="userSpaceOnUse">
<stop stop-color="#006EFF"/>
<stop offset="1" stop-color="#00B2EA"/>
</linearGradient>
<linearGradient id="paint1_linear_191_261" x1="30" y1="0" x2="30" y2="60" gradientUnits="userSpaceOnUse">
<stop stop-color="white" stop-opacity="0.36"/>
<stop offset="1" stop-color="white" stop-opacity="0.81"/>
</linearGradient>
<clipPath id="clip0_191_261">
<rect width="40" height="40" fill="white" transform="translate(10 10)"/>
</clipPath>
</defs>
</svg>
