<svg width="60" height="60" viewBox="0 0 60 60" fill="none" xmlns="http://www.w3.org/2000/svg">
<rect width="60" height="60" rx="5" fill="url(#paint0_linear_191_427)" fill-opacity="0.61"/>
<rect x="0.5" y="0.5" width="59" height="59" rx="4.5" stroke="url(#paint1_linear_191_427)" stroke-opacity="0.4"/>
<g clip-path="url(#clip0_191_427)">
<path d="M20.9998 50C14.9247 50 10 45.0751 10 39.0003C10 32.9254 14.9249 28.0005 20.9998 28.0005C27.0751 28.0005 32.0004 32.9254 32.0004 39.0003C32.0004 45.0751 27.0755 50 20.9998 50ZM19.0086 43.0002C20.1132 43.0002 21.0085 42.1046 21.0085 41C21.0085 39.8954 20.1132 39.0001 19.0086 39.0001C17.904 39.0001 17.0084 39.8954 17.0084 41C17.0084 42.1046 17.904 43.0002 19.0086 43.0002Z" fill="white"/>
<path d="M33.0085 34.0005C33.0085 34.2657 32.903 34.5198 32.7158 34.7073C31.8469 35.5762 31.8469 35.5762 31.0765 36.3463C30.5408 36.882 29.6271 36.6503 29.4111 35.924C28.7244 33.6141 26.4074 31.2918 24.1226 30.5472C23.4131 30.3158 23.1978 29.4168 23.7255 28.8891C28.6976 23.9173 34.889 17.7188 42.3007 10.2933C42.4882 10.1055 42.743 10 43.0085 10H49.0085C49.5607 10 50.0083 10.4477 50.0083 10.9998V16.9998C50.0083 17.265 49.9032 17.5194 49.7157 17.7069L48.7156 18.7071C48.5281 18.8946 48.2736 19 48.0084 19H45.0084V22.0001C45.0084 22.2652 44.9029 22.5194 44.7154 22.7072L43.7157 23.707C43.5278 23.8945 43.2737 23.9999 43.0085 23.9999H39.0084V28.0001C39.0084 28.2653 38.9029 28.5194 38.7154 28.7072L37.7156 29.707C37.5278 29.8945 37.2737 30 37.0085 30H33.0084L33.0085 34.0005Z" fill="white"/>
</g>
<defs>
<linearGradient id="paint0_linear_191_427" x1="30" y1="0" x2="30" y2="60" gradientUnits="userSpaceOnUse">
<stop stop-color="#006EFF"/>
<stop offset="1" stop-color="#00B2EA"/>
</linearGradient>
<linearGradient id="paint1_linear_191_427" x1="30" y1="0" x2="30" y2="60" gradientUnits="userSpaceOnUse">
<stop stop-color="white" stop-opacity="0.36"/>
<stop offset="1" stop-color="white" stop-opacity="0.81"/>
</linearGradient>
<clipPath id="clip0_191_427">
<rect width="40" height="40" fill="white" transform="translate(10 10)"/>
</clipPath>
</defs>
</svg>
