<svg width="140" height="140" viewBox="0 0 140 140" fill="none" xmlns="http://www.w3.org/2000/svg">
<g filter="url(#filter0_bdd_191_255)">
<rect x="40" y="39" width="60" height="60" rx="5" fill="url(#paint0_linear_191_255)" fill-opacity="0.61" shape-rendering="crispEdges"/>
<rect x="40.5" y="39.5" width="59" height="59" rx="4.5" stroke="url(#paint1_linear_191_255)" stroke-opacity="0.4" shape-rendering="crispEdges"/>
</g>
<path d="M77.1203 50.5617C77.2612 50.014 77.0168 49.4401 76.5246 49.1618C76.0324 48.8836 75.4146 48.9704 75.0181 49.3736L55.3585 69.3739C55.0056 69.733 54.9026 70.269 55.0971 70.7333C55.2919 71.1979 55.7464 71.5 56.25 71.5H63.6937L56.7447 87.2453C56.5084 87.781 56.6752 88.4088 57.1468 88.7562C57.6178 89.1035 58.2671 89.0773 58.7087 88.6931L84.5713 66.1927C84.9647 65.8507 85.1042 65.3002 84.9214 64.8116C84.7387 64.3233 84.2721 63.9996 83.7506 63.9996H73.6612L77.1203 50.5617Z" fill="white"/>
<defs>
<filter id="filter0_bdd_191_255" x="-64" y="-65" width="268" height="268" filterUnits="userSpaceOnUse" color-interpolation-filters="sRGB">
<feFlood flood-opacity="0" result="BackgroundImageFix"/>
<feGaussianBlur in="BackgroundImageFix" stdDeviation="52"/>
<feComposite in2="SourceAlpha" operator="in" result="effect1_backgroundBlur_191_255"/>
<feColorMatrix in="SourceAlpha" type="matrix" values="0 0 0 0 0 0 0 0 0 0 0 0 0 0 0 0 0 0 127 0" result="hardAlpha"/>
<feOffset dy="1"/>
<feGaussianBlur stdDeviation="20"/>
<feComposite in2="hardAlpha" operator="out"/>
<feColorMatrix type="matrix" values="0 0 0 0 0.808333 0 0 0 0 0.927335 0 0 0 0 1 0 0 0 0.2 0"/>
<feBlend mode="normal" in2="effect1_backgroundBlur_191_255" result="effect2_dropShadow_191_255"/>
<feColorMatrix in="SourceAlpha" type="matrix" values="0 0 0 0 0 0 0 0 0 0 0 0 0 0 0 0 0 0 127 0" result="hardAlpha"/>
<feOffset dy="4"/>
<feGaussianBlur stdDeviation="9"/>
<feComposite in2="hardAlpha" operator="out"/>
<feColorMatrix type="matrix" values="0 0 0 0 0.578472 0 0 0 0 0.83334 0 0 0 0 0.991667 0 0 0 0.3 0"/>
<feBlend mode="normal" in2="effect2_dropShadow_191_255" result="effect3_dropShadow_191_255"/>
<feBlend mode="normal" in="SourceGraphic" in2="effect3_dropShadow_191_255" result="shape"/>
</filter>
<linearGradient id="paint0_linear_191_255" x1="70" y1="39" x2="70" y2="99" gradientUnits="userSpaceOnUse">
<stop stop-color="#27B5DA"/>
<stop offset="1" stop-color="#04D2FF"/>
</linearGradient>
<linearGradient id="paint1_linear_191_255" x1="70" y1="39" x2="70" y2="99" gradientUnits="userSpaceOnUse">
<stop stop-color="white" stop-opacity="0.36"/>
<stop offset="1" stop-color="white" stop-opacity="0.81"/>
</linearGradient>
</defs>
</svg>
