<svg width="60" height="60" viewBox="0 0 60 60" fill="none" xmlns="http://www.w3.org/2000/svg">
<rect width="60" height="60" rx="5" fill="url(#paint0_linear_226_27)"/>
<g clip-path="url(#clip0_226_27)">
<path d="M37.466 33.7166C36.9702 31.7337 34.1655 31.1189 29.5488 32.6014C24.9289 34.0871 24.9857 33.698 24.9857 33.698C24.9857 33.698 24.9293 30.2907 26.5778 29.1395V22.209C26.5778 22.209 20.474 25.0137 19.155 27.3229C17.8342 29.6336 15.5674 35.819 13.5876 37.7981C11.6078 39.781 10 41.0184 10 41.0184V50.9154C10 50.9154 17.1753 49.4298 20.6401 47.6982C24.102 45.9664 23.6097 40.5229 28.8049 39.2869C34.0004 38.0512 37.9588 35.6964 37.4658 33.7167L37.466 33.7166Z" fill="white"/>
<path d="M35.4614 27.8238C35.6026 27.7562 35.8991 27.7201 36.3526 27.7201H36.7777V24.7288C36.5613 24.7067 36.4012 24.6973 36.2945 24.6973C35.5336 24.6973 34.939 24.9263 34.5063 25.386C34.0749 25.844 33.8081 26.5374 33.7062 27.4582H32.3994V28.8385H33.7093C33.7688 29.4488 33.8991 29.9569 34.0826 30.3819C35.8708 30.404 36.9972 30.9152 37.7076 31.5395C37.7234 31.5332 37.7405 31.5238 37.7563 31.5175C38.1768 31.2776 38.5046 30.9936 38.7335 30.6624C38.9657 30.3347 39.3281 29.7149 39.8208 28.7989C40.1124 28.2499 40.3838 27.9284 40.6335 27.8374C40.8814 27.7418 41.2956 27.6963 41.8744 27.6963C42.1034 27.6963 42.276 27.7418 42.3919 27.8437C42.5082 27.9424 42.5691 28.0947 42.5691 28.294C42.5691 28.5307 42.4812 28.683 42.3149 28.7425C42.1503 28.8052 41.7172 28.8367 41.0239 28.8367H40.3951V31.8311H40.8986C42.0453 31.8311 42.85 31.5332 43.3111 30.9323C43.7709 30.3378 44.0342 29.6368 44.1018 28.8367H45.5198V27.4564H44.1347C44.0107 26.4322 43.6875 25.6587 43.1668 25.1458C42.643 24.6329 41.9227 24.3755 41.0067 24.3755C40.4342 24.3755 39.9524 24.4697 39.5683 24.6609C39.1856 24.8506 38.8858 25.0845 38.6758 25.3591C38.4671 25.6381 38.1645 26.1574 37.7692 26.9169C37.3 27.8094 36.9881 28.349 36.8249 28.5311C36.6617 28.7226 36.3809 28.8151 35.9761 28.8151C35.7345 28.8151 35.5525 28.7696 35.4334 28.6771C35.3112 28.5861 35.2499 28.4481 35.2499 28.266C35.2513 28.0433 35.3221 27.8945 35.4614 27.8238L35.4614 27.8238Z" fill="white"/>
<path d="M46.8943 10H31.0265C29.3118 10 27.9207 11.3947 27.9207 13.1044V31.6444C28.2751 31.5393 28.6722 31.4136 29.1193 31.2694C29.2951 31.213 29.4628 31.1706 29.6368 31.1188V13.1042C29.6368 12.3401 30.2597 11.7144 31.0283 11.7144H46.8943C47.6614 11.7144 48.284 12.3387 48.284 13.1042V43.151C48.284 43.9181 47.6628 44.5424 46.8943 44.5424H31.0265C30.2593 44.5424 29.635 43.9195 29.635 43.151V40.5189C29.4655 40.5613 29.2992 40.605 29.1283 40.6474C28.6735 40.7542 28.275 40.9016 27.9189 41.0851V43.1496C27.9189 44.8625 29.3118 46.2553 31.0247 46.2553H46.8943C48.6072 46.2553 50.0001 44.8607 50.0001 43.1496V13.1045C50.0001 11.3948 48.6054 10.0001 46.8943 10.0001L46.8943 10Z" fill="white"/>
<path d="M46.5292 38.4225V29.9814C45.519 32.4913 42.5133 34.3111 38.959 34.3111H38.8914C38.8553 34.733 38.7219 35.2194 38.4019 35.7449C37.5626 37.127 35.6098 38.4352 32.9336 39.4768C33.5989 40.1936 34.2057 41.3421 34.1038 43.1412H43.8144C43.5994 39.3529 46.5294 38.4225 46.5294 38.4225H46.5292Z" fill="white"/>
<path d="M31.3889 17.8344V26.2755C32.4008 23.7641 35.4079 21.9427 38.9591 21.9427C42.5152 21.9427 45.5209 23.7638 46.5293 26.2755L46.5297 17.8344C46.5297 17.8344 43.5993 16.904 43.8143 13.1157H34.1037C34.3191 16.9044 31.3887 17.8344 31.3887 17.8344H31.3889Z" fill="white"/>
</g>
<defs>
<linearGradient id="paint0_linear_226_27" x1="30" y1="0" x2="30" y2="60" gradientUnits="userSpaceOnUse">
<stop stop-color="#53B1FC"/>
<stop offset="1" stop-color="#A0D7FB"/>
</linearGradient>
<clipPath id="clip0_226_27">
<rect width="40" height="40" fill="white" transform="translate(10 11)"/>
</clipPath>
</defs>
</svg>
