<svg width="60" height="60" viewBox="0 0 60 60" fill="none" xmlns="http://www.w3.org/2000/svg">
<rect width="60" height="60" rx="5" fill="url(#paint0_linear_191_413)" fill-opacity="0.61"/>
<rect x="0.5" y="0.5" width="59" height="59" rx="4.5" stroke="url(#paint1_linear_191_413)" stroke-opacity="0.4"/>
<path d="M33.9056 24.5788C33.9086 26.4678 32.3966 27.9933 30.516 27.9999C28.6138 28.0064 27.095 26.4898 27.0937 24.5823C27.0937 24.5254 27.095 24.4687 27.0974 24.4121C27.3821 24.523 27.6931 24.5837 28.0195 24.5827C29.3956 24.5779 30.5017 23.4618 30.4997 22.0797C30.4993 21.7561 30.4386 21.4486 30.329 21.1662C30.3795 21.1638 30.4293 21.1624 30.4802 21.1617C32.383 21.1559 33.9025 22.6718 33.9056 24.579L33.9056 24.5788ZM43.9357 25.7883C43.9357 25.7883 43.6831 26.0752 43.0317 26.7427C41.1671 28.6547 39.1194 30.3367 36.7718 31.6242C34.9516 32.6218 33.0327 33.3127 30.94 33.4105C30.7922 33.4174 30.6454 33.4208 30.499 33.4215C30.3525 33.4212 30.2057 33.4177 30.0579 33.4105C27.9653 33.3127 26.0464 32.6218 24.2261 31.6242C21.8788 30.3372 19.8309 28.6547 17.9662 26.7427C17.3149 26.0745 17.0622 25.7883 17.0622 25.7883C16.5215 25.1743 16.5474 24.1948 17.1206 23.6107C17.1206 23.6107 19.5984 21.0851 21.6173 19.5777C23.3242 18.3031 25.1294 17.2024 27.1524 16.4996C28.2527 16.1172 29.3656 15.8972 30.4993 15.8948C31.6334 15.8972 32.7463 16.1172 33.8462 16.4996C35.8689 17.2021 37.6745 18.3027 39.3814 19.5777C41.4003 21.0854 43.878 23.6107 43.878 23.6107C44.4509 24.1945 44.4771 25.1747 43.9357 25.7883H43.9357ZM36.6441 24.7652C36.6431 24.7257 36.6431 24.6811 36.6438 24.665V24.6502C36.6441 24.6039 36.6438 24.5575 36.6434 24.5116C36.6434 24.5061 36.6438 24.5013 36.6438 24.4958C36.6779 21.0754 33.9414 18.2766 30.5327 18.246H30.4989C30.4876 18.246 30.4764 18.2457 30.4651 18.246C27.0564 18.2766 24.3196 21.075 24.354 24.4958C24.354 24.5013 24.3544 24.5061 24.3544 24.5116C24.354 24.5579 24.3534 24.6042 24.354 24.6502V24.665C24.3544 24.6808 24.3544 24.7261 24.3537 24.7652L24.354 24.8012C24.354 24.8163 24.3551 24.8311 24.3551 24.8465C24.3547 24.8829 24.3537 24.9193 24.354 24.9557C24.3882 28.3249 27.1595 31.0777 30.4992 31.0647C33.8389 31.078 36.6103 28.3252 36.644 24.9564C36.6443 24.92 36.6437 24.8836 36.643 24.8472C36.6433 24.8321 36.644 24.8174 36.644 24.8019V24.7652L36.6441 24.7652ZM52 35.7732V40.9566H51.9962C51.9396 42.4354 50.7297 43.6174 49.2448 43.6174H35.2941C35.3191 44.2389 35.6632 47.0601 39.8543 47.59H39.6536C40.3152 47.59 40.8522 48.1292 40.8522 48.795C40.8522 49.4608 40.3159 50 39.6536 50L21.2783 49.9997C20.6167 49.9997 20.0797 49.4605 20.0797 48.7947C20.0797 48.1288 20.616 47.5897 21.2783 47.5897H21.1438C25.3349 47.0601 25.6797 44.2389 25.704 43.6171L11.7542 43.6174C10.2692 43.6174 9.05971 42.4354 9.00273 40.9566H9.00137V40.8975C9.00102 40.8807 9 40.8646 9 40.8478V40.6175C9 40.6007 9.00102 40.5845 9.00137 40.5677V36.3628C9.00137 36.3501 9.00034 36.3371 9.00034 36.3244L9.00068 13.1434C9.00068 11.4099 10.4034 10 12.1274 10H48.8728C50.597 10 51.9994 11.4102 51.9994 13.1434V35.7735L52 35.7732ZM32.0289 40.5173C32.0289 39.6682 31.3441 38.9797 30.4995 38.9797C29.6549 38.9797 28.9701 39.6682 28.9701 40.5173C28.9701 41.3664 29.6549 42.0548 30.4995 42.0548C31.3441 42.0548 32.0289 41.3664 32.0289 40.5173ZM49.4201 36.3247V13.1437C49.4201 12.8399 49.1744 12.5925 48.8719 12.5925H12.1265C11.8244 12.5925 11.5782 12.8396 11.5782 13.1437V36.3247C11.5782 36.6284 11.824 36.8758 12.1265 36.8758H48.8719C49.1744 36.8758 49.4201 36.6287 49.4201 36.3247Z" fill="white"/>
<defs>
<linearGradient id="paint0_linear_191_413" x1="30" y1="0" x2="30" y2="60" gradientUnits="userSpaceOnUse">
<stop stop-color="#27B5DA"/>
<stop offset="1" stop-color="#04D2FF"/>
</linearGradient>
<linearGradient id="paint1_linear_191_413" x1="30" y1="0" x2="30" y2="60" gradientUnits="userSpaceOnUse">
<stop stop-color="white" stop-opacity="0.36"/>
<stop offset="1" stop-color="white" stop-opacity="0.81"/>
</linearGradient>
</defs>
</svg>
