<svg width="60" height="60" viewBox="0 0 60 60" fill="none" xmlns="http://www.w3.org/2000/svg">
<rect width="60" height="60" rx="5" fill="url(#paint0_linear_226_78)"/>
<g clip-path="url(#clip0_226_78)">
<path d="M35.8335 10.0002C33.5048 10.0002 31.5049 11.3819 30.5704 13.3604C27.4781 13.501 25.0002 16.0405 25.0002 19.1666C25.0002 20.9155 25.7899 22.469 27.0125 23.5394C24.2176 23.9214 21.5901 24.8329 19.3797 26.2093C18.3633 25.4258 17.127 25 15.8337 25C15.3728 25 15 25.3728 15 25.8337C15 26.9838 15.3521 28.1085 16.0025 29.0697C14.8853 30.3742 14.096 31.8272 13.6861 33.3336H13.3337C11.4953 33.3336 10 34.828 10 36.6664C10 38.5213 10.9403 40.2141 12.5139 41.196L18.3333 44.8221V49.1663C18.3333 49.6272 18.7053 50 19.1662 50H22.4999C22.8154 50 23.1034 49.8217 23.2451 49.5391L24.232 47.5662C27.92 48.5834 32.0797 48.5834 35.7676 47.5662L36.7544 49.5391C36.8959 49.8214 37.1841 50 37.4997 50H40.8334C41.2943 50 41.6662 49.6272 41.6662 49.1663V44.754C44.8497 42.4119 46.6661 39.1823 46.6661 35.8334C46.6661 34.6191 46.4228 33.448 45.9907 32.3373C46.5551 31.7079 47.1357 30.8879 47.5785 29.8217C48.0896 29.9372 48.6234 29.9997 49.1661 29.9997C49.627 29.9997 49.9998 29.627 49.9998 29.166C49.9998 28.7057 49.6271 28.3332 49.1661 28.3332C48.7878 28.3332 48.4245 28.2944 48.0811 28.2252C48.2398 27.5076 48.3327 26.7113 48.3327 25.8332C48.3327 24.4549 47.2117 23.3333 45.8328 23.3333C44.4544 23.3333 43.3328 24.4549 43.3328 25.8332C43.3328 27.2029 44.4291 28.4954 46.0015 29.2676C45.7607 29.8268 45.4748 30.2953 45.1787 30.6981C43.1464 27.3329 39.1883 24.7657 34.3602 23.7819C35.0837 23.2239 35.6736 22.4962 36.0759 21.6419C39.178 21.5118 41.6666 18.9667 41.6666 15.8336C41.6666 12.6178 39.0497 10 35.8338 10L35.8335 10.0002ZM35.8335 11.6664C38.1306 11.6664 39.9998 13.5361 39.9998 15.8335C39.9998 18.1312 38.1306 19.9998 35.8335 19.9998C33.5364 19.9998 31.6664 18.1307 31.6664 15.8335C31.6664 13.5361 33.5361 11.6664 35.8335 11.6664ZM35.8335 13.3336C35.3726 13.3336 34.9998 13.7058 34.9998 14.1664V17.5001C34.9998 17.961 35.3726 18.3338 35.8335 18.3338C36.2945 18.3338 36.6664 17.961 36.6664 17.5001V14.1664C36.6664 13.7058 36.2945 13.3336 35.8335 13.3336ZM30.0755 15.0875C30.0434 15.3344 29.9999 15.5783 29.9999 15.8335C29.9999 16.2579 30.0512 16.6692 30.1375 17.0679C30.0579 17.1954 29.9999 17.3383 29.9999 17.4998V20.8335C29.9999 21.2944 30.3727 21.6663 30.8336 21.6663C31.2946 21.6663 31.6665 21.2944 31.6665 20.8335V19.903C32.3779 20.6315 33.2837 21.1549 34.292 21.4334C33.5359 22.5941 32.2493 23.3335 30.8336 23.3335C28.5359 23.3335 26.6665 21.4638 26.6665 19.1664C26.6665 17.1422 28.1196 15.4555 30.0758 15.0878L30.0755 15.0875ZM45.8332 24.9995C46.2933 24.9995 46.666 25.3731 46.666 25.8332C46.666 26.4917 46.6049 27.0933 46.4981 27.6415C45.572 27.115 44.9997 26.3887 44.9997 25.8332C44.9997 25.3737 45.3733 24.9995 45.8334 24.9995H45.8332ZM29.9998 26.6831C32.1741 26.6831 34.3485 26.9688 36.0927 27.541C36.5307 27.6842 36.7682 28.1554 36.6247 28.5924C36.5095 28.944 36.1845 29.166 35.8335 29.166C35.747 29.166 35.6594 29.1532 35.5734 29.1245C32.4158 28.0882 27.5835 28.0882 24.4264 29.1245C23.9928 29.2712 23.5199 29.0304 23.3751 28.5924C23.2314 28.1557 23.4691 27.6845 23.9072 27.541C25.651 26.9688 27.8256 26.6831 30 26.6831L29.9998 26.6831ZM18.3335 31.6657C19.2523 31.6657 19.9998 32.4141 19.9998 33.3328C19.9998 34.2516 19.2523 34.9991 18.3335 34.9991C17.4147 34.9991 16.6664 34.2516 16.6664 33.3328C16.6664 32.4141 17.4147 31.6657 18.3335 31.6657Z" fill="white"/>
</g>
<defs>
<linearGradient id="paint0_linear_226_78" x1="30" y1="0" x2="30" y2="60" gradientUnits="userSpaceOnUse">
<stop stop-color="#499DFD"/>
<stop offset="1" stop-color="#1381FC"/>
</linearGradient>
<clipPath id="clip0_226_78">
<rect width="40" height="40" fill="white" transform="translate(10 10)"/>
</clipPath>
</defs>
</svg>
