<svg width="60" height="60" viewBox="0 0 60 60" fill="none" xmlns="http://www.w3.org/2000/svg">
<rect width="60" height="60" rx="5" fill="url(#paint0_linear_226_47)"/>
<g clip-path="url(#clip0_226_47)">
<path d="M50 41.3107C50 43.4997 47.9366 45.6896 44.3392 47.3189C40.5201 49.0475 35.4279 50 30 50C24.5726 50 19.4803 49.0475 15.6608 47.3189C12.0631 45.6896 10 43.4997 10 41.3107C10 39.3899 11.5259 37.8708 12.806 36.9344C14.4319 35.7447 16.6569 34.7412 19.2935 34C17.3417 35.2933 16.2833 36.9075 16.2833 38.6371C16.2833 40.6864 17.77 42.5765 20.4691 43.9584C23.0257 45.2683 26.4109 45.9896 29.9999 45.9896C33.589 45.9896 36.9741 45.2686 39.5307 43.9584C42.2299 42.5765 43.7165 40.6864 43.7165 38.6371C43.7165 36.9075 42.6581 35.2933 40.7063 34C43.3429 34.7412 45.568 35.7444 47.1939 36.9344C48.474 37.8711 49.9998 39.39 49.9998 41.3107H50Z" fill="white"/>
<path d="M42 37.8859C42 39.4323 40.8098 40.9235 38.6479 42.0842C36.3487 43.3197 33.2778 44 30 44C26.7222 44 23.6511 43.3197 21.3521 42.0842C19.1902 40.9232 18 39.4323 18 37.8859C18 36.4744 18.991 35.11 20.8071 34C22.5773 37.4519 26.0341 39.8008 29.9999 39.8008C33.9656 39.8008 37.4229 37.4519 39.1926 34C41.0087 35.11 41.9997 36.4744 41.9997 37.8859H42Z" fill="white"/>
<path d="M37.8607 24.6223C37.855 24.6114 37.8496 24.6011 37.8448 24.5902L30.0006 10L22.1563 24.5894C22.1515 24.6003 22.1461 24.6106 22.1404 24.6215C21.3945 26.055 21 27.6836 21 29.3315C21 34.663 25.0373 39 30 39C34.9627 39 39 34.6626 39 29.3315C39 27.6836 38.6055 26.0553 37.8596 24.6215L37.8607 24.6223ZM33.9588 21.4467C34.2635 21.2604 34.6514 21.3729 34.826 21.6974L35.7601 23.4352C35.9347 23.7594 35.8298 24.1737 35.5252 24.36C35.426 24.4211 35.3171 24.4498 35.21 24.4498C34.9901 24.4498 34.7758 24.3279 34.6585 24.1093L33.7244 22.3715C33.5498 22.0473 33.6547 21.633 33.9585 21.4467L33.9588 21.4467ZM33.477 36.7569C33.3849 36.8068 33.2866 36.8313 33.1896 36.8313C32.9578 36.8313 32.7351 36.6958 32.6231 36.4605C32.4644 36.1279 32.5883 35.7196 32.9009 35.5493C35.0972 34.3562 36.4615 31.9733 36.4615 29.3319C36.4615 28.3327 36.2569 27.3259 35.8687 26.4207C35.7235 26.0801 35.8638 25.6779 36.1829 25.5222C36.5021 25.3673 36.8781 25.5171 37.0241 25.8576C37.4866 26.9391 37.7312 28.1406 37.7312 29.3319C37.7312 32.4853 36.1013 35.3306 33.477 36.7565L33.477 36.7569Z" fill="white"/>
<path d="M45 15.5C44.0897 15.9594 43.3637 16.8666 43.0002 18C42.636 16.8669 41.9103 15.9594 41 15.5C41.9103 15.0416 42.6363 14.1341 43.0002 13C43.3637 14.1341 44.0896 15.0413 45 15.5Z" fill="white"/>
<path d="M16 25.5C15.349 25.8215 14.8198 26.3506 14.5004 27C14.1802 26.3506 13.6511 25.8212 13 25.5C13.651 25.1785 14.1802 24.6494 14.5004 24C14.8198 24.6494 15.3489 25.1788 16 25.5Z" fill="white"/>
</g>
<defs>
<linearGradient id="paint0_linear_226_47" x1="30" y1="0" x2="30" y2="60" gradientUnits="userSpaceOnUse">
<stop stop-color="#76BCFF"/>
<stop offset="1" stop-color="#04D2FF"/>
</linearGradient>
<clipPath id="clip0_226_47">
<rect width="40" height="40" fill="white" transform="translate(10 10)"/>
</clipPath>
</defs>
</svg>
