<svg width="60" height="60" viewBox="0 0 60 60" fill="none" xmlns="http://www.w3.org/2000/svg">
<rect width="60" height="60" rx="5" fill="url(#paint0_linear_226_58)" fill-opacity="0.61"/>
<rect x="0.5" y="0.5" width="59" height="59" rx="4.5" stroke="url(#paint1_linear_226_58)" stroke-opacity="0.4"/>
<path d="M27 17C27 15.3431 28.5669 14 30.5 14C32.4331 14 34 15.3431 34 17C34 18.6569 32.4331 20 30.5 20C28.5669 19.9998 27 18.6567 27 17Z" fill="white"/>
<path d="M34.6269 26.575C33.3796 27.2939 32.0445 27.8612 30.6512 28.2638C29.2675 28.676 27.8337 28.9234 26.3818 29L25.8829 20.3105C25.8829 20.2628 25.8728 20.2138 25.8535 20.1661C25.8341 20.1184 25.8042 20.0743 25.7655 20.0362L18.474 12.747C17.842 12.1171 17.842 11.0962 18.474 10.4663C19.1142 9.84456 20.1518 9.84456 20.792 10.4663L26.4843 16.0667C26.1695 17.2873 26.4453 18.5812 27.2326 19.5742C28.0103 20.5672 29.2173 21.1475 30.5042 21.1475C31.7819 21.1475 32.9886 20.5672 33.7759 19.5742C34.5629 18.5812 34.839 17.2873 34.5241 16.0667L40.2164 10.4663C40.8566 9.84456 41.8876 9.84456 42.5199 10.4663C43.16 11.0962 43.16 12.1171 42.5199 12.747L35.3314 19.9495C35.2732 19.9972 35.2284 20.0559 35.1992 20.1229C35.1701 20.1896 35.1502 20.2629 35.1407 20.3392L34.6126 26.5893L33.8643 27.1088C33.8643 27.1185 33.869 27.1232 33.8789 27.1232V27.1521L34.6269 26.575Z" fill="white"/>
<path d="M38 34.2344L33.6112 37.2406L32.0074 34.4873C31.9036 34.3093 31.7074 34.2318 31.5262 34.2973C31.3363 34.3536 31.2055 34.5342 31.2055 34.7402L31.2199 38H26V30.6581C27.4632 30.5738 28.9208 30.3086 30.3453 29.8671C31.76 29.415 33.1197 28.7885 34.3989 28L38 34.2344Z" fill="white"/>
<path d="M26.0166 47.782C26.026 49.0152 27.149 50.0083 28.525 49.9999C29.8921 49.9999 31 49.0003 31 47.7669L30.9834 39H26L26.0166 47.782Z" fill="white"/>
<path d="M39.2637 44.0435C39.8582 45.0044 41.1083 45.2887 42.0563 44.6787C43.0044 44.0762 43.2848 42.8091 42.683 41.8483L38.4328 35L35 37.2092L39.2637 44.0435Z" fill="white"/>
<defs>
<linearGradient id="paint0_linear_226_58" x1="30" y1="0" x2="30" y2="60" gradientUnits="userSpaceOnUse">
<stop stop-color="#27B5DA"/>
<stop offset="1" stop-color="#04D2FF"/>
</linearGradient>
<linearGradient id="paint1_linear_226_58" x1="30" y1="0" x2="30" y2="60" gradientUnits="userSpaceOnUse">
<stop stop-color="white" stop-opacity="0.36"/>
<stop offset="1" stop-color="white" stop-opacity="0.81"/>
</linearGradient>
</defs>
</svg>
