<svg width="130" height="131" viewBox="0 0 130 131" fill="none" xmlns="http://www.w3.org/2000/svg">
<g filter="url(#filter0_bdd_226_58)">
<rect x="30" y="30" width="60" height="60" rx="5" fill="url(#paint0_linear_226_58)" fill-opacity="0.61" shape-rendering="crispEdges"/>
<rect x="30.5" y="30.5" width="59" height="59" rx="4.5" stroke="url(#paint1_linear_226_58)" stroke-opacity="0.4" shape-rendering="crispEdges"/>
</g>
<path d="M57 47C57 45.3431 58.5669 44 60.5 44C62.4331 44 64 45.3431 64 47C64 48.6569 62.4331 50 60.5 50C58.5669 49.9998 57 48.6567 57 47Z" fill="white"/>
<path d="M64.6269 56.575C63.3796 57.2939 62.0445 57.8612 60.6512 58.2638C59.2675 58.676 57.8337 58.9234 56.3818 59L55.8829 50.3105C55.8829 50.2628 55.8728 50.2138 55.8535 50.1661C55.8341 50.1184 55.8042 50.0743 55.7655 50.0362L48.474 42.747C47.842 42.1171 47.842 41.0962 48.474 40.4663C49.1142 39.8446 50.1518 39.8446 50.792 40.4663L56.4843 46.0667C56.1695 47.2873 56.4453 48.5812 57.2326 49.5742C58.0103 50.5672 59.2173 51.1475 60.5042 51.1475C61.7819 51.1475 62.9886 50.5672 63.7759 49.5742C64.5629 48.5812 64.839 47.2873 64.5241 46.0667L70.2164 40.4663C70.8566 39.8446 71.8876 39.8446 72.5199 40.4663C73.16 41.0962 73.16 42.1171 72.5199 42.747L65.3314 49.9495C65.2732 49.9972 65.2284 50.0559 65.1992 50.1229C65.1701 50.1896 65.1502 50.2629 65.1407 50.3392L64.6126 56.5893L63.8643 57.1088C63.8643 57.1185 63.869 57.1232 63.8789 57.1232V57.1521L64.6269 56.575Z" fill="white"/>
<path d="M68 64.2344L63.6112 67.2406L62.0074 64.4873C61.9036 64.3093 61.7074 64.2318 61.5262 64.2973C61.3363 64.3536 61.2055 64.5342 61.2055 64.7402L61.2199 68H56V60.6581C57.4632 60.5738 58.9208 60.3086 60.3453 59.8671C61.76 59.415 63.1197 58.7885 64.3989 58L68 64.2344Z" fill="white"/>
<path d="M56.0166 77.782C56.026 79.0152 57.149 80.0083 58.525 79.9999C59.8921 79.9999 61 79.0003 61 77.7669L60.9834 69H56L56.0166 77.782Z" fill="white"/>
<path d="M69.2637 74.0435C69.8582 75.0044 71.1083 75.2887 72.0563 74.6787C73.0044 74.0762 73.2848 72.8091 72.683 71.8483L68.4328 65L65 67.2092L69.2637 74.0435Z" fill="white"/>
<defs>
<filter id="filter0_bdd_226_58" x="-74" y="-74" width="268" height="268" filterUnits="userSpaceOnUse" color-interpolation-filters="sRGB">
<feFlood flood-opacity="0" result="BackgroundImageFix"/>
<feGaussianBlur in="BackgroundImageFix" stdDeviation="52"/>
<feComposite in2="SourceAlpha" operator="in" result="effect1_backgroundBlur_226_58"/>
<feColorMatrix in="SourceAlpha" type="matrix" values="0 0 0 0 0 0 0 0 0 0 0 0 0 0 0 0 0 0 127 0" result="hardAlpha"/>
<feOffset dy="1"/>
<feGaussianBlur stdDeviation="20"/>
<feComposite in2="hardAlpha" operator="out"/>
<feColorMatrix type="matrix" values="0 0 0 0 0.808333 0 0 0 0 0.927335 0 0 0 0 1 0 0 0 0.2 0"/>
<feBlend mode="normal" in2="effect1_backgroundBlur_226_58" result="effect2_dropShadow_226_58"/>
<feColorMatrix in="SourceAlpha" type="matrix" values="0 0 0 0 0 0 0 0 0 0 0 0 0 0 0 0 0 0 127 0" result="hardAlpha"/>
<feOffset dy="4"/>
<feGaussianBlur stdDeviation="9"/>
<feComposite in2="hardAlpha" operator="out"/>
<feColorMatrix type="matrix" values="0 0 0 0 0.578472 0 0 0 0 0.83334 0 0 0 0 0.991667 0 0 0 0.3 0"/>
<feBlend mode="normal" in2="effect2_dropShadow_226_58" result="effect3_dropShadow_226_58"/>
<feBlend mode="normal" in="SourceGraphic" in2="effect3_dropShadow_226_58" result="shape"/>
</filter>
<linearGradient id="paint0_linear_226_58" x1="60" y1="30" x2="60" y2="90" gradientUnits="userSpaceOnUse">
<stop stop-color="#27B5DA"/>
<stop offset="1" stop-color="#04D2FF"/>
</linearGradient>
<linearGradient id="paint1_linear_226_58" x1="60" y1="30" x2="60" y2="90" gradientUnits="userSpaceOnUse">
<stop stop-color="white" stop-opacity="0.36"/>
<stop offset="1" stop-color="white" stop-opacity="0.81"/>
</linearGradient>
</defs>
</svg>
