<svg width="60" height="60" viewBox="0 0 60 60" fill="none" xmlns="http://www.w3.org/2000/svg">
<rect width="60" height="60" rx="5" fill="url(#paint0_linear_191_419)" fill-opacity="0.61"/>
<rect x="0.5" y="0.5" width="59" height="59" rx="4.5" stroke="url(#paint1_linear_191_419)" stroke-opacity="0.4"/>
<path d="M22.9892 20.3V42H17.9672V24.33H13.6272V20.3H22.9892ZM36.0588 42.372C34.2608 42.372 32.6591 41.9277 31.2538 41.039C29.8485 40.1503 28.7428 38.869 27.9368 37.195C27.1515 35.5003 26.7588 33.4853 26.7588 31.15C26.7588 28.8147 27.1515 26.81 27.9368 25.136C28.7428 23.4413 29.8485 22.1497 31.2538 21.261C32.6591 20.3723 34.2608 19.928 36.0588 19.928C37.8568 19.928 39.4585 20.3723 40.8638 21.261C42.2691 22.1497 43.3645 23.4413 44.1498 25.136C44.9558 26.81 45.3588 28.8147 45.3588 31.15C45.3588 33.4853 44.9558 35.5003 44.1498 37.195C43.3645 38.869 42.2691 40.1503 40.8638 41.039C39.4585 41.9277 37.8568 42.372 36.0588 42.372ZM36.0588 38.125C37.3815 38.125 38.4148 37.5567 39.1588 36.42C39.9235 35.2833 40.3058 33.5267 40.3058 31.15C40.3058 28.7733 39.9235 27.0167 39.1588 25.88C38.4148 24.7433 37.3815 24.175 36.0588 24.175C34.7568 24.175 33.7235 24.7433 32.9588 25.88C32.2148 27.0167 31.8428 28.7733 31.8428 31.15C31.8428 33.5267 32.2148 35.2833 32.9588 36.42C33.7235 37.5567 34.7568 38.125 36.0588 38.125Z" fill="white"/>
<defs>
<linearGradient id="paint0_linear_191_419" x1="30" y1="0" x2="30" y2="60" gradientUnits="userSpaceOnUse">
<stop stop-color="#49B2FF"/>
<stop offset="0.760417" stop-color="#03479F"/>
</linearGradient>
<linearGradient id="paint1_linear_191_419" x1="30" y1="0" x2="30" y2="60" gradientUnits="userSpaceOnUse">
<stop stop-color="white" stop-opacity="0.36"/>
<stop offset="1" stop-color="white" stop-opacity="0.81"/>
</linearGradient>
</defs>
</svg>
