<svg width="60" height="60" viewBox="0 0 60 60" fill="none" xmlns="http://www.w3.org/2000/svg">
<rect width="60" height="60" rx="5" fill="url(#paint0_linear_191_239)" fill-opacity="0.61"/>
<rect x="0.5" y="0.5" width="59" height="59" rx="4.5" stroke="url(#paint1_linear_191_239)" stroke-opacity="0.4"/>
<path d="M41.0264 10.0004C36.1338 10.0004 32.166 13.9684 32.166 18.8607C32.166 23.753 36.1341 27.7211 41.0264 27.7211C42.4172 27.7293 43.7917 27.3938 45.0353 26.7638C45.2808 26.6411 45.3708 26.3466 45.248 26.1011C45.1253 25.8557 44.8308 25.7657 44.5853 25.8884C43.4808 26.4529 42.2618 26.7393 41.0182 26.7393C36.6656 26.7393 33.1392 23.213 33.1392 18.8604C33.1392 14.5077 36.6655 10.9814 41.0182 10.9814C45.3708 10.9814 48.8971 14.5077 48.8971 18.8604C48.8971 20.9384 48.0708 22.9429 46.6063 24.4156C46.4181 24.6038 46.4181 24.9147 46.6063 25.1111C46.7945 25.2992 47.1054 25.2992 47.3017 25.1111C50.7543 21.6421 50.738 16.0293 47.269 12.5772C45.6163 10.9245 43.3664 10 41.0265 10L41.0264 10.0004Z" fill="white"/>
<path d="M41.0269 12.8804C38.0652 12.8804 35.668 15.2857 35.668 18.2474V20.7837C35.668 21.8064 36.4943 22.6327 37.517 22.6327C37.8034 22.6327 38.057 22.8291 38.1306 23.1073L38.2124 23.4427C38.3352 23.9418 38.7851 24.2936 39.2924 24.2936H39.7015V23.1973C39.7015 22.9846 39.8733 22.8046 40.0942 22.8046C40.307 22.8046 40.4788 22.9764 40.4869 23.1973V24.2936H41.5915V23.1973C41.5915 22.9846 41.7633 22.8046 41.9842 22.8046C42.1969 22.8046 42.3687 22.9764 42.3769 23.1973V24.2936H42.786C43.3014 24.2936 43.7514 23.9418 43.866 23.4427L43.9478 23.1073C44.0132 22.8291 44.2669 22.6327 44.5614 22.6327C45.5841 22.6327 46.4104 21.8064 46.4104 20.7837V18.2474C46.3859 15.2857 43.9887 12.8885 41.027 12.8804H41.0269ZM40.0696 19.4583C39.906 20.0229 39.4151 20.3828 38.9815 20.2519C38.5479 20.121 38.327 19.5647 38.4906 18.992C38.6542 18.4192 39.1451 18.0675 39.5788 18.1984C40.0124 18.3293 40.2415 18.8938 40.0696 19.4583ZM41.4851 21.3565H40.4706L40.4788 21.3483C40.1597 21.3074 40.0124 20.9065 40.266 20.7265C40.5197 20.5383 40.7242 20.2929 40.8715 20.0065C40.9124 19.9329 41.0024 19.9083 41.0678 19.9492C41.0924 19.9656 41.1087 19.982 41.1251 20.0065C41.2724 20.2847 41.4769 20.5301 41.7305 20.7265C41.9923 20.9147 41.8205 21.3401 41.4851 21.3565L41.4851 21.3565ZM42.9986 20.2519C42.565 20.3828 42.0741 20.0228 41.9105 19.4583C41.7468 18.8938 41.9595 18.3293 42.4013 18.1984C42.8431 18.0675 43.3258 18.4275 43.4895 18.992C43.6532 19.5564 43.4404 20.121 42.9986 20.2519Z" fill="white"/>
<path d="M32.7965 35.9032C30.8248 34.8232 28.6566 33.1052 26.6604 30.528C26.1777 29.9062 25.4577 28.7117 25.4577 28.7117C25.4168 28.6463 25.3759 28.5726 25.335 28.499C24.2059 26.5518 21.7187 25.8809 19.7634 27.01C19.4361 27.1981 19.1334 27.4354 18.8716 27.7054C17.7425 28.8754 17.4153 30.6098 18.0452 32.1071C20.0416 36.8524 22.9951 39.7242 25.6788 41.4506C25.6788 41.4506 27.1188 42.3261 27.8714 42.6616C28.4523 42.9152 28.9841 43.1443 29.4751 43.3161C30.9805 43.8479 32.6495 43.447 33.754 42.3016L33.7622 42.2934C35.6194 40.3708 35.1448 37.1963 32.7968 35.9036L32.7965 35.9032ZM22.6106 33.3179C21.8171 33.3179 21.1707 32.6716 21.1707 31.878C21.1707 31.0843 21.817 30.438 22.6106 30.438C23.4042 30.438 24.0506 31.0843 24.0506 31.878C24.0506 32.6716 23.4124 33.3179 22.6106 33.3179ZM30.9309 40.1413C30.5955 40.4277 30.17 40.5913 29.7282 40.5913C29.6791 40.5913 29.6382 40.5913 29.5891 40.5831C28.9019 40.534 28.3046 40.1086 28.0347 39.4786C27.2902 39.4949 26.6766 38.9059 26.6683 38.1614C26.652 37.4169 27.241 36.8033 27.9855 36.795C28.3128 36.7868 28.6319 36.9014 28.8773 37.1141C29.7773 36.6478 30.89 36.9996 31.3645 37.8995C31.749 38.6522 31.5772 39.5849 30.9309 40.1413L30.9309 40.1413Z" fill="white"/>
<path d="M40.9617 39.8057L39.0636 39.462C39.0718 38.5539 38.9327 37.6539 38.6627 36.7949L40.4381 36.1649C40.8471 36.0258 41.0599 35.584 40.9208 35.175C40.7817 34.7659 40.3399 34.5532 39.9308 34.6923H39.9227L38.0572 35.355C37.5827 34.4877 36.9609 33.7105 36.2082 33.056L37.9509 31.7224C38.2863 31.4606 38.3518 30.9698 38.09 30.6343C37.8281 30.2988 37.3454 30.2334 37.01 30.487L34.8827 32.1151C34.8336 32.0906 34.7845 32.0579 34.7355 32.0333C34.0237 31.6406 33.3446 31.1906 32.7064 30.6752L34.5964 29.0225C34.9237 28.7444 34.9564 28.2453 34.67 27.9262C34.3837 27.6072 33.8928 27.5662 33.5737 27.8526L31.5366 29.628C30.9311 29.0143 30.383 28.3517 29.8921 27.6399L31.6757 25.7908C31.9702 25.4799 31.962 24.989 31.6511 24.6945C31.3403 24.4 30.8576 24.4082 30.563 24.7109L29.0494 26.2817C28.5013 25.3899 27.7977 24.6045 26.9631 23.9745L27.7567 22.4527C27.9531 22.0682 27.7976 21.6019 27.4131 21.4055C27.0367 21.2091 26.5704 21.3564 26.374 21.7328L25.6377 23.1563C24.7949 22.7391 23.8868 22.4691 22.946 22.3627C22.9051 22.3546 22.8642 22.3546 22.8151 22.3464L22.7742 20.6774C22.766 20.252 22.4224 19.9165 21.9969 19.9165H21.9805C21.5551 19.9247 21.2115 20.2847 21.2196 20.7101L21.2605 22.3137C20.4424 22.3791 19.6324 22.5591 18.8715 22.8619L18.1515 21.3483C17.9634 20.9638 17.497 20.8001 17.1124 20.9883C16.7279 21.1765 16.5725 21.6347 16.7525 22.0192L17.4888 23.5655C16.9161 23.9255 16.3843 24.3591 15.9098 24.85C15.828 24.9318 15.7462 25.0218 15.6725 25.1118L14.3799 24.1136C14.0444 23.8436 13.5535 23.9009 13.2917 24.2445C13.0299 24.58 13.079 25.0627 13.4144 25.3327L14.7399 26.3963C14.2899 27.149 13.9626 27.9672 13.7662 28.818L11.8927 28.5317C11.4672 28.4662 11.0745 28.7608 11.0091 29.1862C10.9437 29.6116 11.2382 30.0044 11.6554 30.0698L13.5617 30.3643C13.529 31.2725 13.6435 32.1806 13.8971 33.056L12.0072 33.5469C11.5899 33.6532 11.3363 34.0705 11.4427 34.4878C11.549 34.905 11.9663 35.1586 12.3835 35.0523H12.3917L14.4616 34.5205C14.7725 35.2159 15.108 35.8868 15.4516 36.5086L13.9543 37.4004C13.5862 37.6213 13.4634 38.0958 13.6843 38.464C13.9052 38.8322 14.3798 38.9549 14.7479 38.734L16.2452 37.8422C16.7279 38.6031 17.2515 39.3394 17.816 40.043L16.3188 41.2621C15.9834 41.5321 15.9261 42.0147 16.1961 42.3584C16.4661 42.702 16.9487 42.7511 17.2924 42.4811L17.3006 42.4729L18.8223 41.2129C19.3541 41.7938 19.9187 42.342 20.5077 42.8656L19.3132 44.1092C19.0105 44.4201 19.0187 44.911 19.3296 45.2055C19.6405 45.5082 20.1314 45.5001 20.4259 45.1892L20.434 45.181L21.7103 43.8556C22.4467 44.4283 23.2239 44.9519 24.0257 45.4264L22.9621 47.0627C22.7248 47.4227 22.8312 47.9054 23.1912 48.1345C23.5511 48.3717 24.0339 48.2654 24.2629 47.9054L25.392 46.1709C26.1856 46.5718 27.0038 46.9235 27.8383 47.2181L27.3801 49.0262C27.2737 49.4435 27.5192 49.869 27.9364 49.9753C28.3537 50.0817 28.7792 49.8362 28.8855 49.419V49.4108L29.3437 47.6109C30.3582 47.7745 31.3972 47.75 32.4036 47.5373L33.0908 49.4109C33.2463 49.8117 33.6881 50.0163 34.089 49.8608C34.4899 49.7136 34.6862 49.2718 34.5471 48.8709L33.8844 47.0792C34.948 46.6374 35.9053 45.991 36.707 45.1565L36.7234 45.1401L38.2615 46.1465C38.6215 46.3837 39.1042 46.2774 39.3415 45.9256C39.5787 45.5738 39.4724 45.0828 39.1206 44.8456L37.7052 43.9211C38.2942 43.0293 38.7033 42.0394 38.9078 40.9921L40.6996 41.3112C41.125 41.393 41.5259 41.1067 41.6078 40.6894C41.6896 40.264 41.4032 39.8631 40.986 39.7812C40.9696 39.8058 40.9614 39.8058 40.9614 39.8058L40.9617 39.8057ZM36.0037 44.4937C33.9911 46.58 30.9558 47.2917 28.231 46.3345C24.8357 45.1318 18.6099 41.8674 15.1077 33.5306C13.5287 29.7671 15.304 25.4392 19.0676 23.8683C19.9594 23.492 20.9248 23.2956 21.8984 23.2956C22.2093 23.2956 22.512 23.312 22.8147 23.3529C25.1137 23.6229 27.1591 24.9728 28.3045 26.9855C29.7936 29.5626 31.798 31.559 34.2525 32.9007C37.8197 34.8643 39.1205 39.3478 37.157 42.9227C36.8461 43.4954 36.4615 44.019 36.0034 44.4936L36.0037 44.4937Z" fill="white"/>
<defs>
<linearGradient id="paint0_linear_191_239" x1="30" y1="0" x2="30" y2="60" gradientUnits="userSpaceOnUse">
<stop stop-color="#16B8E5"/>
<stop offset="1" stop-color="#49B2FF"/>
</linearGradient>
<linearGradient id="paint1_linear_191_239" x1="30" y1="0" x2="30" y2="60" gradientUnits="userSpaceOnUse">
<stop stop-color="white" stop-opacity="0.36"/>
<stop offset="1" stop-color="white" stop-opacity="0.81"/>
</linearGradient>
</defs>
</svg>
