<svg width="140" height="140" viewBox="0 0 140 140" fill="none" xmlns="http://www.w3.org/2000/svg">
<g filter="url(#filter0_bdd_416_2)">
<rect x="40" y="39" width="60" height="60" rx="5" fill="url(#paint0_linear_416_2)" fill-opacity="0.61" shape-rendering="crispEdges"/>
<rect x="40.5" y="39.5" width="59" height="59" rx="4.5" stroke="url(#paint1_linear_416_2)" stroke-opacity="0.4" shape-rendering="crispEdges"/>
</g>
<path d="M81.0264 49.0004C76.1338 49.0004 72.166 52.9684 72.166 57.8607C72.166 62.753 76.1341 66.7211 81.0264 66.7211C82.4172 66.7293 83.7917 66.3938 85.0353 65.7638C85.2808 65.6411 85.3708 65.3466 85.248 65.1011C85.1253 64.8557 84.8308 64.7657 84.5853 64.8884C83.4808 65.4529 82.2618 65.7393 81.0182 65.7393C76.6656 65.7393 73.1392 62.213 73.1392 57.8604C73.1392 53.5077 76.6655 49.9814 81.0182 49.9814C85.3708 49.9814 88.8971 53.5077 88.8971 57.8604C88.8971 59.9384 88.0708 61.9429 86.6063 63.4156C86.4181 63.6038 86.4181 63.9147 86.6063 64.1111C86.7945 64.2992 87.1054 64.2992 87.3017 64.1111C90.7543 60.6421 90.738 55.0293 87.269 51.5772C85.6163 49.9245 83.3664 49 81.0265 49L81.0264 49.0004Z" fill="white"/>
<path d="M81.0269 51.8804C78.0652 51.8804 75.668 54.2857 75.668 57.2474V59.7837C75.668 60.8064 76.4943 61.6327 77.517 61.6327C77.8034 61.6327 78.057 61.8291 78.1306 62.1073L78.2124 62.4427C78.3352 62.9418 78.7851 63.2936 79.2924 63.2936H79.7015V62.1973C79.7015 61.9846 79.8733 61.8046 80.0942 61.8046C80.307 61.8046 80.4788 61.9764 80.4869 62.1973V63.2936H81.5915V62.1973C81.5915 61.9846 81.7633 61.8046 81.9842 61.8046C82.1969 61.8046 82.3687 61.9764 82.3769 62.1973V63.2936H82.786C83.3014 63.2936 83.7514 62.9418 83.866 62.4427L83.9478 62.1073C84.0132 61.8291 84.2669 61.6327 84.5614 61.6327C85.5841 61.6327 86.4104 60.8064 86.4104 59.7837V57.2474C86.3859 54.2857 83.9887 51.8885 81.027 51.8804H81.0269ZM80.0696 58.4583C79.906 59.0229 79.4151 59.3828 78.9815 59.2519C78.5479 59.121 78.327 58.5647 78.4906 57.992C78.6542 57.4192 79.1451 57.0675 79.5788 57.1984C80.0124 57.3293 80.2415 57.8938 80.0696 58.4583V58.4583ZM81.4851 60.3565H80.4706L80.4788 60.3483C80.1597 60.3074 80.0124 59.9065 80.266 59.7265C80.5197 59.5383 80.7242 59.2929 80.8715 59.0065C80.9124 58.9329 81.0024 58.9083 81.0678 58.9492C81.0924 58.9656 81.1087 58.982 81.1251 59.0065C81.2724 59.2847 81.4769 59.5301 81.7305 59.7265C81.9923 59.9147 81.8205 60.3401 81.4851 60.3565L81.4851 60.3565ZM82.9986 59.2519C82.565 59.3828 82.0741 59.0228 81.9105 58.4583C81.7468 57.8938 81.9595 57.3293 82.4013 57.1984C82.8431 57.0675 83.3258 57.4275 83.4895 57.992C83.6532 58.5564 83.4404 59.121 82.9986 59.2519Z" fill="white"/>
<path d="M72.7965 74.9032C70.8248 73.8232 68.6566 72.1052 66.6604 69.528C66.1777 68.9062 65.4577 67.7117 65.4577 67.7117C65.4168 67.6463 65.3759 67.5726 65.335 67.499C64.2059 65.5518 61.7187 64.8809 59.7634 66.01C59.4361 66.1981 59.1334 66.4354 58.8716 66.7054C57.7425 67.8754 57.4153 69.6098 58.0452 71.1071C60.0416 75.8524 62.9951 78.7242 65.6788 80.4506C65.6788 80.4506 67.1188 81.3261 67.8714 81.6616C68.4523 81.9152 68.9841 82.1443 69.4751 82.3161C70.9805 82.8479 72.6495 82.447 73.754 81.3016L73.7622 81.2934C75.6194 79.3708 75.1448 76.1963 72.7968 74.9036L72.7965 74.9032ZM62.6106 72.3179C61.8171 72.3179 61.1707 71.6716 61.1707 70.878C61.1707 70.0843 61.817 69.438 62.6106 69.438C63.4042 69.438 64.0506 70.0843 64.0506 70.878C64.0506 71.6716 63.4124 72.3179 62.6106 72.3179V72.3179ZM70.9309 79.1413C70.5955 79.4277 70.17 79.5913 69.7282 79.5913C69.6791 79.5913 69.6382 79.5913 69.5891 79.5831C68.9019 79.534 68.3046 79.1086 68.0347 78.4786C67.2902 78.4949 66.6766 77.9059 66.6683 77.1614C66.652 76.4169 67.241 75.8033 67.9855 75.795C68.3128 75.7868 68.6319 75.9014 68.8773 76.1141C69.7773 75.6478 70.89 75.9996 71.3645 76.8995C71.749 77.6522 71.5772 78.5849 70.9309 79.1413L70.9309 79.1413Z" fill="white"/>
<path d="M80.9617 78.8057L79.0636 78.462C79.0718 77.5539 78.9327 76.6539 78.6627 75.7949L80.4381 75.1649C80.8471 75.0258 81.0599 74.584 80.9208 74.175C80.7817 73.7659 80.3399 73.5532 79.9308 73.6923H79.9227L78.0572 74.355C77.5827 73.4877 76.9609 72.7105 76.2082 72.056L77.9509 70.7224C78.2863 70.4606 78.3518 69.9698 78.09 69.6343C77.8281 69.2988 77.3454 69.2334 77.01 69.487L74.8827 71.1151C74.8336 71.0906 74.7845 71.0579 74.7355 71.0333C74.0237 70.6406 73.3446 70.1906 72.7064 69.6752L74.5964 68.0225C74.9237 67.7444 74.9564 67.2453 74.67 66.9262C74.3837 66.6072 73.8928 66.5662 73.5737 66.8526L71.5366 68.628C70.9311 68.0143 70.383 67.3517 69.8921 66.6399L71.6757 64.7908C71.9702 64.4799 71.962 63.989 71.6511 63.6945C71.3403 63.4 70.8576 63.4082 70.563 63.7109L69.0494 65.2817C68.5013 64.3899 67.7977 63.6045 66.9631 62.9745L67.7567 61.4527C67.9531 61.0682 67.7976 60.6019 67.4131 60.4055C67.0367 60.2091 66.5704 60.3564 66.374 60.7328L65.6377 62.1563C64.7949 61.7391 63.8868 61.4691 62.946 61.3627C62.9051 61.3546 62.8642 61.3546 62.8151 61.3464L62.7742 59.6774C62.766 59.252 62.4224 58.9165 61.9969 58.9165H61.9805C61.5551 58.9247 61.2115 59.2847 61.2196 59.7101L61.2605 61.3137C60.4424 61.3791 59.6324 61.5591 58.8715 61.8619L58.1515 60.3483C57.9634 59.9638 57.497 59.8001 57.1124 59.9883C56.7279 60.1765 56.5725 60.6347 56.7525 61.0192L57.4888 62.5655C56.9161 62.9255 56.3843 63.3591 55.9098 63.85C55.828 63.9318 55.7462 64.0218 55.6725 64.1118L54.3799 63.1136C54.0444 62.8436 53.5535 62.9009 53.2917 63.2445C53.0299 63.58 53.079 64.0627 53.4144 64.3327L54.7399 65.3963C54.2899 66.149 53.9626 66.9672 53.7662 67.818L51.8927 67.5317C51.4672 67.4662 51.0745 67.7608 51.0091 68.1862C50.9437 68.6116 51.2382 69.0044 51.6554 69.0698L53.5617 69.3643C53.529 70.2725 53.6435 71.1806 53.8971 72.056L52.0072 72.5469C51.5899 72.6532 51.3363 73.0705 51.4427 73.4878C51.549 73.905 51.9663 74.1586 52.3835 74.0523H52.3917L54.4616 73.5205C54.7725 74.2159 55.108 74.8868 55.4516 75.5086L53.9543 76.4004C53.5862 76.6213 53.4634 77.0958 53.6843 77.464C53.9052 77.8322 54.3798 77.9549 54.7479 77.734L56.2452 76.8422C56.7279 77.6031 57.2515 78.3394 57.816 79.043L56.3188 80.2621C55.9834 80.5321 55.9261 81.0147 56.1961 81.3584C56.4661 81.702 56.9487 81.7511 57.2924 81.4811L57.3006 81.4729L58.8223 80.2129C59.3541 80.7938 59.9187 81.342 60.5077 81.8656L59.3132 83.1092C59.0105 83.4201 59.0187 83.911 59.3296 84.2055C59.6405 84.5082 60.1314 84.5001 60.4259 84.1892L60.434 84.181L61.7103 82.8556C62.4467 83.4283 63.2239 83.9519 64.0257 84.4264L62.9621 86.0627C62.7248 86.4227 62.8312 86.9054 63.1912 87.1345C63.5511 87.3717 64.0339 87.2654 64.2629 86.9054L65.392 85.1709C66.1856 85.5718 67.0038 85.9235 67.8383 86.2181L67.3801 88.0262C67.2737 88.4435 67.5192 88.869 67.9364 88.9753C68.3537 89.0817 68.7792 88.8362 68.8855 88.419V88.4108L69.3437 86.6109C70.3582 86.7745 71.3972 86.75 72.4036 86.5373L73.0908 88.4108C73.2463 88.8117 73.6881 89.0163 74.089 88.8608C74.4899 88.7136 74.6862 88.2718 74.5471 87.8709L73.8844 86.0792C74.948 85.6374 75.9053 84.991 76.707 84.1565L76.7234 84.1401L78.2615 85.1465C78.6215 85.3837 79.1042 85.2774 79.3415 84.9256C79.5787 84.5738 79.4724 84.0828 79.1206 83.8456L77.7052 82.9211C78.2942 82.0293 78.7033 81.0394 78.9078 79.9921L80.6996 80.3112C81.125 80.393 81.5259 80.1067 81.6078 79.6894C81.6896 79.264 81.4032 78.8631 80.986 78.7812C80.9696 78.8058 80.9614 78.8058 80.9614 78.8058L80.9617 78.8057ZM76.0037 83.4937C73.9911 85.58 70.9558 86.2917 68.231 85.3345C64.8357 84.1318 58.6099 80.8674 55.1077 72.5306C53.5287 68.7671 55.304 64.4392 59.0676 62.8683C59.9594 62.492 60.9248 62.2956 61.8984 62.2956C62.2093 62.2956 62.512 62.312 62.8147 62.3529C65.1137 62.6229 67.1591 63.9728 68.3045 65.9855C69.7936 68.5626 71.798 70.559 74.2525 71.9007C77.8197 73.8643 79.1205 78.3478 77.157 81.9227C76.8461 82.4954 76.4615 83.019 76.0034 83.4936L76.0037 83.4937Z" fill="white"/>
<defs>
<filter id="filter0_bdd_416_2" x="-64" y="-65" width="268" height="268" filterUnits="userSpaceOnUse" color-interpolation-filters="sRGB">
<feFlood flood-opacity="0" result="BackgroundImageFix"/>
<feGaussianBlur in="BackgroundImageFix" stdDeviation="52"/>
<feComposite in2="SourceAlpha" operator="in" result="effect1_backgroundBlur_416_2"/>
<feColorMatrix in="SourceAlpha" type="matrix" values="0 0 0 0 0 0 0 0 0 0 0 0 0 0 0 0 0 0 127 0" result="hardAlpha"/>
<feOffset dy="1"/>
<feGaussianBlur stdDeviation="20"/>
<feComposite in2="hardAlpha" operator="out"/>
<feColorMatrix type="matrix" values="0 0 0 0 0.808333 0 0 0 0 0.927335 0 0 0 0 1 0 0 0 0.2 0"/>
<feBlend mode="normal" in2="effect1_backgroundBlur_416_2" result="effect2_dropShadow_416_2"/>
<feColorMatrix in="SourceAlpha" type="matrix" values="0 0 0 0 0 0 0 0 0 0 0 0 0 0 0 0 0 0 127 0" result="hardAlpha"/>
<feOffset dy="4"/>
<feGaussianBlur stdDeviation="9"/>
<feComposite in2="hardAlpha" operator="out"/>
<feColorMatrix type="matrix" values="0 0 0 0 0.578472 0 0 0 0 0.83334 0 0 0 0 0.991667 0 0 0 0.3 0"/>
<feBlend mode="normal" in2="effect2_dropShadow_416_2" result="effect3_dropShadow_416_2"/>
<feBlend mode="normal" in="SourceGraphic" in2="effect3_dropShadow_416_2" result="shape"/>
</filter>
<linearGradient id="paint0_linear_416_2" x1="70" y1="39" x2="70" y2="99" gradientUnits="userSpaceOnUse">
<stop stop-color="#16B8E5"/>
<stop offset="1" stop-color="#49B2FF"/>
</linearGradient>
<linearGradient id="paint1_linear_416_2" x1="70" y1="39" x2="70" y2="99" gradientUnits="userSpaceOnUse">
<stop stop-color="white" stop-opacity="0.36"/>
<stop offset="1" stop-color="white" stop-opacity="0.81"/>
</linearGradient>
</defs>
</svg>
