<svg width="60" height="60" viewBox="0 0 60 60" fill="none" xmlns="http://www.w3.org/2000/svg">
<rect width="60" height="60" rx="5" fill="url(#paint0_linear_226_69)"/>
<path fill-rule="evenodd" clip-rule="evenodd" d="M33.5125 49.0124C31.8499 49.6722 30.0764 50.0074 28.2875 49.9999C24.5004 49.9999 20.8684 48.4963 18.1892 45.8195C15.5101 43.1429 14.0035 39.5119 14 35.7252C14 28.0126 28.2873 10 28.2873 10C32.2269 15.0272 35.8106 20.3233 39.0124 25.8502C38.9305 25.9183 38.8552 25.9934 38.7874 26.0753C37.9122 27.1877 30.2375 36.9627 30.2375 41.7753H30.2372C30.2278 44.5485 31.4227 47.1889 33.5123 49.0126L33.5125 49.0124Z" fill="white"/>
<path fill-rule="evenodd" clip-rule="evenodd" d="M46.6746 41.7877C46.6746 43.5847 45.9608 45.308 44.6902 46.5783C43.4196 47.8489 41.6963 48.5627 39.8996 48.5627C38.1067 48.5464 36.3916 47.8279 35.1225 46.561C33.8534 45.2945 33.1318 43.5806 33.1123 41.7877C33.1123 39.2879 36.8624 33.3375 39.8996 29.2883C40.512 30.1258 41.1495 31.0382 41.8247 31.9885C44.2994 35.6509 46.6746 39.7883 46.6746 41.7879V41.7877Z" fill="white"/>
<defs>
<linearGradient id="paint0_linear_226_69" x1="30" y1="0" x2="30" y2="60" gradientUnits="userSpaceOnUse">
<stop stop-color="#28A5F6"/>
<stop offset="1" stop-color="#99D4FC"/>
</linearGradient>
</defs>
</svg>
