<svg width="140" height="140" viewBox="0 0 140 140" fill="none" xmlns="http://www.w3.org/2000/svg">
<g filter="url(#filter0_bdd_191_233)">
<rect x="40" y="39" width="60" height="60" rx="5" fill="url(#paint0_linear_191_233)" fill-opacity="0.61" shape-rendering="crispEdges"/>
<rect x="40.5" y="39.5" width="59" height="59" rx="4.5" stroke="url(#paint1_linear_191_233)" stroke-opacity="0.4" shape-rendering="crispEdges"/>
</g>
<path d="M68.0753 77.2649C68.035 77.273 67.9908 77.2817 67.9429 77.2897C67.5103 77.3613 67.2852 77.3266 67.1064 77.2776C66.8785 77.215 66.6436 77.1505 66.5164 77.3009C66.4237 77.3954 66.4277 77.5622 66.431 77.6115C66.4573 77.9755 67.021 78.0955 67.4859 78.0955C67.5515 78.0955 67.6152 78.0933 67.6753 78.0886C67.9953 78.0651 68.193 78.0282 68.3367 77.9659C68.5896 77.8564 68.6305 77.672 68.6192 77.525C68.6152 77.5018 68.5917 77.3802 68.5075 77.3096C68.3818 77.2029 68.2397 77.2314 68.0753 77.2649ZM73.1342 65.7143C72.1086 65.6969 71.8148 65.7062 71.3856 65.775C70.3378 65.9421 68.9864 66.6422 68.9864 67.1558C68.9864 67.3496 69.0901 67.4345 69.1526 67.4677C69.1978 67.4912 69.2484 67.5036 69.3036 67.5036C69.4284 67.5036 69.5721 67.4441 69.7453 67.321C70.1074 67.0544 70.5147 66.856 71.1049 66.6579C71.5741 66.5032 71.6357 66.4973 72.7598 66.4911C73.3952 66.4831 74.2747 66.5023 74.5115 66.5196C74.6869 66.5327 74.8211 66.497 74.9086 66.4139C74.9944 66.333 75.0035 66.2385 75.0035 66.201C75.0029 65.7458 74.57 65.7387 73.1341 65.7142L73.1342 65.7143ZM74.0738 68.6222C74.3898 68.3863 74.5213 68.2152 74.4316 67.9942C74.3864 67.8667 74.3013 67.8156 74.2388 67.7951C74.0561 67.7325 73.8316 67.8546 73.4844 68.1005C73.2757 68.2419 72.8923 68.4725 72.6351 68.5996L72.2087 68.8138L70.7697 68.7977L70.5162 68.799C69.7417 68.8021 69.6228 68.8024 69.3875 68.9751C69.1264 69.166 69.1575 69.424 69.242 69.5492C69.3421 69.7008 69.5596 69.7402 69.7804 69.6335C70.0153 69.5225 70.5589 69.5517 71.3597 69.6354H71.3606C71.8414 69.6838 72.2422 69.7082 72.5882 69.7082C73.1821 69.7082 73.6147 69.6354 74.0094 69.481C74.6155 69.2423 74.9038 69.0811 74.9038 68.8126C74.9038 68.7016 74.8593 68.6086 74.7787 68.5525C74.6317 68.4493 74.4139 68.4939 74.0738 68.6222ZM69.9723 75.946L69.9589 75.9324C69.7646 75.7123 69.5526 75.9557 69.0922 75.96C68.6361 75.9693 68.1847 75.437 67.9232 75.437C67.6612 75.437 67.6389 75.6757 67.422 75.6894C67.2009 75.703 67.1871 75.5102 66.912 75.5151C66.6365 75.5244 66.2845 75.8822 65.9596 76.0245C65.6347 76.1711 65.1155 75.8453 65.0884 76.0245L65.0793 76.0152C65.075 76.084 65.0973 76.1528 65.1378 76.217C65.3678 76.5884 66.3251 76.8637 67.1148 76.9189C67.2048 76.9282 67.2954 76.9325 67.3903 76.9325C68.0944 76.9325 68.9162 76.7583 69.4894 76.492C69.7871 76.3543 70.022 76.2443 69.9768 75.96C69.9768 75.9554 69.9769 75.9504 69.9723 75.946ZM84.999 68.6923C84.999 71.8157 84.6793 73.842 83.7572 76.724C82.444 80.8366 78.3886 90 67.5419 90C65.8241 90 63.4847 89.269 63.4148 89.0231C63.3904 88.9379 63.3895 88.8058 63.5268 88.6626C76.2474 85.3912 74.7441 74.0921 74.6964 74.208C73.727 76.5818 72.5031 78.48 71.1576 79.6958C70.5615 80.2353 69.3413 81.1408 67.8658 81.1408C66.5882 81.1408 65.2365 80.3605 63.8483 78.821C62.8495 77.7133 62.0558 76.57 61.489 75.4223C61.2672 74.9771 61.1766 74.8379 61.0857 74.8014C60.6629 74.6169 59.5223 73.7898 59.0138 73.2996C56.8416 71.2278 55.5996 68.7012 55.14 65.3426C54.2386 58.7541 57.9175 54.4816 59.688 53.0134C61.3862 51.6059 64.2449 50 68.7968 50C73.0477 50 77.0692 52.1937 78.9966 54.0978C83.1669 58.2195 85 62.8072 85 68.6921L84.999 68.6923ZM69.2593 57.0353C69.0296 56.7086 68.8792 56.4801 68.849 56.4234C68.7694 56.2736 68.6547 56.0994 68.4726 56.0792C68.393 56.0693 68.2752 56.0916 68.1572 56.2358C67.9424 56.5055 68.1343 56.7777 68.5992 57.4337C69.8679 59.2092 71.7406 60.5773 74.1646 61.5002H74.1649C74.2549 61.5343 75.0514 61.8353 75.2097 61.8353C75.3882 61.8353 75.5074 61.6899 75.5553 61.5665C75.6121 61.4218 75.5883 61.2733 75.5093 61.2026C75.472 61.1545 75.44 61.1127 74.5166 60.767C72.2037 59.9049 70.4347 58.6487 69.2594 57.0353L69.2593 57.0353ZM75.3112 69.0161C75.3396 68.7833 75.3649 68.6013 75.3918 68.4522H75.3915C75.544 67.2967 75.5525 65.5024 75.4198 64.5165C73.7332 63.7396 71.6174 63.0654 68.7044 60.717C67.2731 59.5628 66.3323 57.7293 66.3323 57.7293C65.9562 58.5065 64.6906 59.6821 62.9838 60.7141C61.3905 61.6777 59.965 63.3378 59.8911 64.86C59.8676 65.3476 59.9021 65.6502 60.0232 65.8483C60.1474 66.0526 60.3996 66.0653 61.5713 66.0926L61.9002 66.1C62.7638 66.1202 63.5212 66.171 63.8296 66.2302C64.8021 66.4196 65.4778 66.8636 65.8951 67.588C66.3005 68.293 66.4723 70.1903 66.2938 72.0009C66.2273 72.6364 66.198 73.1662 66.2069 73.2515C66.2218 73.4142 66.2322 73.5302 66.9555 73.5773C67.5281 73.6213 67.7199 73.6359 67.7199 73.9738C67.7199 74.3204 67.5436 74.3263 66.9591 74.3452C66.4637 74.3629 66.2712 74.3362 66.023 74.2212C65.3189 73.9118 65.3354 73.4635 65.5196 71.6146C65.6044 70.7989 65.6127 70.4489 65.5629 69.8282C65.4894 68.9137 65.3781 68.3206 65.2228 68.0172C65.0895 67.7499 64.7448 67.4136 64.455 67.2666C63.915 66.9922 63.6423 66.9507 62.0256 66.8952C61.0076 66.8614 60.4045 66.8245 60.0232 66.7356C60.1443 67.1466 60.3255 67.5936 60.5857 68.0109C61.4423 68.5683 61.9413 68.7122 63.0167 68.719C63.6188 68.719 63.8357 68.7478 64.0725 68.8567C64.4428 69.0312 64.6344 69.3325 64.5401 69.5892C64.5038 69.6856 64.4355 69.7545 64.3477 69.7842C64.2086 69.8283 64.0511 69.7799 63.8059 69.6134C63.6305 69.4903 63.6274 69.4882 62.4311 69.4882C61.6178 69.482 60.9634 69.4472 60.6794 69.3961C60.5809 69.3766 60.4936 69.362 60.4219 69.3518C60.519 69.9721 60.9958 71.9509 61.3743 73.1225C61.8117 74.4959 62.4371 75.7545 63.233 76.8641C63.8312 77.6984 64.8296 78.8662 65.6063 79.4602C66.4266 80.0886 67.1837 80.4073 67.8573 80.4073C69.0183 80.4073 70.3233 79.623 71.5323 78.1982C72.6497 76.8803 73.3284 75.4657 74.0606 73.6105C74.8495 71.6246 75.095 70.7224 75.3113 69.0161L75.3112 69.0161Z" fill="white"/>
<defs>
<filter id="filter0_bdd_191_233" x="-64" y="-65" width="268" height="268" filterUnits="userSpaceOnUse" color-interpolation-filters="sRGB">
<feFlood flood-opacity="0" result="BackgroundImageFix"/>
<feGaussianBlur in="BackgroundImageFix" stdDeviation="52"/>
<feComposite in2="SourceAlpha" operator="in" result="effect1_backgroundBlur_191_233"/>
<feColorMatrix in="SourceAlpha" type="matrix" values="0 0 0 0 0 0 0 0 0 0 0 0 0 0 0 0 0 0 127 0" result="hardAlpha"/>
<feOffset dy="1"/>
<feGaussianBlur stdDeviation="20"/>
<feComposite in2="hardAlpha" operator="out"/>
<feColorMatrix type="matrix" values="0 0 0 0 0.808333 0 0 0 0 0.927335 0 0 0 0 1 0 0 0 0.2 0"/>
<feBlend mode="normal" in2="effect1_backgroundBlur_191_233" result="effect2_dropShadow_191_233"/>
<feColorMatrix in="SourceAlpha" type="matrix" values="0 0 0 0 0 0 0 0 0 0 0 0 0 0 0 0 0 0 127 0" result="hardAlpha"/>
<feOffset dy="4"/>
<feGaussianBlur stdDeviation="9"/>
<feComposite in2="hardAlpha" operator="out"/>
<feColorMatrix type="matrix" values="0 0 0 0 0.578472 0 0 0 0 0.83334 0 0 0 0 0.991667 0 0 0 0.3 0"/>
<feBlend mode="normal" in2="effect2_dropShadow_191_233" result="effect3_dropShadow_191_233"/>
<feBlend mode="normal" in="SourceGraphic" in2="effect3_dropShadow_191_233" result="shape"/>
</filter>
<linearGradient id="paint0_linear_191_233" x1="70" y1="39" x2="70" y2="99" gradientUnits="userSpaceOnUse">
<stop stop-color="#49B2FF"/>
<stop offset="1" stop-color="#006EFF"/>
</linearGradient>
<linearGradient id="paint1_linear_191_233" x1="70" y1="39" x2="70" y2="99" gradientUnits="userSpaceOnUse">
<stop stop-color="white" stop-opacity="0.36"/>
<stop offset="1" stop-color="white" stop-opacity="0.81"/>
</linearGradient>
</defs>
</svg>
