<svg width="50" height="60" viewBox="0 0 50 60" fill="none" xmlns="http://www.w3.org/2000/svg">
<path d="M24.096 28.7667L24.8549 28.2226C24.9491 28.1551 25 28.0673 25 27.9729C25 27.8784 24.9492 27.7893 24.8549 27.7231C24.7608 27.6556 24.6384 27.6191 24.5066 27.6191C24.3785 27.6191 24.2561 27.6543 24.1639 27.719L23.1601 28.4386C23.1582 28.44 23.1564 28.4413 23.1526 28.4426L23.1451 28.448C23.0509 28.5155 23 28.6033 23 28.6978C23 28.7922 23.0508 28.8814 23.1451 28.9475C23.3315 29.0811 23.6573 29.0811 23.8438 28.9475L24.096 28.7667Z" fill="#0098FF"/>
<path d="M23.8399 27.189C23.8424 27.1867 23.8447 27.1845 23.8495 27.1822L24.3152 26.7378C24.4351 26.6232 24.5 26.4743 24.5 26.314C24.5 26.1537 24.4353 26.0025 24.3152 25.8903C24.1952 25.7758 24.0391 25.7139 23.8712 25.7139C23.7033 25.7139 23.5448 25.7757 23.4273 25.8903L21.6848 27.5534C21.5649 27.668 21.5 27.8169 21.5 27.9772C21.5 28.1375 21.5647 28.2887 21.6848 28.4009C21.9201 28.6254 22.328 28.6277 22.5657 28.4078L23.8399 27.189Z" fill="#0098FF"/>
<path d="M20.3444 26.0533L21.3548 25.0897C21.4491 24.9998 21.5 24.8829 21.5 24.7572C21.5 24.6314 21.4491 24.5127 21.3548 24.4246C21.2606 24.3347 21.138 24.2861 21.0061 24.2861C20.8742 24.2861 20.7498 24.3346 20.6574 24.4246L19.6452 25.3882C19.5509 25.4781 19.5 25.595 19.5 25.7208C19.5 25.8466 19.5509 25.9653 19.6452 26.0533C19.8392 26.2367 20.1522 26.2367 20.3444 26.0533H20.3444Z" fill="#0098FF"/>
<path d="M23.3211 25.75C23.4372 25.6395 23.5 25.4958 23.5 25.3411C23.5 25.1864 23.4373 25.0405 23.3211 24.9322C23.2026 24.8195 23.047 24.762 22.8914 24.762C22.7358 24.762 22.5801 24.8195 22.4617 24.9322L20.6777 26.6299C20.4408 26.8554 20.4408 27.2245 20.6777 27.45C20.9147 27.6755 21.3026 27.6755 21.5396 27.45L23.3211 25.75Z" fill="#0098FF"/>
<path d="M25.3713 28.6079L25.0991 28.0957C25.0695 28.1904 25.037 28.2795 24.9941 28.3602L24.5 29.29L24.7544 29.7687C24.9171 30.0777 25.2071 30.0777 25.3713 29.7687C25.4541 29.6129 25.5 29.4068 25.5 29.1898C25.5 28.9727 25.4556 28.7694 25.3743 28.6136L25.3713 28.6079Z" fill="#0098FF"/>
<path d="M18.5821 22.2854L21.3546 19.5724L21.5 19.4297L20.515 18.5715L17.5 21.523L18.4827 22.3811L18.5821 22.2854Z" fill="#0098FF"/>
<path d="M26.0647 21.8695L25.8331 22.0913C25.2129 22.6802 24.2062 22.6802 23.586 22.0913C23.1907 21.716 23.1907 21.1064 23.586 20.7312L24.073 20.2688C23.4485 20.0034 22.7496 19.9308 22.0705 20.0677L19.535 22.6179C19.4214 23.3415 19.5874 24.0838 19.9892 24.6996L20.8606 23.8723C21.2493 23.5032 21.8826 23.5032 22.2713 23.8723C22.4416 24.034 22.5312 24.2393 22.553 24.4486C22.9264 24.2703 23.3938 24.3243 23.7061 24.6207C23.8939 24.7991 23.9988 25.0375 23.9988 25.2905C23.9988 25.3464 23.9922 25.4024 23.9813 25.4564C24.2608 25.4356 24.5491 25.5227 24.7631 25.7259C24.9509 25.9042 25.0557 26.1427 25.0557 26.3956C25.0557 26.5863 24.9968 26.7688 24.8854 26.9244C25.0885 26.9534 25.285 27.0384 25.4423 27.1877C25.6301 27.366 25.735 27.6045 25.735 27.8574C25.735 27.8678 25.7328 27.8781 25.7328 27.8885L26.3006 28.4277C26.3028 28.4298 26.3028 28.4298 26.3049 28.4318L26.7701 28.8734C27.0147 29.1057 27.4384 29.1057 27.6829 28.8734C27.934 28.635 27.934 28.2493 27.6851 28.0109L25.9468 26.3605C25.8638 26.2817 25.8638 26.1552 25.9468 26.0764C26.0297 25.9976 26.1629 25.9976 26.246 26.0764L28.041 27.7807C28.2812 28.0087 28.7136 28.0087 28.9495 27.7807C29.2006 27.5401 29.2006 27.1524 28.9495 26.914L27.7921 25.8151C27.7091 25.7364 27.7091 25.6099 27.7921 25.531C27.875 25.4523 28.0082 25.4523 28.0913 25.531L28.8993 26.294C29.1417 26.5221 29.5697 26.5221 29.81 26.294C29.9322 26.178 30 26.0245 30 25.8628C30 25.699 29.9323 25.5456 29.81 25.4315L29.181 24.7763L26.0647 21.8695Z" fill="#0098FF"/>
<path d="M27.5 18.9538L30.4319 21.82V21.8222L30.5172 21.9052L31.5 21.0471L28.4849 18.0957L27.5 18.9538Z" fill="#0098FF"/>
<path d="M27.2843 19.0801C26.2932 18.9388 25.289 19.2641 24.5847 19.953L23.6723 20.8431C23.4426 21.0678 23.4426 21.4336 23.6723 21.6583C24.1274 22.1033 24.8669 22.1033 25.322 21.6583L25.7048 21.2839C25.7464 21.2432 25.8011 21.224 25.8558 21.224C25.9105 21.224 25.963 21.2432 26.0046 21.2839L29.1266 24.2857C29.7545 23.6395 30.0651 22.7708 29.9886 21.8807L27.2843 19.0801Z" fill="#0098FF"/>
<path d="M25 0C11.1972 0 0 10.5999 0 23.6667C0 41 13.9437 50.9333 25 60C36.0566 50.9333 50 41.0667 50 23.6667C50 10.6 38.8029 0 25 0ZM25 36.2667C17.6763 36.2667 11.6901 30.5998 11.6901 23.6667C11.6901 16.7336 17.6763 11.0667 25 11.0667C32.3237 11.0667 38.3099 16.7336 38.3099 23.6667C38.3099 30.6668 32.3237 36.2667 25 36.2667Z" fill="#0098FF"/>
</svg>
