<svg width="220" height="40" viewBox="0 0 220 40" fill="none" xmlns="http://www.w3.org/2000/svg">
<g clip-path="url(#clip0_191_166)">
<path d="M26.8901 4.59084C25.4146 4.59084 24.2965 5.44862 23.6417 7.03894L15.153 28.1043L6.60797 7.03551C5.99761 5.45376 4.87947 4.5874 3.40572 4.5874C1.47376 4.5874 0 6.06622 0 7.90187C0.00737045 8.53599 0.145934 9.16166 0.406908 9.73923L11.8944 37.1282C12.5047 38.7099 13.6229 39.475 15.1428 39.475C16.6627 39.475 17.7347 38.7099 18.3912 37.1282L29.8359 9.74267C30.1199 9.17307 30.2597 8.542 30.2428 7.9053C30.2463 7.46468 30.1616 7.02784 29.9937 6.62071C29.8257 6.21359 29.5779 5.84449 29.265 5.53533C28.9521 5.22616 28.5805 4.98325 28.1722 4.821C27.764 4.65875 27.3274 4.58048 26.8884 4.59084" fill="#223783"/>
<path d="M75.1789 33.2049C71.368 33.2049 68.6821 30.297 68.6821 26.2174C68.6821 22.239 71.4176 19.2814 75.1789 19.2814C78.9402 19.2814 81.5338 22.1361 81.5338 26.2689C81.5338 30.4017 78.9915 33.2049 75.1789 33.2049ZM84.8883 0.00195312C82.9067 0.00195312 81.4313 1.53224 81.4313 3.52229V16.0682C79.7045 14.1811 77.0613 13.0591 73.9086 13.0591C66.8442 13.0591 61.71 18.6192 61.71 26.2689C61.71 33.9186 66.839 39.4787 73.9086 39.4787C77.157 39.4787 79.8566 38.3053 81.5851 36.2655C81.6325 37.1286 82.0057 37.9412 82.6288 38.5381C83.2519 39.1349 84.0781 39.4713 84.9396 39.4787C86.8715 39.4787 88.294 37.9999 88.294 36.0098V3.52057C88.294 1.47905 86.8202 0.00195312 84.8883 0.00195312Z" fill="#223783"/>
<path d="M104.052 34.4296C101.816 34.4296 100.443 33.3574 100.443 31.6744C100.443 29.9914 101.664 29.1251 103.952 29.1251H109.337V29.4304C109.337 32.2868 107.05 34.4296 104.051 34.4296M105.321 13.0571C101.662 13.0571 98.3575 14.1791 96.2221 16.1692C95.3074 17.0269 94.7996 17.9533 94.7996 18.9141C94.7996 20.4443 96.0699 21.7207 97.7471 21.7207C98.4088 21.7207 98.9678 21.5166 99.7817 20.9041C101.255 19.6294 102.832 19.017 104.61 19.017C107.66 19.017 109.337 20.6485 109.337 23.4534V24.5771H103.033C97.1384 24.5771 93.5293 27.3821 93.5293 31.9214C93.5293 36.4093 97.0359 39.4699 102.221 39.4699C105.22 39.4699 107.761 38.5006 109.592 36.7662C109.745 37.527 110.159 38.2097 110.763 38.6946C111.367 39.1795 112.122 39.4357 112.895 39.4184C114.776 39.4184 116.2 37.9911 116.2 36.001V23.8703C116.202 16.9858 112.244 13.0571 105.323 13.0571H105.321Z" fill="#223783"/>
<path d="M151.884 32.9489H144.106V24.4826H151.884C154.883 24.4826 156.662 26.0643 156.662 28.7166C156.662 31.4203 154.883 32.9489 151.884 32.9489ZM148.83 11.1201C151.525 11.1201 153.202 12.5474 153.202 14.9441C153.202 17.3407 151.525 18.8212 148.83 18.8212H144.103V11.1201H148.83ZM157.473 20.6569C159.099 19.1266 159.964 17.0868 159.964 14.5872C159.964 9.02711 155.592 5.20312 149.34 5.20312H140.952C138.919 5.20312 137.445 6.68194 137.445 8.72174V35.3421C137.445 37.3819 138.919 38.8607 140.952 38.8607H152.39C158.887 38.8607 163.47 34.7811 163.47 28.9653C163.474 24.9424 161.237 21.983 157.476 20.6569H157.473Z" fill="#223783"/>
<path d="M218.983 33.613L212.934 25.9616L218.525 18.9278C219.338 17.9585 219.643 17.1436 219.643 16.3785C219.644 15.9429 219.559 15.5114 219.393 15.1088C219.227 14.7061 218.984 14.3403 218.677 14.0322C218.37 13.7241 218.006 13.4798 217.605 13.3134C217.204 13.147 216.774 13.0616 216.34 13.0623C215.271 13.0623 214.356 13.5221 213.544 14.5428L208.562 20.8664L203.683 14.5428C202.971 13.5735 202.006 13.0623 200.937 13.0623C200.499 13.0564 200.064 13.1378 199.658 13.3017C199.251 13.4657 198.881 13.7089 198.569 14.0174C198.257 14.3258 198.01 14.6934 197.84 15.0987C197.671 15.504 197.583 15.939 197.583 16.3785C197.583 17.1436 197.887 17.8058 198.701 18.9278L204.191 26.0182L198.09 33.6181C197.379 34.536 197.023 35.3526 197.023 36.1692C197.024 36.6086 197.112 37.0435 197.281 37.4487C197.451 37.854 197.698 38.2214 198.011 38.5297C198.323 38.838 198.692 39.0811 199.099 39.2449C199.505 39.4086 199.94 39.4898 200.378 39.4837C201.446 39.4837 202.411 38.9227 203.173 37.9534L208.511 31.1186L213.849 37.9534C214.662 38.9227 215.577 39.4837 216.695 39.4837C217.13 39.4889 217.562 39.4068 217.965 39.2421C218.369 39.0774 218.735 38.8335 219.043 38.5247C219.35 38.2158 219.594 37.8483 219.758 37.4438C219.922 37.0393 220.004 36.6059 219.998 36.1692C219.998 35.3526 219.694 34.536 218.983 33.6181" fill="#223783"/>
<path d="M43.2583 3.80176C43.2583 3.80176 29.8252 20.8939 29.8252 27.6909C29.8252 34.488 35.8399 40.0001 43.2583 40.0001C50.6766 40.0001 56.6913 34.4897 56.6913 27.6909C56.6913 20.8922 43.2583 3.80176 43.2583 3.80176ZM42.1777 36.5947C38.1856 36.5947 34.8124 34.1654 33.7216 30.8338C33.591 30.2958 33.5249 29.7441 33.525 29.1903C33.525 27.914 34.2961 26.0474 35.3663 24.0728C35.1678 24.6641 35.0566 25.2814 35.0364 25.905C34.8278 32.7347 42.1777 36.5947 48.5806 33.4535C47.5848 34.7634 46.2204 35.7435 44.6636 36.267C43.8528 36.4844 43.017 36.5946 42.1777 36.5947Z" fill="white"/>
<path d="M180.631 3.80176C180.631 3.80176 167.196 20.8939 167.196 27.6909C167.196 34.488 173.211 40.0001 180.631 40.0001C188.051 40.0001 194.064 34.4897 194.064 27.6909C194.064 20.8922 180.631 3.80176 180.631 3.80176ZM179.551 36.5947C175.558 36.5947 172.185 34.1654 171.093 30.8338C170.963 30.2958 170.897 29.744 170.898 29.1903C170.898 27.914 171.669 26.0474 172.739 24.0728C172.541 24.6641 172.429 25.2814 172.409 25.905C172.201 32.7347 179.551 36.5947 185.952 33.4535C184.956 34.7631 183.593 35.7432 182.036 36.267C181.226 36.4844 180.39 36.5946 179.551 36.5947Z" fill="white"/>
</g>
<defs>
<clipPath id="clip0_191_166">
<rect width="220" height="40" fill="white"/>
</clipPath>
</defs>
</svg>
