<svg width="50" height="60" viewBox="0 0 50 60" fill="none" xmlns="http://www.w3.org/2000/svg">
<path d="M25.521 16C25.521 16 20.8335 21.6076 20.8335 25.5495C20.8335 28.0072 22.9323 30 25.521 30C28.1097 30 30.2085 28.0073 30.2085 25.5495C30.2085 21.6076 25.521 16 25.521 16ZM28.6142 26.0832C28.4061 27.1736 27.5493 28.0851 26.4302 28.4072C26.3909 28.4181 26.3516 28.4242 26.3123 28.4242C26.1354 28.4242 25.9731 28.3154 25.919 28.1473C25.8535 27.9419 25.9764 27.7257 26.1926 27.6635C27.02 27.4256 27.6541 26.7504 27.8081 25.9447C27.8491 25.7331 28.0621 25.5931 28.2849 25.6321C28.5077 25.6694 28.6551 25.8716 28.6142 26.0832L28.6142 26.0832Z" fill="#0098FF"/>
<path d="M25 0C11.1972 0 0 10.5999 0 23.6667C0 41 13.9437 50.9333 25 60C36.0566 50.9333 50 41.0667 50 23.6667C50 10.6 38.8029 0 25 0ZM25 36.2667C17.6763 36.2667 11.6901 30.5998 11.6901 23.6667C11.6901 16.7336 17.6763 11.0667 25 11.0667C32.3237 11.0667 38.3099 16.7336 38.3099 23.6667C38.3099 30.6668 32.3237 36.2667 25 36.2667Z" fill="#0098FF"/>
</svg>
