<svg width="140" height="140" viewBox="0 0 140 140" fill="none" xmlns="http://www.w3.org/2000/svg">
<g filter="url(#filter0_bdd_191_249)">
<rect x="40" y="39" width="60" height="60" rx="5" fill="url(#paint0_linear_191_249)" fill-opacity="0.61" shape-rendering="crispEdges"/>
<rect x="40.5" y="39.5" width="59" height="59" rx="4.5" stroke="url(#paint1_linear_191_249)" stroke-opacity="0.4" shape-rendering="crispEdges"/>
</g>
<path fill-rule="evenodd" clip-rule="evenodd" d="M70.0003 54.2534C83.5768 44.8736 92.4482 57.7879 89.399 67.5807L75.2396 67.5828C74.6881 67.5834 74.1606 67.8935 73.9152 68.4195L72.0954 72.3018L67.6792 57.0342C67.3391 55.8535 65.7104 55.6008 65.0389 56.6727L60.303 64.213L58.5833 59.5428C58.1714 58.4201 56.5985 58.2465 55.9626 59.2946L50.7102 67.9133C47.3495 58.0843 56.2696 44.7669 70.0008 54.2533L70.0003 54.2534ZM88.0804 70.4633C87.3136 71.6886 86.3056 72.8059 85.0369 73.7468C80.1536 77.3698 71.7406 83.1381 70.7741 85.2838L70 87L69.2265 85.2838C68.26 83.138 59.8472 77.3692 54.963 73.7468C53.8699 72.935 52.9706 71.9931 52.2517 70.9638L56.8865 63.358L58.5879 67.9791C59.0164 69.1435 60.626 69.2502 61.2282 68.195L65.778 60.9514L70.3643 76.821C70.5847 77.5864 72.0309 78.4528 73.121 76.9721L76.1712 70.4629H88.0811L88.0804 70.4633Z" fill="white"/>
<defs>
<filter id="filter0_bdd_191_249" x="-64" y="-65" width="268" height="268" filterUnits="userSpaceOnUse" color-interpolation-filters="sRGB">
<feFlood flood-opacity="0" result="BackgroundImageFix"/>
<feGaussianBlur in="BackgroundImageFix" stdDeviation="52"/>
<feComposite in2="SourceAlpha" operator="in" result="effect1_backgroundBlur_191_249"/>
<feColorMatrix in="SourceAlpha" type="matrix" values="0 0 0 0 0 0 0 0 0 0 0 0 0 0 0 0 0 0 127 0" result="hardAlpha"/>
<feOffset dy="1"/>
<feGaussianBlur stdDeviation="20"/>
<feComposite in2="hardAlpha" operator="out"/>
<feColorMatrix type="matrix" values="0 0 0 0 0.808333 0 0 0 0 0.927335 0 0 0 0 1 0 0 0 0.2 0"/>
<feBlend mode="normal" in2="effect1_backgroundBlur_191_249" result="effect2_dropShadow_191_249"/>
<feColorMatrix in="SourceAlpha" type="matrix" values="0 0 0 0 0 0 0 0 0 0 0 0 0 0 0 0 0 0 127 0" result="hardAlpha"/>
<feOffset dy="4"/>
<feGaussianBlur stdDeviation="9"/>
<feComposite in2="hardAlpha" operator="out"/>
<feColorMatrix type="matrix" values="0 0 0 0 0.578472 0 0 0 0 0.83334 0 0 0 0 0.991667 0 0 0 0.3 0"/>
<feBlend mode="normal" in2="effect2_dropShadow_191_249" result="effect3_dropShadow_191_249"/>
<feBlend mode="normal" in="SourceGraphic" in2="effect3_dropShadow_191_249" result="shape"/>
</filter>
<linearGradient id="paint0_linear_191_249" x1="70" y1="39" x2="70" y2="99" gradientUnits="userSpaceOnUse">
<stop stop-color="#49B2FF"/>
<stop offset="1" stop-color="#072EF9"/>
</linearGradient>
<linearGradient id="paint1_linear_191_249" x1="70" y1="39" x2="70" y2="99" gradientUnits="userSpaceOnUse">
<stop stop-color="white" stop-opacity="0.36"/>
<stop offset="1" stop-color="white" stop-opacity="0.81"/>
</linearGradient>
</defs>
</svg>
